<svg xmlns="http://www.w3.org/2000/svg" xmlns:xlink="http://www.w3.org/1999/xlink" viewBox="0 0 120.14 111.93"><defs><style>.cls-1,.cls-10,.cls-11,.cls-12,.cls-13,.cls-15,.cls-16,.cls-19,.cls-20,.cls-21,.cls-22,.cls-3,.cls-6,.cls-8{fill:none;}.cls-14,.cls-2,.cls-4,.cls-9{fill:#fff;}.cls-10,.cls-11,.cls-13,.cls-14,.cls-15,.cls-18,.cls-2,.cls-3,.cls-8,.cls-9{stroke:#363636;}.cls-12,.cls-13,.cls-2,.cls-3,.cls-6{stroke-linecap:round;}.cls-10,.cls-11,.cls-12,.cls-13,.cls-14,.cls-15,.cls-16,.cls-18,.cls-19,.cls-2,.cls-20,.cls-21,.cls-22,.cls-3,.cls-6,.cls-8,.cls-9{stroke-miterlimit:10;}.cls-10,.cls-11,.cls-2,.cls-3,.cls-6,.cls-8,.cls-9{stroke-width:0.3px;}.cls-5{fill:#363636;}.cls-12,.cls-6{stroke:#47d1a5;}.cls-7{fill:#47d1a5;}.cls-10{stroke-dasharray:1 1;}.cls-11{stroke-dasharray:2 1 30;}.cls-12,.cls-13,.cls-14,.cls-15,.cls-16,.cls-18,.cls-19,.cls-20,.cls-21,.cls-22{stroke-width:0.5px;}.cls-16,.cls-19,.cls-20,.cls-21,.cls-22{stroke:#777;}.cls-16{stroke-dasharray:0.5 1;}.cls-17{clip-path:url(#clip-path);}.cls-18{fill:#886ed3;}.cls-20{stroke-dasharray:0.5 1;}.cls-21{stroke-dasharray:0.5 1.01;}.cls-22{stroke-dasharray:0.5 1;}</style><clipPath id="clip-path"><circle class="cls-1" cx="64.58" cy="55.52" r="38.43"/></clipPath></defs><title>Asset 1</title><g id="Layer_2" data-name="Layer 2"><g id="Layer_9" data-name="Layer 9"><path class="cls-2" d="M100.31,97.55a8.68,8.68,0,0,0,1.83,2.77,6.89,6.89,0,0,1,1.5,4.26,6.55,6.55,0,1,1-13.1,0A6.89,6.89,0,0,1,92,100.32a8.47,8.47,0,0,0,1.46-2.1L97.05,97Z"/><path class="cls-3" d="M105.16,103.2a9,9,0,0,1,.11,1.38,8.24,8.24,0,0,1-4.23,7.2"/><path class="cls-3" d="M89.76,108.45A8.23,8.23,0,0,1,91,98.92"/><path class="cls-3" d="M90.37,109.43a6.65,6.65,0,0,1-.41-.62"/><line class="cls-3" x1="87.25" y1="101.72" x2="87.25" y2="102.24"/><path class="cls-3" d="M89.52,95.41v-4a.29.29,0,0,1,.3-.3h1.34a.17.17,0,0,0,.12-.3l-2.73-3.46a.23.23,0,0,0-.35,0L85.47,90.8a.19.19,0,0,0,.15.3H87a.29.29,0,0,1,.29.3V100"/><line class="cls-3" x1="103.75" y1="100.04" x2="103.75" y2="100.56"/><path class="cls-3" d="M106,100.86v-4a.29.29,0,0,1,.3-.3h1.34a.17.17,0,0,0,.12-.3l-2.73-3.46a.23.23,0,0,0-.35,0L102,96.25a.19.19,0,0,0,.15.3h1.34a.29.29,0,0,1,.29.3v1.51"/><path class="cls-3" d="M102.44,89.76a2.34,2.34,0,0,1-.23.51"/><path class="cls-3" d="M100.27,86.85a2.27,2.27,0,0,1,2.24,2"/><path class="cls-4" d="M99.65,92.76a4.5,4.5,0,0,0,.89-1.7c.11-.56.21-1.91.21-1.91l0-.28c0-.33-.55-.5-.55-.5l-2.81-.09a.67.67,0,0,0-.65.46h0a.5.5,0,0,1-.48.35l-1.36,0a.79.79,0,0,0-.62.42l0,.13a5.25,5.25,0,0,0,.13,1.52,2.91,2.91,0,0,0,.36.86h.36l.17.15.15.4,0,.26,1.16.14,2.08-.06Z"/><path class="cls-2" d="M99.65,92.76a4.5,4.5,0,0,0,.89-1.7c.11-.56.21-1.91.21-1.91l0-.28c0-.33-.55-.5-.55-.5l-2.81-.09a.67.67,0,0,0-.65.46h0a.5.5,0,0,1-.48.35l-1.36,0a.79.79,0,0,0-.62.42l0,.13a5.25,5.25,0,0,0,.13,1.52,2.91,2.91,0,0,0,.36.86"/><path class="cls-2" d="M93.49,92.94l1.08-.83s.5-.27.72-.08a.83.83,0,0,1,.2.77s1.43.18,1.9.18c.7,0,2.09-.34,2.79-.27a.56.56,0,0,1,.5.54.66.66,0,0,1-.29.62s.5,0,.54.67a.7.7,0,0,1-.48.67.75.75,0,0,1,.21.56.8.8,0,0,1-.44.73,1.2,1.2,0,0,1,.2.63.86.86,0,0,1-.47.69,7.34,7.34,0,0,1-3.13.86,12.12,12.12,0,0,1-3.41-.46"/><path class="cls-2" d="M100.78,88.87V89a.69.69,0,0,1-.6.55l-.46.06a.7.7,0,0,0-.56.47h0a.62.62,0,0,1-.57.44l-1.74.11a12.13,12.13,0,0,1-1.3,0c-.78-.09-1.39-.76-1.24-1.15"/><path class="cls-2" d="M94.31,89.49a.79.79,0,0,1,.62-.42l1.36,0a.5.5,0,0,0,.48-.35h0a.67.67,0,0,1,.65-.46l2.81.09s.53.17.55.5V89a.69.69,0,0,1-.6.55l-.46.06a.7.7,0,0,0-.56.47h0a.62.62,0,0,1-.57.44l-1.74.11a12.13,12.13,0,0,1-1.3,0C94.77,90.55,94.16,89.88,94.31,89.49Z"/><line class="cls-3" x1="96.77" y1="88.74" x2="96.77" y2="90.58"/><path class="cls-3" d="M99.3,89.84a7.88,7.88,0,0,1-.07,1,7.28,7.28,0,0,1-.37.82"/><path class="cls-3" d="M91.87,92.72h1.45a.2.2,0,0,1,.2.2v5.15a.21.21,0,0,1-.22.21H91.87"/><circle class="cls-5" cx="92.35" cy="97.57" r="0.17"/><path class="cls-6" d="M98,101a3.7,3.7,0,0,1,.57.16"/><path class="cls-6" d="M93.31,104.81a3.89,3.89,0,0,1,3.89-3.89"/><path class="cls-7" d="M97.08,102.14a2.72,2.72,0,1,0,2.71,2.71A2.72,2.72,0,0,0,97.08,102.14Zm0,4.5a1.81,1.81,0,0,1-1.29-.54H97l.5.49A1.75,1.75,0,0,1,97.07,106.64Zm0-1.11H95.41a1.85,1.85,0,0,1-.11-.42h1.81a.25.25,0,0,0,.26-.26.26.26,0,0,0-.26-.26H95.3a1.91,1.91,0,0,1,.11-.41h1.66a.68.68,0,1,1,0,1.35Zm.93.85-.4-.4a1.25,1.25,0,0,0-.53-2.37H95.78a1.81,1.81,0,0,1,1.29-.54,1.79,1.79,0,0,1,.93,3.31Z"/></g><g id="Layer_7" data-name="Layer 7"><rect class="cls-8" x="-0.02" y="36.15" width="16.79" height="2.31" rx="0.96" ry="0.96" transform="translate(-8.72 3.11) rotate(-13.91)"/><rect class="cls-7" x="0.26" y="36.37" width="16.24" height="1.89" rx="0.72" ry="0.72" transform="translate(-8.72 3.11) rotate(-13.91)"/><rect class="cls-8" x="5.14" y="56.98" width="16.79" height="2.31" rx="0.96" ry="0.96" transform="translate(-13.58 4.96) rotate(-13.91)"/><rect class="cls-7" x="5.42" y="57.2" width="16.24" height="1.89" rx="0.72" ry="0.72" transform="translate(-13.58 4.96) rotate(-13.91)"/><path class="cls-9" d="M6.74,58.7a9.5,9.5,0,0,1-.46-2.79c.27-3,2.55-6.75,3.1-7.62A.17.17,0,0,0,9.32,48c-.89-.51-4.67-2.78-6.3-5.3a9.65,9.65,0,0,1-.9-2.68l13.09-3.24a9.35,9.35,0,0,1,.45,2.8c-.27,3-2.55,6.75-3.09,7.61a.18.18,0,0,0,.06.26c.88.51,4.66,2.78,6.29,5.29a9.31,9.31,0,0,1,.9,2.68Z"/><line class="cls-10" x1="6.62" y1="56.24" x2="18.59" y2="53.28"/><line class="cls-10" x1="6.62" y1="57.19" x2="19.11" y2="54.1"/><line class="cls-10" x1="7.08" y1="57.84" x2="19.08" y2="54.87"/><line class="cls-10" x1="7.86" y1="46.78" x2="13.09" y2="45.49"/><line class="cls-10" x1="8.88" y1="47.48" x2="12.5" y2="46.59"/><line class="cls-10" x1="9.55" y1="48.08" x2="12.2" y2="47.42"/><line class="cls-11" x1="20.16" y1="52.44" x2="23.21" y2="51.69"/><line class="cls-11" x1="15.04" y1="44.72" x2="18.24" y2="43.93"/><line class="cls-11" x1="15.93" y1="38.31" x2="19.43" y2="37.44"/><line class="cls-3" x1="14.92" y1="45.85" x2="14.6" y2="45.93"/><path class="cls-3" d="M19.12,46.28l2.45-.61a.18.18,0,0,1,.22.14l.21.82a.1.1,0,0,0,.19,0l1.7-2.19a.15.15,0,0,0-.05-.22l-2.52-1.14a.12.12,0,0,0-.16.14l.2.81a.19.19,0,0,1-.14.23L16,45.6"/><line class="cls-3" x1="16.51" y1="40.85" x2="16.24" y2="40.92"/><path class="cls-3" d="M16.37,42.16l2.12-.53a.15.15,0,0,1,.19.12l.18.71a.09.09,0,0,0,.17,0l1.47-1.89a.12.12,0,0,0-.05-.18l-2.18-1a.09.09,0,0,0-.13.11l.17.71a.17.17,0,0,1-.12.2l-.79.19"/><line class="cls-3" x1="18.03" y1="50.69" x2="17.76" y2="50.76"/><path class="cls-3" d="M17.3,49.61l2.12-.53a.16.16,0,0,0,.12-.19l-.18-.71a.09.09,0,0,1,.14-.1l2.18,1a.12.12,0,0,1,.05.18l-1.47,1.89a.1.1,0,0,1-.17,0l-.18-.7a.16.16,0,0,0-.19-.12l-.8.2"/></g><g id="Layer_8" data-name="Layer 8"><path class="cls-12" d="M101.08,33.18a18.43,18.43,0,0,0,11-23.11"/><path class="cls-7" d="M115.43,12.57a.25.25,0,0,1-.35,0l-3-2.42-.94,3.71a.25.25,0,0,1-.3.18.24.24,0,0,1-.18-.3l1-4.09a.24.24,0,0,1,.4-.13l3.26,2.67a.21.21,0,0,1,.08.11A.26.26,0,0,1,115.43,12.57Z"/><polyline class="cls-13" points="119.07 26.29 100.82 33.37 93.74 15.13"/><path class="cls-7" d="M103.62,20.26s0,0,0,0a1,1,0,0,1-.38.45,1.13,1.13,0,0,1-1.31,0l.8-.55a.1.1,0,0,0,0-.14.11.11,0,0,0-.15,0l-.85.58-.1-.13c0-.05-.06-.09-.09-.15l.85-.58a.11.11,0,0,0,0-.15.11.11,0,0,0-.15,0l-.8.55a1.11,1.11,0,0,1,.45-1.23,1.06,1.06,0,0,1,.56-.2l0,0a.12.12,0,0,0,0-.09.11.11,0,0,0-.12-.1,1.45,1.45,0,0,0-.66.23,1.35,1.35,0,0,0-.51,1.53l-.22.15a.1.1,0,0,0,0,.15.1.1,0,0,0,.14,0l.18-.12.08.15.11.13-.18.12a.1.1,0,0,0,0,.15.1.1,0,0,0,.14,0l.21-.15a1.38,1.38,0,0,0,1.62.07,1.31,1.31,0,0,0,.45-.54.1.1,0,0,0,0-.14A.12.12,0,0,0,103.62,20.26Z"/><path class="cls-7" d="M117.13,21.39l-.12-.23,0,0a.51.51,0,1,0-.44-.92l-.32.15a.27.27,0,0,1-.24-.48l.57-.28a.12.12,0,0,0,.05-.16.12.12,0,0,0-.16-.06l-.3.15-.1-.23a.13.13,0,0,0-.17,0,.11.11,0,0,0,0,.16l.1.22,0,0a.51.51,0,0,0,.45.92l.32-.15a.26.26,0,0,1,.36.12.27.27,0,0,1-.12.36l-.58.28a.12.12,0,0,0-.06.16.13.13,0,0,0,.17.06l.3-.15.12.23a.12.12,0,0,0,.16.06A.14.14,0,0,0,117.13,21.39Z"/></g><g id="Layer_10" data-name="Layer 10"><path class="cls-14" d="M69.18,68.39V71a4.59,4.59,0,0,1-4.51,4.68h0A4.59,4.59,0,0,1,60.17,71V68.48L65.38,66Z"/><path class="cls-14" d="M78.84,49.88v5.27A14.16,14.16,0,0,1,64.67,69.31h0A14.16,14.16,0,0,1,50.51,55.15V46.63l15.29-13Z"/><path class="cls-15" d="M64.83,64a4.76,4.76,0,0,1-4.9-3.22h9.49A5.37,5.37,0,0,1,64.83,64Z"/><path class="cls-13" d="M61,51.36a2.82,2.82,0,0,0-5.64,0"/><path class="cls-13" d="M74,51.36a2.82,2.82,0,0,0-5.64,0"/><circle class="cls-16" cx="64.58" cy="55.52" r="38.43" transform="translate(-0.57 110.37) rotate(-80.78)"/><g class="cls-17"><path class="cls-18" d="M84,94.08c0-.35,0-3.69,0-4C83.25,81,77.34,73.57,69.49,71.37a.3.3,0,0,0-.37.27,4.47,4.47,0,0,1-8.89,0,.31.31,0,0,0-.38-.27C51.93,73.59,46,81.13,45.42,90.29c0,.26,0,3.52,0,3.79"/><line class="cls-13" x1="76.47" y1="86.63" x2="76.47" y2="93.75"/><line class="cls-13" x1="52.51" y1="86.63" x2="52.51" y2="93.75"/></g><path class="cls-14" d="M67.2,36.87a30.21,30.21,0,0,1-6.92,6.92C56.41,46.41,48.17,47,48.17,47S47,42,48.23,39a23.86,23.86,0,0,1,2.87-4.75,9.93,9.93,0,0,1-2.4-4.8c-.4-3,1.87-6.83,1.87-6.83s1.36,3.35,4,4.68c2.3,1.13,5,1.2,6.34,1.43,2.91.5,8.59-1.28,11.36-.25a4.33,4.33,0,0,1,2.55,2.25l.75,2.25a9.31,9.31,0,0,1,5.72,7.52,61.58,61.58,0,0,1-.1,11.44s-1-.76-2.48-1.86c-2.52-1.93-6.33-4.9-8.19-6.69C68.53,41.4,67.2,36.87,67.2,36.87Z"/><polygon class="cls-14" points="66.69 86.99 65.61 77.94 64.67 77.94 64.67 77.94 63.74 77.94 62.66 86.99 64.67 89.9 66.69 86.99"/></g><g id="Layer_11" data-name="Layer 11"><path class="cls-19" d="M108,89.57c.06-.06.11-.13.16-.19"/><path class="cls-20" d="M108.79,88.59a55.11,55.11,0,0,0,6.67-54.82"/><path class="cls-19" d="M115.26,33.31a2.29,2.29,0,0,0-.1-.23"/><path class="cls-19" d="M10,62.06l0,.25"/><path class="cls-21" d="M10.13,63.3a55.19,55.19,0,0,0,73,44.12"/><path class="cls-19" d="M83.63,107.25l.24-.08"/><path class="cls-19" d="M96.07,10l-.21-.14"/><path class="cls-22" d="M95,9.33A55.15,55.15,0,0,0,14.86,31.81"/><path class="cls-19" d="M14.65,32.26c0,.08-.07.15-.1.23"/></g></g></svg>