<svg xmlns="http://www.w3.org/2000/svg" viewBox="0 0 512 613.44"><defs><style>.cls-1{fill:#fff;}.cls-2{fill:#46d1a4;}</style></defs><title>01_fast-icon</title><g id="Layer_2" data-name="Layer 2"><g id="Layer_1-2" data-name="Layer 1"><path class="cls-1" d="M258.39,237.07a41.73,41.73,0,1,0,41.73,41.73A41.78,41.78,0,0,0,258.39,237.07Zm0,67.24a25.52,25.52,0,1,1,25.52-25.51A25.54,25.54,0,0,1,258.39,304.31Z"/><path class="cls-1" d="M424.24,473.13V353.45a8.1,8.1,0,0,0-2.39-5.75L344,270.3V253.21a146.09,146.09,0,0,0-82-131.29,8.16,8.16,0,0,0-7.12,0,146.06,146.06,0,0,0-82,131.29V270.3l-77.9,77.4a8.1,8.1,0,0,0-2.39,5.75V473.13a8.11,8.11,0,0,0,8.11,8.1h72.18v.32a28.65,28.65,0,0,0,28.62,28.62h12a74.41,74.41,0,0,0-7.27,32.22A75.3,75.3,0,0,0,255.62,613a8.07,8.07,0,0,0,5.54,0,75.3,75.3,0,0,0,49.42-70.56,74.41,74.41,0,0,0-7.27-32.22h12A28.65,28.65,0,0,0,344,481.55v-.32h72.17A8.11,8.11,0,0,0,424.24,473.13Zm-251.42-22.8V465H108.75V356.82l64.07-63.67ZM201.45,494A12.42,12.42,0,0,1,189,481.55V458.44h61.25V494Zm56.94,102.67a59.07,59.07,0,0,1-36-54.24,58.26,58.26,0,0,1,9.36-31.81h18.51v15a8.11,8.11,0,1,0,16.21,0v-15H285a58.26,58.26,0,0,1,9.36,31.81A59.06,59.06,0,0,1,258.39,596.63Zm69.36-115.08h0A12.43,12.43,0,0,1,315.34,494H266.5V458.44h61.25ZM408,465H344V400.36a8.11,8.11,0,1,0-16.21,0v41.87H266.5V420.7a8.11,8.11,0,0,0-16.22,0v21.53H189v-189a129,129,0,0,1,69.36-114.92,129,129,0,0,1,69.36,114.92V372.8a8.11,8.11,0,1,0,16.21,0V293.15L408,356.82V465Z"/><path class="cls-2" d="M443.55,523.39a68.68,68.68,0,0,0-26.41,5.29,35.58,35.58,0,0,0-69.52,10.67,8.11,8.11,0,1,0,16.21,0A19.37,19.37,0,1,1,398,551.85a8.11,8.11,0,0,0,12.38,10.47,35.64,35.64,0,0,0,7.73-16.09,52.22,52.22,0,0,1,77.69,45.62,8.11,8.11,0,0,0,16.21,0A68.53,68.53,0,0,0,443.55,523.39Z"/><path class="cls-2" d="M155.23,557.68a40.85,40.85,0,0,0-9.44,1.11,8.11,8.11,0,0,0,.67-6.77,44.86,44.86,0,0,0-78.09-12.24A54.41,54.41,0,0,0,0,592.34a8.11,8.11,0,1,0,16.21,0,38.17,38.17,0,0,1,70.5-20.29,8.1,8.1,0,1,0,13.72-8.63,54.5,54.5,0,0,0-16.57-16.81,28.66,28.66,0,0,1,47.3,10.76,8.07,8.07,0,0,0,5.07,5,41,41,0,0,0-21.95,36.26,8.11,8.11,0,1,0,16.21,0,24.75,24.75,0,0,1,49.49,0,8.11,8.11,0,1,0,16.21,0A41,41,0,0,0,155.23,557.68Z"/></g><g id="Layer_2-2" data-name="Layer 2"><path class="cls-2" d="M407.09,100.05a8.39,8.39,0,0,0,11.87,0l10.85-10.86,10.85,10.86a8.39,8.39,0,1,0,11.87-11.87L441.68,77.33l10.85-10.86a8.39,8.39,0,1,0-11.87-11.86L429.81,65.46,419,54.61a8.39,8.39,0,0,0-11.87,11.86l10.85,10.86L407.09,88.18A8.39,8.39,0,0,0,407.09,100.05Z"/><path class="cls-2" d="M481,215.05a8.4,8.4,0,1,0-8.4-8.39A8.39,8.39,0,0,0,481,215.05Z"/><circle class="cls-2" cx="67.15" cy="268.39" r="8.39"/><path class="cls-2" d="M26.18,86.72A25.21,25.21,0,0,1,51.36,111.9a8.4,8.4,0,0,0,16.79,0A25.21,25.21,0,0,1,93.33,86.72a8.4,8.4,0,0,0,0-16.79A25.21,25.21,0,0,1,68.15,44.75a8.4,8.4,0,0,0-16.79,0A25.21,25.21,0,0,1,26.18,69.93a8.4,8.4,0,0,0,0,16.79ZM59.76,69.91a42.51,42.51,0,0,0,8.42,8.42,42,42,0,0,0-8.42,8.42,42.51,42.51,0,0,0-8.42-8.42A43.05,43.05,0,0,0,59.76,69.91Z"/><circle class="cls-2" cx="283.15" cy="8.39" r="8.39"/></g></g></svg>