<svg xmlns="http://www.w3.org/2000/svg" viewBox="0 0 84.95 77.3"><defs><style>.cls-1{fill:none;stroke:#777;stroke-miterlimit:10;stroke-width:0.5px;stroke-dasharray:0.5 1;}.cls-2{fill:#232c44;}.cls-3{fill:#45d1a4;}.cls-4{fill:#42c193;}.cls-5{fill:#fff;}.cls-6{fill:#a182fa;}.cls-7{fill:#46d1a4;}</style></defs><title>03_protection</title><g id="Layer_2" data-name="Layer 2"><g id="Layer_1-2" data-name="Layer 1"><g id="Layer_10" data-name="Layer 10"><circle class="cls-1" cx="38.65" cy="38.65" r="38.4"/></g><g id="Layer_2-2" data-name="Layer 2"><circle class="cls-2" cx="69.95" cy="16.55" r="15"/><path class="cls-3" d="M78.85,9.75v5.9A11.77,11.77,0,0,1,70,27.05a11.77,11.77,0,0,1-8.9-11.4V9.75A16.64,16.64,0,0,0,70,5.85C72.45,7.75,74.75,9.35,78.85,9.75Z"/><path class="cls-4" d="M70,24.55a9.58,9.58,0,0,1-6.6-9.1v-4a16.8,16.8,0,0,0,6.6-3,18.24,18.24,0,0,0,6.6,3v4A9.24,9.24,0,0,1,70,24.55Z"/><polygon class="cls-5" points="68.45 19.65 66.35 17.45 67.45 16.35 68.45 17.45 72.55 13.35 73.65 14.55 68.45 19.65"/></g><path class="cls-6" d="M46.49,48l-5.83-2.91a1.61,1.61,0,0,1-.89-1.45V41.62c.14-.17.28-.37.44-.58a14,14,0,0,0,1.61-3,1.48,1.48,0,0,1,.53-.72,2.4,2.4,0,0,0,1.08-2V32.94a2.31,2.31,0,0,0-.37-1.36,1.47,1.47,0,0,1-.24-.87V28a5.47,5.47,0,0,0-1.28-4c-1.25-1.43-3.28-2.15-6-2.15s-4.79.72-6.05,2.15a5.44,5.44,0,0,0-1.27,4v2.7a1.6,1.6,0,0,1-.21.83,2.35,2.35,0,0,0-.4,1.31v2.44a2.42,2.42,0,0,0,.64,1.65,1.54,1.54,0,0,1,.37.61,12.91,12.91,0,0,0,1.76,3.67,1.55,1.55,0,0,1,.28.91v.53a3.25,3.25,0,0,1-1.69,2.84l-3.75,2a7.12,7.12,0,0,0-3.71,6.25h0a1.61,1.61,0,0,0,1.62,1.62H47.91a1.62,1.62,0,0,0,1.62-1.62V53a5.48,5.48,0,0,0-3-4.92Z"/><path class="cls-7" d="M55.3,48.73l-5.93-2.57a1.25,1.25,0,0,1-.43-.47h4s.23,0,.59,0A6.36,6.36,0,0,0,56,45.28a1.79,1.79,0,0,0,1-1.16,1.83,1.83,0,0,0-.26-1.54c-1.14-1.62-3.79-5.85-3.88-10.14,0-.07-.24-7.37-7.45-7.43h0a1.67,1.67,0,0,0-1.65,1.86,6,6,0,0,1,0,1.18v2.48a1.59,1.59,0,0,0,.22.76,3.28,3.28,0,0,1,.39,1.56V35.3a3.35,3.35,0,0,1-1.24,2.59,1.67,1.67,0,0,0-.5.65,15,15,0,0,1-1.65,3l-.27.37v.67A2.42,2.42,0,0,0,42,44.78l4.87,2.44A6.36,6.36,0,0,1,50.44,53l0,.83a1.69,1.69,0,0,1-.56,1.26l-.48.37h6.9a1.73,1.73,0,0,0,1.74-1.73v-.52A4.93,4.93,0,0,0,55.3,48.73Z"/></g></g></svg>