<svg xmlns="http://www.w3.org/2000/svg" viewBox="0 0 758.12 493.76"><defs><style>.cls-1,.cls-2{fill:#fff;}.cls-1{opacity:0.5;isolation:isolate;}</style></defs><title>Asset 1</title><g id="Layer_2" data-name="Layer 2"><g id="Layer_1-2" data-name="Layer 1"><rect class="cls-1" x="276.87" y="5.33" width="204.39" height="158.06" rx="4.07" ry="4.07"/><rect class="cls-1" x="276.87" y="332.36" width="204.39" height="158.06" rx="4.07" ry="4.07"/><rect class="cls-1" x="549.39" y="332.36" width="204.39" height="158.06" rx="4.07" ry="4.07"/><rect class="cls-1" x="4.35" y="332.36" width="204.39" height="158.06" rx="4.07" ry="4.07"/><path class="cls-2" d="M280.94,166.74H477.19a8.43,8.43,0,0,0,8.41-8.41V8.4A8.41,8.41,0,0,0,477.19,0H280.94a8.41,8.41,0,0,0-8.41,8.4V158.33A8.43,8.43,0,0,0,280.94,166.74Zm.27-158.07H476.92V158.06H281.21Z"/><path class="cls-2" d="M477.19,327H280.94a8.43,8.43,0,0,0-8.41,8.41V485.35a8.43,8.43,0,0,0,8.41,8.41H477.19a8.43,8.43,0,0,0,8.41-8.41V335.43A8.43,8.43,0,0,0,477.19,327Zm-.27,158.06H281.21V335.7H476.92Z"/><path class="cls-2" d="M749.71,327H553.46a8.43,8.43,0,0,0-8.41,8.41V485.35a8.43,8.43,0,0,0,8.41,8.41H749.71a8.43,8.43,0,0,0,8.41-8.41V335.43A8.43,8.43,0,0,0,749.71,327Zm-.3,158.06H553.73V335.7H749.41Z"/><path class="cls-2" d="M204.67,327H8.41A8.43,8.43,0,0,0,0,335.43V485.35a8.43,8.43,0,0,0,8.41,8.41H204.67a8.43,8.43,0,0,0,8.41-8.41V335.43A8.43,8.43,0,0,0,204.67,327Zm-.26,158.06H8.69V335.7H204.41Z"/><path class="cls-2" d="M374.73,186V301.38a4.34,4.34,0,0,0,8.67.42,2.94,2.94,0,0,0,0-.42V186a4.34,4.34,0,0,0-8.67-.42A2.94,2.94,0,0,0,374.73,186Z"/><path class="cls-2" d="M106.54,304.81a4.34,4.34,0,0,0,4.34-4.34V232.91a9.88,9.88,0,0,1,9.86-9.86h242a4.34,4.34,0,0,0,.42-8.67H120.74a18.56,18.56,0,0,0-18.53,18.54v67.56A4.33,4.33,0,0,0,106.54,304.81Z"/><path class="cls-2" d="M391.08,218.72a4.33,4.33,0,0,0,4.33,4.33h242a9.87,9.87,0,0,1,9.86,9.85v67.56a4.34,4.34,0,0,0,8.67.42,2.94,2.94,0,0,0,0-.42V232.91a18.55,18.55,0,0,0-18.53-18.53h-242A4.35,4.35,0,0,0,391.08,218.72Z"/></g></g></svg>