<?xml version="1.0" encoding="utf-8"?>
<!-- Generator: Adobe Illustrator 22.0.1, SVG Export Plug-In . SVG Version: 6.00 Build 0)  -->
<svg version="1.1" id="Layer_1" xmlns="http://www.w3.org/2000/svg" xmlns:xlink="http://www.w3.org/1999/xlink" x="0px" y="0px"
	 viewBox="0 0 512 417.9" style="enable-background:new 0 0 512 417.9;" xml:space="preserve">
<style type="text/css">
	.st0{opacity:0.57;fill:#AFB9D2;enable-background:new    ;}
	.st1{fill:#775FB7;}
	.st2{fill:#A182FA;}
	.st3{fill:#C7CFE2;}
	.st4{fill:#EFF2FA;}
	.st5{opacity:0.97;}
	.st6{fill:#AFB9D2;}
	.st7{fill:#FFFFFF;}
</style>
<title>shop</title>
<g id="Layer_2_1_">
	<g id="Layer_1-2">
		<path class="st0" d="M494.3,409.1H17.7V8.5c0.1-4.8,4-8.6,8.8-8.5h459c4.8-0.1,8.7,3.7,8.8,8.5L494.3,409.1z"/>
		<path class="st1" d="M494.3,70.7V8.5c-0.1-4.8-4-8.6-8.8-8.5h-459c-4.8-0.1-8.7,3.7-8.8,8.5v62.1H494.3z"/>
		<path class="st0" d="M494.4,124.7c-12.3,3.3-24.9-4.1-28.1-16.3c-0.5-2-0.8-4.1-0.8-6.2c0,12.9-10.4,23.3-23.3,23.3
			c-12.9,0-23.3-10.4-23.3-23.3c-0.3,12.9-10.9,23.1-23.8,22.8c-12.5-0.3-22.5-10.3-22.8-22.8c0,12.9-10.4,23.3-23.3,23.3
			c-12.9,0-23.3-10.4-23.3-23.3c-0.3,12.9-10.9,23.1-23.8,22.8c-12.5-0.3-22.5-10.3-22.8-22.8c0,12.9-10.4,23.3-23.3,23.3
			c-12.9,0-23.3-10.4-23.3-23.3c-0.3,12.9-10.9,23.1-23.8,22.8c-12.5-0.3-22.5-10.3-22.8-22.8c-0.3,12.9-10.9,23.1-23.8,22.8
			c-12.5-0.3-22.5-10.3-22.8-22.8c0,12.9-10.4,23.3-23.3,23.3c-12.9,0-23.3-10.4-23.3-23.3C92.8,115,82.2,125.2,69.3,125
			c-12.5-0.3-22.5-10.3-22.8-22.8c0,12.9-10.4,23.3-23.3,23.3c0,0,0,0,0,0c-1.9,0-3.8-0.3-5.6-0.8v17.8c1.9,0.3,3.7,0.5,5.6,0.6
			c8.3,0,16.4-2.5,23.3-7.3c14,9.7,32.6,9.7,46.5,0c14,9.7,32.6,9.7,46.6,0c14,9.7,32.5,9.7,46.5,0c14,9.7,32.6,9.7,46.6,0
			c14,9.7,32.5,9.7,46.5,0c14,9.7,32.6,9.7,46.5,0c14,9.7,32.5,9.7,46.5,0c14,9.7,32.6,9.7,46.5,0c14,9.7,32.6,9.7,46.5,0
			c6.8,4.7,15,7.3,23.3,7.3c1.9-0.1,3.8-0.2,5.6-0.6L494.4,124.7L494.4,124.7z"/>
		<path class="st2" d="M209.4,126.6L209.4,126.6c-12.9,0-23.3-10.4-23.3-23.3l0,0V82.5h46.6v20.9
			C232.7,116.2,222.3,126.6,209.4,126.6C209.5,126.6,209.5,126.6,209.4,126.6z"/>
		<path class="st2" d="M302.5,126.6L302.5,126.6c-12.9,0-23.3-10.4-23.3-23.3c0,0,0,0,0,0V82.5h46.5v20.9
			C325.8,116.2,315.4,126.6,302.5,126.6z"/>
		<path class="st2" d="M116.4,126.6L116.4,126.6c-12.9,0-23.3-10.4-23.3-23.3l0,0V82.5h46.6v20.9
			C139.6,116.2,129.2,126.6,116.4,126.6C116.4,126.6,116.4,126.6,116.4,126.6z"/>
		<path class="st2" d="M23.3,126.6L23.3,126.6C10.4,126.6,0,116.2,0,103.4V82.5h46.5v20.9C46.5,116.2,36.1,126.6,23.3,126.6
			C23.3,126.6,23.3,126.6,23.3,126.6z"/>
		<path class="st2" d="M395.6,126.6L395.6,126.6c-12.9,0-23.3-10.4-23.3-23.3c0,0,0,0,0,0V82.5h46.5v20.9
			C418.9,116.2,408.5,126.6,395.6,126.6z"/>
		<path class="st3" d="M162.9,126.6L162.9,126.6c-12.9,0-23.3-10.4-23.3-23.3l0,0V82.5h46.5v20.9
			C186.2,116.2,175.8,126.6,162.9,126.6z"/>
		<path class="st3" d="M349.1,126.6L349.1,126.6c-12.9,0-23.3-10.4-23.3-23.3V82.5h46.5v20.9C372.4,116.2,361.9,126.6,349.1,126.6
			C349.1,126.6,349.1,126.6,349.1,126.6z"/>
		<path class="st2" d="M488.7,126.6L488.7,126.6c-12.9,0-23.3-10.4-23.3-23.3c0,0,0,0,0,0V82.5H512v20.9
			C512,116.2,501.6,126.6,488.7,126.6z"/>
		<path class="st3" d="M442.2,126.6L442.2,126.6c-12.9,0-23.3-10.4-23.3-23.3V82.5h46.5v20.9C465.5,116.2,455,126.6,442.2,126.6
			C442.2,126.6,442.2,126.6,442.2,126.6z"/>
		<path class="st3" d="M69.8,126.6L69.8,126.6c-12.9,0-23.3-10.4-23.3-23.3V82.5h46.5v20.9C93.1,116.2,82.7,126.6,69.8,126.6z"/>
		<path class="st3" d="M256,126.6L256,126.6c-12.9,0-23.3-10.4-23.3-23.3l0,0V82.5h46.5v20.9C279.3,116.2,268.9,126.6,256,126.6z"/>
		<polygon class="st2" points="232.7,82.5 186.2,82.5 191,11.9 234.3,11.9 		"/>
		<polygon class="st2" points="325.8,82.5 279.3,82.5 277.7,11.9 321,11.9 		"/>
		<polygon class="st2" points="139.6,82.5 93.1,82.5 104.3,11.9 147.7,11.9 		"/>
		<polygon class="st2" points="46.5,82.5 0,82.5 17.7,11.9 61,11.9 		"/>
		<polygon class="st2" points="418.9,82.5 372.4,82.5 364.3,11.9 407.7,11.9 		"/>
		<polygon class="st4" points="186.2,82.5 139.6,82.5 147.7,11.9 191,11.9 		"/>
		<polygon class="st4" points="372.4,82.5 325.8,82.5 321,11.9 364.3,11.9 		"/>
		<polygon class="st2" points="512,82.5 465.5,82.5 451,11.9 494.4,11.9 		"/>
		<polygon class="st4" points="465.5,82.5 418.9,82.5 407.7,11.9 451,11.9 		"/>
		<polygon class="st4" points="93.1,82.5 46.5,82.5 61,11.9 104.3,11.9 		"/>
		<polygon class="st4" points="279.3,82.5 232.7,82.5 234.3,11.9 277.7,11.9 		"/>
		<path class="st3" d="M503.2,417.9H8.8c-4.9,0-8.8-4-8.8-8.8c0,0,0,0,0,0l0,0c0-4.9,3.9-8.8,8.8-8.8c0,0,0,0,0,0h494.3
			c4.9,0,8.8,3.9,8.8,8.8c0,0,0,0,0,0l0,0C512,414,508,417.9,503.2,417.9L503.2,417.9z"/>
		<g class="st5">
			<rect x="17.7" y="382.6" class="st6" width="476.7" height="17.7"/>
		</g>
		<path class="st6" d="M300.1,170.8V312H70.6V170.8H300.1 M309,153.1H61.8c-4.9,0-8.8,4-8.8,8.8v158.9c0,4.9,3.9,8.8,8.8,8.8H309
			c4.9,0,8.8-4,8.8-8.8V161.9C317.8,157.1,313.9,153.1,309,153.1z"/>
		<path class="st6" d="M450.2,153.1h-88.3c-4.9,0-8.8,4-8.8,8.8v220.7H459V161.9C459,157.1,455.1,153.1,450.2,153.1z"/>
		<path class="st7" d="M63.7,158.7h244.4c2.9,0,5.2,2.4,5.2,5.2c0,0,0,0,0,0v155.7c0,2.9-2.3,5.2-5.2,5.3c0,0,0,0,0,0H63.7
			c-2.9,0-5.2-2.4-5.2-5.3c0,0,0,0,0,0V163.9C58.5,161,60.8,158.7,63.7,158.7C63.7,158.7,63.7,158.7,63.7,158.7z"/>
		<path class="st7" d="M361.9,158.7h88.5c2-0.1,3.7,1.4,3.9,3.3v162.9H358V162C358.2,160,359.9,158.5,361.9,158.7z"/>
	</g>
</g>
</svg>
