<svg xmlns="http://www.w3.org/2000/svg" viewBox="0 0 733.67 493.57"><defs><style>.cls-1,.cls-2{fill:#fff;}.cls-2{opacity:0.5;isolation:isolate;}.cls-3{fill:none;}</style></defs><title>02_apii</title><g id="Layer_2" data-name="Layer 2"><g id="Layer_1-2" data-name="Layer 1"><g id="Layer_2-2" data-name="Layer 2"><g id="Layer_1-2-2" data-name="Layer 1-2"><path class="cls-1" d="M320.36,312.53h-47a3.93,3.93,0,0,0-3.69,2.61L262,336.88a3.93,3.93,0,0,1-3.7,2.61H245.24a3.92,3.92,0,0,1-3.91-3.92,3.78,3.78,0,0,1,.25-1.37l42.89-114.65a3.91,3.91,0,0,1,3.66-2.55h17.7a3.92,3.92,0,0,1,3.67,2.55l42.73,114.66a3.92,3.92,0,0,1-2.32,5,3.84,3.84,0,0,1-1.35.24H335.42a4,4,0,0,1-3.7-2.61l-7.67-21.74A3.91,3.91,0,0,0,320.36,312.53Zm-4.72-20.74-15.08-42.51a3.91,3.91,0,0,0-5-2.4,4,4,0,0,0-2.4,2.4L278.1,291.79a3.92,3.92,0,0,0,3.73,5.27H312a3.92,3.92,0,0,0,3.91-3.93A3.61,3.61,0,0,0,315.64,291.79Z"/><path class="cls-1" d="M389.23,295.12v40.45a3.94,3.94,0,0,1-3.93,3.92H373a3.92,3.92,0,0,1-3.91-3.91h0V219a3.92,3.92,0,0,1,3.9-3.92h38.39q21.51,0,32.34,10.22t10.84,28q0,17.63-11.1,27.76t-32.08,10.13H393.14a3.93,3.93,0,0,0-3.92,3.92h0Zm44.94-41.81q0-10.58-5.91-16.13t-18.94-5.55H393.14a3.94,3.94,0,0,0-3.92,3.92h0v35.34a3.92,3.92,0,0,0,3.9,3.92h16.19q24.87,0,24.85-21.5Z"/><path class="cls-1" d="M492.32,219V335.57a3.91,3.91,0,0,1-3.89,3.92H476.16a3.92,3.92,0,0,1-3.93-3.9h0V219a3.92,3.92,0,0,1,3.9-3.92H488.4a3.9,3.9,0,0,1,3.92,3.9h0Z"/><path class="cls-2" d="M611.83,5h-490a62,62,0,0,0-62,62h0V426.53a62,62,0,0,0,62,62h490a62,62,0,0,0,62-62h0V67A62,62,0,0,0,611.83,5ZM610,43a10.87,10.87,0,1,1-.06,0ZM506.83,43h65.22a10.87,10.87,0,0,1,0,21.73H506.74A10.87,10.87,0,0,1,506.08,43h.75Zm142.6,380a38.49,38.49,0,0,1-38.49,38.49H122.75A38.49,38.49,0,0,1,84.26,423V107.06A9.75,9.75,0,0,1,94,97.32H639.64a9.74,9.74,0,0,1,9.74,9.74Z"/><path class="cls-1" d="M610,69.73a15.87,15.87,0,1,1,15.84-15.89h0A15.88,15.88,0,0,1,610,69.73ZM610,48a5.87,5.87,0,1,0,5.84,5.89h0A5.88,5.88,0,0,0,610,48Z"/><path class="cls-1" d="M610.89,466.4H122.75a43.55,43.55,0,0,1-43.49-43.49V107.06A14.76,14.76,0,0,1,94,92.33H639.64a14.75,14.75,0,0,1,14.74,14.73V422.91A43.53,43.53,0,0,1,610.89,466.4ZM94,102.33a4.76,4.76,0,0,0-4.74,4.73V422.91a33.53,33.53,0,0,0,33.49,33.49H610.89a33.52,33.52,0,0,0,33.49-33.49V107.06a4.74,4.74,0,0,0-4.74-4.74Z"/><path class="cls-1" d="M611.83,493.57h-490a67.12,67.12,0,0,1-67-67V67a67.12,67.12,0,0,1,67-67h490a67.11,67.11,0,0,1,67,67V426.53A67.12,67.12,0,0,1,611.83,493.57ZM121.83,10a57.11,57.11,0,0,0-57,57V426.53a57.11,57.11,0,0,0,57,57h490a57.1,57.1,0,0,0,57-57V67a57.1,57.1,0,0,0-57-57Z"/><path class="cls-1" d="M572,69.73H506.74A15.87,15.87,0,1,1,506,38h66a15.87,15.87,0,0,1,0,31.73ZM506.74,48a5.87,5.87,0,0,0-.54,11.73h.06a3.84,3.84,0,0,0,.48,0H572A5.87,5.87,0,0,0,572,48Z"/></g></g><line class="cls-3" x1="733.67" y1="53.87" x2="733.67" y2="381.59"/><line class="cls-3" y1="53.87" y2="381.59"/></g></g></svg>