<svg xmlns="http://www.w3.org/2000/svg" viewBox="0 0 501.55 423.18"><defs><style>.cls-1{fill:#afb9d2;}.cls-2,.cls-6{fill:#fff;}.cls-3{fill:#cdd6e0;}.cls-4{fill:#f2f2f2;}.cls-5{fill:#acb3ba;opacity:0.38;}.cls-6{opacity:0.5;}.cls-7{fill:#f2f2ff;}.cls-8{fill:#a182fa;}</style></defs><title>online</title><g id="Layer_2" data-name="Layer 2"><g id="Layer_1-2" data-name="Layer 1"><path class="cls-1" d="M480.65,0H20.9A21,21,0,0,0,0,20.9V332.28a21,21,0,0,0,20.9,20.9H480.65a21,21,0,0,0,20.9-20.9V20.9A21,21,0,0,0,480.65,0Z"/><rect class="cls-2" x="16.44" y="21.52" width="466.67" height="307.78"/><rect class="cls-3" x="154.64" y="353.18" width="191.22" height="56.42"/><rect class="cls-4" x="97.18" y="409.6" width="307.2" height="13.58"/><rect class="cls-5" x="154.64" y="353.18" width="191.22" height="15.67"/><circle class="cls-6" cx="160.03" cy="93.31" r="7.6"/><path class="cls-7" d="M102.78,102.41h281.5a11,11,0,0,1,11,11V255.64a0,0,0,0,1,0,0H91.78a0,0,0,0,1,0,0V113.41a11,11,0,0,1,11-11Z" transform="translate(487.05 358.05) rotate(-180)"/><circle class="cls-2" cx="130.9" cy="93.31" r="7.6"/><circle class="cls-6" cx="101.77" cy="93.31" r="7.6"/><polygon class="cls-1" points="351.86 196 361.19 229.41 369.55 221.06 377.41 229.41 384.78 222.04 376.92 213.69 384.78 205.34 351.86 196"/><circle class="cls-8" cx="250.25" cy="175.07" r="43.83"/><path class="cls-2" d="M230.66,193.9a27,27,0,0,0,19.45,8.24,27.33,27.33,0,0,0,6.17-.7l-7.62-7.54Z"/><path class="cls-2" d="M250.11,148a27,27,0,0,0-19.45,8.25h19.45a18.83,18.83,0,0,1,18.83,18.83h0a18.82,18.82,0,0,1-10.75,17l6.11,6A27.08,27.08,0,0,0,250.11,148Z"/><path class="cls-2" d="M260.45,175.07a10.32,10.32,0,0,0-10.28-10.28H225.06a26.55,26.55,0,0,0-1.74,6.34h27.47a3.94,3.94,0,0,1,3.94,3.94h0a4,4,0,0,1-3.94,3.94H223.32a26.34,26.34,0,0,0,1.74,6.33h25.11a10.31,10.31,0,0,0,10.28-10.27Z"/><path class="cls-8" d="M102.78,63.91h281.5a11,11,0,0,1,11,11v27.83a0,0,0,0,1,0,0H91.78a0,0,0,0,1,0,0V74.91A11,11,0,0,1,102.78,63.91Z"/><circle class="cls-6" cx="110.71" cy="84.12" r="5.17"/><circle class="cls-2" cx="127.58" cy="84.12" r="5.17"/><circle class="cls-6" cx="145.47" cy="84.12" r="5.17"/></g></g></svg>