<svg xmlns="http://www.w3.org/2000/svg" xmlns:xlink="http://www.w3.org/1999/xlink" viewBox="0 0 891.8 892.1"><defs><style>.cls-1,.cls-2{fill:none;}.cls-2{stroke:#fff;stroke-dasharray:4.01 5.01;}.cls-2,.cls-6{stroke-miterlimit:10;stroke-width:2px;}.cls-3{fill:#232c44;}.cls-4{clip-path:url(#clip-path);}.cls-5{fill:#46d1a4;}.cls-6{fill:#a182fa;stroke:#363636;}</style><clipPath id="clip-path"><rect class="cls-1" x="755.74" y="388.41" width="100.9" height="110"/></clipPath></defs><title>02_secure</title><g id="Layer_2" data-name="Layer 2"><g id="Layer_1-2" data-name="Layer 1"><g id="Layer_1-3" data-name="Layer 1"><circle class="cls-2" cx="445.7" cy="445.7" r="360"/></g><g id="Layer_2-2" data-name="Layer 2"><circle class="cls-3" cx="791.7" cy="446.7" r="100.1"/><g class="cls-4"><path class="cls-5" d="M840.54,486.91c-17.1,0-32.1-12.9-32.1-27.5a2.3,2.3,0,0,0-4.6,0c0,17.1,17.1,32.1,36.7,32.1a2.26,2.26,0,0,0,2.3-2.3,2.33,2.33,0,0,0-2.3-2.3Z"/></g><g class="cls-4"><path class="cls-5" d="M771.74,402.61a2.66,2.66,0,0,0,1.2-.3,64.8,64.8,0,0,1,64.2-1.3,2.28,2.28,0,1,0,2.2-4,68.38,68.38,0,0,0-68.8,1.4,2.31,2.31,0,0,0-.8,3.1,2.43,2.43,0,0,0,2,1.1Z"/></g><g class="cls-4"><path class="cls-5" d="M856.24,428.51c-8.9-16-28.6-26.4-50.1-26.4s-41.3,10.4-50.1,26.4a2.28,2.28,0,0,0,4,2.2c8.1-14.6,26.2-24,46.1-24s38,9.4,46.1,24a2.2,2.2,0,0,0,2,1.2,2,2,0,0,0,1.1-.3,2.29,2.29,0,0,0,.9-3.1Z"/></g><path class="cls-5" d="M778.64,461.71c0-15.9,11.6-27.5,27.5-27.5,16.7,0,27.5,9.9,27.5,25.2a2.3,2.3,0,1,0,4.6,0c0-17.8-12.9-29.8-32.1-29.8-18.3,0-32.1,13.8-32.1,32.1,0,13.4,4.8,24.5,15.5,35.9a2.34,2.34,0,0,0,1.7.7,2.45,2.45,0,0,0,1.6-.6,2.24,2.24,0,0,0,.1-3.2c-9.9-10.5-14.3-20.6-14.3-32.8Z"/><path class="cls-5" d="M806.14,415.91c-26.6,0-45.8,18.3-45.8,43.6,0,6.8,2.3,13.3,4.8,19.2a2.28,2.28,0,0,0,4.2-1.8c-2.3-5.5-4.4-11.5-4.4-17.5,0-22.9,17-39,41.3-39,23.5,0,41.3,17.7,41.3,41.3a11.5,11.5,0,1,1-23,0c0-10.8-7.5-18.3-18.3-18.3s-18.3,7.5-18.3,18.3c0,15,8.5,27.5,24.5,36.4a2.28,2.28,0,0,0,1.1.3,2.2,2.2,0,0,0,2-1.2,2.29,2.29,0,0,0-.9-3.1c-14.7-8.1-22.1-19-22.1-32.4,0-9.5,6.9-13.8,13.8-13.8s13.8,4.3,13.8,13.8a16,16,0,0,0,32,0c-.2-26.1-19.9-45.8-46-45.8Z"/><circle class="cls-3" cx="447.3" cy="792" r="100.1"/><path class="cls-5" d="M517.4,769.3H372.3a10.24,10.24,0,0,0-10.2,10.2v31.1a10.24,10.24,0,0,0,10.2,10.2H463a2.4,2.4,0,1,0,0-4.8H372.3a5.34,5.34,0,0,1-5.3-5.3V779.6a5.34,5.34,0,0,1,5.3-5.3H517.4a5.34,5.34,0,0,1,5.3,5.3v23.3a2.4,2.4,0,0,0,4.8,0V779.6A10.06,10.06,0,0,0,517.4,769.3Z"/><path class="cls-5" d="M517.2,808.5v-3.2a20.6,20.6,0,0,0-41.2,0v3.2a7.67,7.67,0,0,0-5.2,7.2v25.9a7.6,7.6,0,0,0,7.6,7.6h36.4a7.6,7.6,0,0,0,7.6-7.6V815.7A7.67,7.67,0,0,0,517.2,808.5Zm-20.6-18.8a15.66,15.66,0,0,1,15.7,15.7v2.8H480.9v-2.8A15.73,15.73,0,0,1,496.6,789.7Zm20.9,51.9a2.8,2.8,0,0,1-2.8,2.8H478.5a2.8,2.8,0,0,1-2.8-2.8V815.7a2.8,2.8,0,0,1,2.8-2.8h36.3a2.8,2.8,0,0,1,2.8,2.8l-.1,25.9Z"/><path class="cls-5" d="M401.5,788.6a2.37,2.37,0,0,0-3.3-.9l-5.3,3.1v-6.2a2.4,2.4,0,0,0-4.8,0v6.2l-5.3-3.1a2.42,2.42,0,0,0-2.4,4.2l5.3,3.1-5.3,3.1a2.37,2.37,0,0,0-.9,3.3,2.35,2.35,0,0,0,2.1,1.2,2.66,2.66,0,0,0,1.2-.3l5.3-3.1v6.2a2.4,2.4,0,0,0,4.8,0v-6.2l5.3,3.1a2.66,2.66,0,0,0,1.2.3,2.41,2.41,0,0,0,1.2-4.5l-5.3-3.1,5.3-3.1A2.33,2.33,0,0,0,401.5,788.6Z"/><path class="cls-5" d="M432.6,788.6a2.37,2.37,0,0,0-3.3-.9l-5.3,3.1v-6.2a2.4,2.4,0,1,0-4.8,0v6.2l-5.3-3.1a2.42,2.42,0,0,0-2.4,4.2l5.3,3.1-5.3,3.1a2.37,2.37,0,0,0-.9,3.3,2.35,2.35,0,0,0,2.1,1.2,2.66,2.66,0,0,0,1.2-.3l5.3-3.1v6.2a2.4,2.4,0,1,0,4.8,0v-6.2l5.3,3.1a2.66,2.66,0,0,0,1.2.3,2.41,2.41,0,0,0,1.2-4.5l-5.3-3.1,5.3-3.1A2.41,2.41,0,0,0,432.6,788.6Z"/><path class="cls-5" d="M463.7,788.6a2.37,2.37,0,0,0-3.3-.9l-5.3,3.1v-6.2a2.4,2.4,0,0,0-4.8,0v6.2l-5.3-3.1a2.42,2.42,0,0,0-2.4,4.2l5.3,3.1-5.3,3.1a2.37,2.37,0,0,0-.9,3.3,2.35,2.35,0,0,0,2.1,1.2,2.66,2.66,0,0,0,1.2-.3l5.3-3.1v6.2a2.4,2.4,0,0,0,4.8,0v-6.2l5.3,3.1a2.66,2.66,0,0,0,1.2.3,2.41,2.41,0,0,0,1.2-4.5l-5.3-3.1,5.3-3.1A2.5,2.5,0,0,0,463.7,788.6Z"/><path class="cls-5" d="M496.6,818.5a7.59,7.59,0,0,0-2.4,14.8v3.2a2.4,2.4,0,1,0,4.8,0v-3.2a7.67,7.67,0,0,0,5.2-7.2A7.53,7.53,0,0,0,496.6,818.5Zm0,10.3a2.8,2.8,0,0,1,0-5.6,2.8,2.8,0,0,1,0,5.6Z"/><circle class="cls-3" cx="100.1" cy="446" r="100.1"/><path class="cls-5" d="M116.9,462.1a2.48,2.48,0,0,0-2.5,2.5V490H51V426.6H70.4a2.5,2.5,0,0,0,0-5H51V411a8,8,0,0,1,8-8h3.6a2.5,2.5,0,0,0,0-5H59a13,13,0,0,0-13,13v94.8a13,13,0,0,0,13,13h47.4a13,13,0,0,0,13-13v-41A2.53,2.53,0,0,0,116.9,462.1Zm-10.6,51.5H58.9a8,8,0,0,1-8-8V495h63.4v10.6A7.84,7.84,0,0,1,106.3,513.6Z"/><path class="cls-5" d="M94.1,401.5c-3.7-.6-3.8-1-3.8-1.7,0-1.3,2.2-1.7,3.4-1.7,1.9,0,3.1.6,3.3,1.3a2.5,2.5,0,1,0,4.7-1.7c-1-2.8-4.1-4.6-8.1-4.6-5,0-8.4,2.8-8.4,6.7,0,5.4,5,6.2,8,6.7,3.7.6,3.8,1,3.8,1.7,0,1.3-2.2,1.7-3.4,1.7-1.9,0-3.1-.6-3.3-1.3a2.5,2.5,0,0,0-4.7,1.7c1,2.8,4.1,4.6,8.1,4.6,5,0,8.4-2.8,8.4-6.7C102.2,402.8,97.1,402,94.1,401.5Z"/><path class="cls-5" d="M140.4,401.5c-3.7-.6-3.8-1-3.8-1.7,0-1.3,2.2-1.7,3.4-1.7,1.9,0,3.1.6,3.3,1.3a2.5,2.5,0,0,0,4.7-1.7c-1-2.8-4.1-4.6-8.1-4.6-5,0-8.4,2.8-8.4,6.7,0,5.4,5,6.2,8,6.7,3.7.6,3.8,1,3.8,1.7,0,1.3-2.2,1.7-3.4,1.7-1.9,0-3.1-.6-3.3-1.3a2.5,2.5,0,1,0-4.7,1.7c1,2.8,4.1,4.6,8.1,4.6,5,0,8.4-2.8,8.4-6.7C148.4,402.8,143.4,402,140.4,401.5Z"/><path class="cls-5" d="M124.9,393.2a2.48,2.48,0,0,0-2.8.7l-5.2,6.1-5.2-6.1a2.5,2.5,0,0,0-4.4,1.7v16.8a2.5,2.5,0,0,0,5,0v-9.9l2.7,3.2a2.46,2.46,0,0,0,3.8,0l2.7-3.2v9.9a2.5,2.5,0,0,0,5,0V395.6A2.5,2.5,0,0,0,124.9,393.2Z"/><path class="cls-5" d="M149.8,377c-8.8-7-20.5-10.9-33-10.9S92.7,370,83.8,377s-14,16.7-14,26.9c0,17.9,15.4,33.2,36.9,36.9a19.34,19.34,0,0,1-5.6,15.1,2.46,2.46,0,0,0-.5,2.7,2.53,2.53,0,0,0,2.3,1.5,24.29,24.29,0,0,0,23.7-19.4c21.6-3.7,37-19,37-36.9C163.8,393.8,158.8,384.2,149.8,377Zm-25.6,59.2a2.54,2.54,0,0,0-2.2,2.7h0a19.47,19.47,0,0,1-13.3,15.5,25.13,25.13,0,0,0,3-15.5h0a2.61,2.61,0,0,0-2.2-2.7c-20-2.8-34.6-16.3-34.6-32.3,0-18.1,18.8-32.8,41.9-32.8s41.9,14.7,41.9,32.8C158.8,419.9,144.2,433.4,124.2,436.2Z"/><circle class="cls-3" cx="445.4" cy="100.1" r="100.1"/><path class="cls-5" d="M492.3,156.9H460.8a3.3,3.3,0,0,1,0-6.6h31.5a4.48,4.48,0,0,0,4.5-4.5V114.3a3.3,3.3,0,1,1,6.6,0v31.5A11.14,11.14,0,0,1,492.3,156.9Z"/><path class="cls-5" d="M500.1,84.3a3.33,3.33,0,0,1-3.3-3.3V49.5a4.48,4.48,0,0,0-4.5-4.5H460.8a3.3,3.3,0,0,1,0-6.6h31.5a11.14,11.14,0,0,1,11.1,11.1V81A3.33,3.33,0,0,1,500.1,84.3Z"/><path class="cls-5" d="M388.2,84.3a3.37,3.37,0,0,1-3.4-3.4V49.4a11.14,11.14,0,0,1,11.1-11.1h31.5a3.35,3.35,0,0,1,0,6.7H396a4.48,4.48,0,0,0-4.5,4.5V81A3.33,3.33,0,0,1,388.2,84.3Z"/><path class="cls-5" d="M427.4,156.9H396a11.16,11.16,0,0,1-11.2-11.1V114.3a3.35,3.35,0,0,1,3.4-3.3,3.27,3.27,0,0,1,3.3,3.3v31.5a4.48,4.48,0,0,0,4.5,4.5h31.5a3.3,3.3,0,1,1-.1,6.6Z"/></g><path class="cls-6" d="M526,417.4V372.2a78.65,78.65,0,1,0-157.3,0v45.2a37.13,37.13,0,0,0-37.2,37.2v98.2A37.19,37.19,0,0,0,368.7,590H526.1a37.19,37.19,0,0,0,37.2-37.2V454.5A37.32,37.32,0,0,0,526,417.4Zm-64.4,87.3v30.7a14.3,14.3,0,0,1-28.6,0V504.7a25.9,25.9,0,1,1,28.6,0Zm-63-87.3c0-17,.1-36.2.1-45.2a48.7,48.7,0,0,1,97.4,0v45.2Z"/><path class="cls-5" d="M443.2,127.9a31.86,31.86,0,0,1-22.3-8.6,3.37,3.37,0,1,1,4.5-5,24.74,24.74,0,0,0,14,6.6c8,1,15.3-.8,21.4-6.3a3.66,3.66,0,0,1,3.4-1.2,3.4,3.4,0,0,1,2.6,2.3,3.11,3.11,0,0,1-.9,3.4,32.23,32.23,0,0,1-10.7,6.7A31.34,31.34,0,0,1,443.2,127.9Z"/><path class="cls-5" d="M450,84.9V96.2a8.74,8.74,0,0,1-3.7,7.6,9.18,9.18,0,0,1-5.3,1.6h-2.2a3.37,3.37,0,0,1-3.4-3.4,3.32,3.32,0,0,1,3.5-3.3H441c1.6,0,2.3-.7,2.3-2.3V72.8a3.37,3.37,0,0,1,2.3-3.2,3.32,3.32,0,0,1,3.7,1.2,3.69,3.69,0,0,1,.7,2.3Z"/><path class="cls-5" d="M414,77.5V73.1a5.9,5.9,0,0,1,.2-1.4,3.21,3.21,0,0,1,3.2-2.2,3.28,3.28,0,0,1,2.9,2.7,2.77,2.77,0,0,1,.1.9v8.8a3.23,3.23,0,0,1-1.5,3,3,3,0,0,1-3,.3,3.19,3.19,0,0,1-1.9-3c-.1-1.6,0-3.1,0-4.7Z"/><path class="cls-5" d="M473.3,77.4V82a3.46,3.46,0,0,1-2.3,3.3,3.22,3.22,0,0,1-4.1-2.5,2.49,2.49,0,0,1-.1-.8V73a3.56,3.56,0,0,1,1.5-3,2.74,2.74,0,0,1,3-.2,3.32,3.32,0,0,1,1.9,2.9c.1,1.6.1,3.2.1,4.7Z"/></g></g></svg>