<svg xmlns="http://www.w3.org/2000/svg" viewBox="0 0 733.67 494.61"><defs><style>.cls-1,.cls-2{fill:#fff;}.cls-1{opacity:0.5;isolation:isolate;}</style></defs><title>03_api-esnt_1</title><g id="Layer_2" data-name="Layer 2"><g id="Layer_1-2" data-name="Layer 1"><g id="Layer_2-2" data-name="Layer 2"><g id="Layer_1-2-2" data-name="Layer 1-2"><path class="cls-1" d="M589.62,446.59A38.63,38.63,0,0,1,558.05,463H67.58a38.67,38.67,0,0,1-38.66-38.68h0V106.94a9.78,9.78,0,0,1,9.78-9.78H586.92a9.78,9.78,0,0,1,9.79,9.77h0V146.3h24.56V66.68A62.34,62.34,0,0,0,559,4.34H66.67A62.34,62.34,0,0,0,4.34,66.68V427.93a62.35,62.35,0,0,0,62.33,62.33H558.92a62.35,62.35,0,0,0,59.49-43.67Zm-32.48-404a10.92,10.92,0,1,1-10.92,10.92h0A10.92,10.92,0,0,1,557.14,42.59Zm-103.73,0h65.51a10.92,10.92,0,0,1,0,21.84H453.41a10.92,10.92,0,0,1,0-21.84Z"/><path class="cls-2" d="M558.92,494.61H66.67A66.74,66.74,0,0,1,0,427.93V66.68A66.74,66.74,0,0,1,66.67,0H558.92A66.75,66.75,0,0,1,625.6,66.68v84H592.38V107a5.44,5.44,0,0,0-5.44-5.43H38.69A5.44,5.44,0,0,0,33.26,107V424.29a34.36,34.36,0,0,0,34.32,34.33H558.05a34.41,34.41,0,0,0,28-14.54l1.3-1.84h37l-1.76,5.64A66.4,66.4,0,0,1,558.92,494.61ZM66.67,8.69a58,58,0,0,0-58,58h0V427.93a58,58,0,0,0,58,58H558.92a57.69,57.69,0,0,0,53.25-35H591.79a43.06,43.06,0,0,1-33.74,16.38H67.58a43.07,43.07,0,0,1-43-43V106.94A14.15,14.15,0,0,1,38.69,92.81H586.92a14.15,14.15,0,0,1,14.13,14.13v35h15.87V66.68a58.05,58.05,0,0,0-58-58ZM557.14,68.75a15.27,15.27,0,1,1,15.27-15.27,15.27,15.27,0,0,1-15.27,15.27Zm0-21.84a6.58,6.58,0,1,0,6.58,6.58h0a6.59,6.59,0,0,0-6.58-6.58ZM518.92,68.75H453.41a15.27,15.27,0,0,1-.83-30.53h66.34a15.27,15.27,0,1,1,.83,30.53h0Q519.31,68.77,518.92,68.75ZM453.41,46.91a6.58,6.58,0,1,0-.57,13.15H518.9a6.58,6.58,0,0,0,.51-13.15Z"/><path class="cls-2" d="M733.67,306.29v-20a6.59,6.59,0,0,0-6.58-6.6H701.47a94.25,94.25,0,0,0-15.14-37.81l18.29-18.28a6.6,6.6,0,0,0,0-9.32h0l-14.13-14.13a6.6,6.6,0,0,0-9.32,0l-18.1,18.1a94.1,94.1,0,0,0-37.6-16V176.37a6.59,6.59,0,0,0-6.59-6.59h-20a6.6,6.6,0,0,0-6.6,6.59V202a94.17,94.17,0,0,0-37.78,15.2l-18.27-18.27a6.6,6.6,0,0,0-9.32,0L512.8,213.1a6.6,6.6,0,0,0,0,9.32h0l18.12,18.07a94.09,94.09,0,0,0-16.18,39.21H489.11a6.6,6.6,0,0,0-6.59,6.6v20a6.59,6.59,0,0,0,6.59,6.59H515a93.9,93.9,0,0,0,16,37.45l-18.09,18.08a6.6,6.6,0,0,0,0,9.32L527,391.87a6.6,6.6,0,0,0,9.32,0h0l18.28-18.28A94.4,94.4,0,0,0,592.3,388.7v25.63a6.6,6.6,0,0,0,6.6,6.59h20a6.59,6.59,0,0,0,6.59-6.59h0V388.47a94.15,94.15,0,0,0,37.41-15.93L681,390.65a6.58,6.58,0,0,0,9.31,0h0l14.14-14.13a6.6,6.6,0,0,0,0-9.32l-18.28-18.27a94.21,94.21,0,0,0,14.94-36.05H727a6.59,6.59,0,0,0,6.63-6.55h0ZM607.3,366.1A71.67,71.67,0,1,1,679,294.43h0A71.69,71.69,0,0,1,607.3,366.1Z"/><path class="cls-1" d="M607.3,238.58a55.83,55.83,0,1,0,55.82,55.84h0a55.84,55.84,0,0,0-55.82-55.84Zm0,76.27a20.44,20.44,0,1,1,20.43-20.45h0A20.44,20.44,0,0,1,607.3,314.85Z"/><path class="cls-2" d="M607.3,354.58a60.17,60.17,0,1,1,60.17-60.17h0A60.25,60.25,0,0,1,607.3,354.58Zm0-111.65a51.48,51.48,0,1,0,51.48,51.48h0a51.53,51.53,0,0,0-51.48-51.48Zm0,76.26a24.78,24.78,0,1,1,24.78-24.78,24.77,24.77,0,0,1-24.78,24.78Zm0-40.87a16.09,16.09,0,1,0,16.09,16.09,16.09,16.09,0,0,0-16.09-16.09Z"/><path class="cls-2" d="M219.36,313.7h-47.2a3.92,3.92,0,0,0-3.71,2.63l-7.71,21.84a4,4,0,0,1-3.72,2.62h-13.1a3.93,3.93,0,0,1-3.93-3.93,3.83,3.83,0,0,1,.25-1.38l43.09-115.2a4,4,0,0,1,3.69-2.56h17.73a4,4,0,0,1,3.69,2.56l42.93,115.2a3.93,3.93,0,0,1-2.3,5.06h0a3.88,3.88,0,0,1-1.39.25H234.49a3.94,3.94,0,0,1-3.71-2.62l-7.71-21.84A3.92,3.92,0,0,0,219.36,313.7Zm-4.75-20.84L199.47,250.1a3.94,3.94,0,0,0-7.42,0l-15.13,42.76a3.94,3.94,0,0,0,2.38,5,4,4,0,0,0,1.33.23h30.29a3.94,3.94,0,0,0,3.92-3.94,3.77,3.77,0,0,0-.23-1.29Z"/><path class="cls-2" d="M288.55,296.21v40.64a3.93,3.93,0,0,1-3.92,3.94H272.3a3.93,3.93,0,0,1-3.94-3.92h0V219.71a3.93,3.93,0,0,1,3.92-3.94h38.58q21.6,0,32.49,10.27t10.9,28.16q0,17.71-11.16,27.89t-32.23,10.18H292.48a3.93,3.93,0,0,0-3.93,3.93Zm45.15-42q0-10.62-5.93-16.2t-19-5.58H292.48a3.93,3.93,0,0,0-3.93,3.93h0v35.51a3.93,3.93,0,0,0,3.93,3.93h16.25q25,0,25-21.61Z"/><path class="cls-2" d="M392.14,219.71V336.85a3.93,3.93,0,0,1-3.92,3.94h-12.3a3.93,3.93,0,0,1-3.94-3.92v0h0V219.71a4,4,0,0,1,3.94-3.94h12.31A4,4,0,0,1,392.14,219.71Z"/></g></g></g></g></svg>