<svg xmlns="http://www.w3.org/2000/svg" viewBox="0 0 102.11 103.45"><defs><style>.cls-1{fill:#cdd6e0;}.cls-2{opacity:0.64;}.cls-3{fill:#fff;}.cls-4{fill:#a182fa;}.cls-5{fill:#afb9d2;}</style></defs><title>exchange</title><g id="Layer_2" data-name="Layer 2"><g id="Layer_1-2" data-name="Layer 1"><circle class="cls-1" cx="71.53" cy="34.09" r="30.57"/><g class="cls-2"><path class="cls-3" d="M84.1,35a6.85,6.85,0,0,0-4-2.34q3.39-1.72,3-5.85a5.91,5.91,0,0,0-.83-2.6,5.16,5.16,0,0,0-1.88-1.77,10.32,10.32,0,0,0-2.56-1,21.19,21.19,0,0,0-3.18-.51V15.2h-3.5v5.57c-.6,0-1.52,0-2.76,0V15.2H64.9v5.72c-.5,0-1.23,0-2.2,0l-4.81,0v3.73H60.4a1.81,1.81,0,0,1,2,1.54v6.52a1.84,1.84,0,0,1,.36,0h-.36v9.12A1.22,1.22,0,0,1,61.11,43H58.59l-.7,4.16h7V53h3.5V47.26l2.77,0V53h3.49V47.19a28.54,28.54,0,0,0,3.3-.34,13.46,13.46,0,0,0,2.76-.79,7.27,7.27,0,0,0,2.2-1.32,6.43,6.43,0,0,0,1.47-2,8.64,8.64,0,0,0,.73-2.84A6.71,6.71,0,0,0,84.1,35ZM68.46,24.9l.9,0,1.23,0a11.41,11.41,0,0,1,1.31.06,10.53,10.53,0,0,1,1.4.18,8.89,8.89,0,0,1,1.25.37,3.65,3.65,0,0,1,1.09.64,3.28,3.28,0,0,1,.69.95,3,3,0,0,1,.28,1.33,3.28,3.28,0,0,1-.2,1.16,2.18,2.18,0,0,1-.61.87A7.53,7.53,0,0,1,75,31a4.16,4.16,0,0,1-1.11.42c-.44.1-.83.19-1.16.25a9.47,9.47,0,0,1-1.25.12l-1.14.05h-1l-.79,0v-7ZM78,40.35a3.18,3.18,0,0,1-.56.91,2.87,2.87,0,0,1-.89.68,7.17,7.17,0,0,1-1.08.48,8.83,8.83,0,0,1-1.26.32c-.49.09-.93.15-1.3.19s-.81.07-1.32.09l-1.21,0L69.3,43h-.84V35.36l1.08,0c.6,0,1.09,0,1.47,0s.9,0,1.56.06a14.15,14.15,0,0,1,1.68.21,10.7,10.7,0,0,1,1.49.42,4.28,4.28,0,0,1,1.3.69,3.21,3.21,0,0,1,.84,1A3.28,3.28,0,0,1,78,40.35Z"/></g><circle class="cls-4" cx="31.56" cy="69.75" r="30.57"/><path class="cls-3" d="M17.89,82.89a18.94,18.94,0,0,0,17.87,5.26l-5.31-5.26Z"/><path class="cls-3" d="M31.46,50.87a18.84,18.84,0,0,0-13.57,5.75H31.46A13.13,13.13,0,0,1,44.6,69.75h0a13.14,13.14,0,0,1-7.5,11.87l4.26,4.22a18.88,18.88,0,0,0-9.9-35Z"/><path class="cls-3" d="M38.67,69.75a7.19,7.19,0,0,0-7.16-7.17H14A18.29,18.29,0,0,0,12.78,67H31.94a2.75,2.75,0,0,1,2.74,2.75h0a2.75,2.75,0,0,1-2.74,2.75H12.78A18.29,18.29,0,0,0,14,76.92H31.51a7.19,7.19,0,0,0,7.16-7.17Z"/><path class="cls-5" d="M98.35,71.07a3,3,0,0,0-3.44,2.42C93.54,81.4,83.77,89.78,75,91.77l.58-.8a3,3,0,1,0-4.85-3.45l-4.11,5.79-.06.09-.15.26-.13.27c0,.08,0,.16-.08.25s-.06.22-.08.33,0,.06,0,.09,0,.1,0,.15a1.93,1.93,0,0,0,0,.34,2.45,2.45,0,0,0,0,.27,2.89,2.89,0,0,0,0,.29c0,.09,0,.18.07.27a2.33,2.33,0,0,0,.11.28,4.77,4.77,0,0,0,.27.5,1.84,1.84,0,0,0,.17.22,2,2,0,0,0,.19.22l.24.2a.69.69,0,0,0,.13.11L75,102.9a3,3,0,1,0,3.45-4.84l-1.06-.76C88.14,94.39,99,84.54,100.77,74.5A3,3,0,0,0,98.35,71.07Z"/><path class="cls-5" d="M34.53,9.52c0-.08,0-.16.08-.25s.06-.22.08-.33l0-.09V8.7c0-.11,0-.23,0-.34a2.45,2.45,0,0,0,0-.27,2.93,2.93,0,0,0,0-.29,2.68,2.68,0,0,0-.07-.27,2.31,2.31,0,0,0-.1-.28L34.38,7a2.26,2.26,0,0,0-.16-.26,1.84,1.84,0,0,0-.17-.22,2,2,0,0,0-.19-.22,1.59,1.59,0,0,0-.24-.2L33.5,6,25.84.55a3,3,0,1,0-3.45,4.84l1.07.76C12.67,9.06,1.78,18.91,0,29A3,3,0,0,0,5.9,30c1.37-7.91,11.15-16.29,19.91-18.28l-.57.8a3,3,0,1,0,4.84,3.45l4.12-5.79,0-.09a2.2,2.2,0,0,0,.15-.26C34.45,9.7,34.49,9.61,34.53,9.52Z"/></g></g></svg>