<?xml version="1.0" encoding="utf-8"?>
<!-- Generator: Adobe Illustrator 22.0.1, SVG Export Plug-In . SVG Version: 6.00 Build 0)  -->
<svg version="1.1" id="Layer_1" xmlns="http://www.w3.org/2000/svg" xmlns:xlink="http://www.w3.org/1999/xlink" x="0px" y="0px"
	 viewBox="0 0 922 914" style="enable-background:new 0 0 922 914;" xml:space="preserve">
<style type="text/css">
	.st0{fill:#45D1A4;stroke:#363636;stroke-width:3;stroke-miterlimit:10;}
	.st1{fill:#A182FA;stroke:#363636;stroke-width:3;stroke-miterlimit:10;}
	.st2{fill:none;stroke:#DFE2EC;stroke-width:7;stroke-linecap:round;stroke-miterlimit:10;}
	.st3{fill:none;stroke:#FFFFFF;stroke-width:2;stroke-miterlimit:10;stroke-dasharray:4.0054,5.0067;}
	.st4{fill:#232C44;}
	.st5{fill:#46D1A4;}
</style>
<g id="Layer_1_1_">
	<g>
		<path class="st0" d="M372.9,534.1l-29.6,12.3l49.7,73c0.9,1.4,2.6,2.1,4.5,1.3l23-9.5c2.1-0.9,2.9-3.3,1.7-5.3L372.9,534.1z"/>
		
			<ellipse transform="matrix(0.924 -0.3825 0.3825 0.924 -124.5689 227.2344)" class="st0" cx="509.2" cy="426.9" rx="31.7" ry="31.1"/>
		<polygon class="st1" points="523.9,512 393.3,526.8 356,436.7 458.8,354.8 		"/>
		<g>
			<path class="st1" d="M465.4,336.5l-0.6,0.3c-6.4,2.6-9.4,9.9-6.7,16.2l66.5,160.6c2.6,6.4,9.9,9.4,16.2,6.7l0.6-0.3
				c6.4-2.6,9.4-9.9,6.7-16.2l-66.5-160.6C479,336.8,471.7,333.8,465.4,336.5z"/>
			<path class="st1" d="M297.3,460.9c-9.7,4-14,15-10.1,24.4l23,55.6c4,9.7,15,14,24.4,10.1l58.7-24.3l-37.3-90L297.3,460.9z"/>
		</g>
		<line class="st2" x1="573.5" y1="401.4" x2="638.5" y2="374.5"/>
		<line class="st2" x1="602" y1="334.6" x2="554.3" y2="372.5"/>
		<line class="st2" x1="581" y1="437.2" x2="641.6" y2="430.3"/>
	</g>
	<g>
		<circle class="st3" cx="455.9" cy="455.7" r="360"/>
	</g>
</g>
<g id="Layer_2_1_">
	<g>
		<circle class="st4" cx="802.3" cy="456.9" r="98.7"/>
		<g>
			<g>
				<g>
					<path class="st5" d="M814.6,410.9c-5.3-4.4-12.8-7.2-22.3-8.4c-7.6-0.9-14.9-0.6-19.7-0.1c-3.8,0.4-6.6,3.5-6.6,7.3v5.5
						c0,1.3,1,2.3,2.3,2.3s2.3-1,2.3-2.3v-5.5c0-1.4,1-2.5,2.4-2.6c8-0.8,27.8-1.6,38.6,7.4c1,0.8,2.5,0.7,3.3-0.3
						C815.7,413.2,815.6,411.7,814.6,410.9z"/>
				</g>
			</g>
			<g>
				<g>
					<path class="st5" d="M815.6,378h-32.3c-4.6,0-9,1.9-12.3,5.1c-8.4,1.1-14.9,8.5-14.9,17.1v6.9c0,3.8,0.5,7.7,1.4,11.4l1.1,4.3
						v8.7c0,10.6,4.9,20,12.4,26.1v8.3c-1.3,0.2-2.6,0.9-3.4,2.1l-3.2,4.8l-16.8,6.1c-6.8,2.5-11.4,9-11.4,16.2V517
						c0,1.3,1,2.3,2.3,2.3s2.3-1,2.3-2.3v-21.9c0-5.3,3.3-10,8.3-11.8l15.9-5.8l9.7,13.6c0.8,1.2,2.1,1.9,3.5,2c0.1,0,0.3,0,0.4,0
						c1.3,0,2.5-0.5,3.4-1.4l1.5-1.5c0.1,1.1,0.6,2.1,1.4,2.8l-1.4,23.8c-0.1,1.3,0.9,2.4,2.2,2.5h0.1c1.2,0,2.2-1,2.3-2.2l1.3-22.7
						h2.6l1.3,22.7c0.1,1.2,1.1,2.2,2.3,2.2h0.1c1.3-0.1,2.3-1.2,2.2-2.5l-1.4-23.8c0.7-0.7,1.2-1.7,1.4-2.8l1.5,1.5
						c0.9,0.9,2.1,1.4,3.4,1.4c0.1,0,0.3,0,0.4,0c1.4-0.1,2.7-0.8,3.5-2l10.7-15c0.6-0.8,0.6-1.8,0-2.6l-3.6-5.5
						c-0.8-1.2-2.1-2-3.4-2.1v-8c1-0.8,1.9-1.6,2.8-2.5c6.2-6.1,9.6-14.3,9.6-23v-9.7l1.1-4.3c0.9-3.7,1.4-7.6,1.4-11.4v-19.4
						C825.4,382.4,821,378,815.6,378z M778.7,488.6C778.7,488.6,778.6,488.7,778.7,488.6c-0.2,0-0.2,0-0.2-0.1l-9.8-13.7l2.7-4.1
						c0-0.1,0.1-0.1,0.2,0l15.4,9.6L778.7,488.6z M793.2,489.9h-5c-0.1,0-0.2-0.1-0.2-0.2v-4l2.6-2.6l2.6,2.6v4l0,0
						C793.4,489.9,793.3,489.9,793.2,489.9z M790.7,477.1l-15.1-9.4v-6.8c4.3,2.4,9.3,3.8,14.5,3.9c0.2,0,0.4,0,0.6,0
						c5.3,0,10.5-1.3,15.1-3.7v6.6l0,0L790.7,477.1z M812.8,474.8l-9.8,13.7c0,0,0,0.1-0.1,0.1s-0.1,0-0.1,0l-8.3-8.3l15.4-9.6
						c0.1,0,0.2,0,0.2,0L812.8,474.8z M820.7,407.1c0,3.5-0.4,6.9-1.3,10.3l-1.2,4.6c0,0.2-0.1,0.4-0.1,0.6v10
						c0,7.4-2.9,14.4-8.2,19.6s-12.4,8-19.8,7.9c-14.9-0.3-27-13.1-27-28.5v-9c0-0.2,0-0.4-0.1-0.6l-1.2-4.6
						c-0.8-3.4-1.3-6.8-1.3-10.3v-6.9c0-6.5,5.1-12,11.6-12.5c0.6,0,1.2-0.3,1.6-0.8c2.4-2.7,5.8-4.3,9.4-4.3h32.3
						c2.8,0,5.1,2.3,5.1,5.1v19.4L820.7,407.1L820.7,407.1z"/>
				</g>
			</g>
			<g>
				<g>
					<path class="st5" d="M756.9,499.1l-1.4-2.9c-0.6-1.2-2-1.6-3.1-1c-1.2,0.6-1.6,2-1,3.1l1.4,2.9c0.5,1.1,0.8,2.2,0.8,3.4v12.6
						c0,1.3,1,2.3,2.3,2.3s2.3-1,2.3-2.3v-12.6C758.2,502.7,757.8,500.8,756.9,499.1z"/>
				</g>
			</g>
			<g>
				<path class="st5" d="M838.7,472.3L808.5,504c-1,1.1-1.6,2.5-1.5,3.9c0,1.4,0.6,2.8,1.7,3.9l5.1,4.9l-5.3,5.6
					c-0.2,0.3-0.4,0.6-0.3,0.9c0,0.3,0.1,0.6,0.4,0.9c0.5,0.5,1.3,0.5,1.8,0l5.3-5.6l2.3,2.2l-12.5,13.1c-0.2,0.3-0.4,0.6-0.3,0.9
					c0,0.3,0.1,0.6,0.4,0.9c0.5,0.5,1.3,0.5,1.8,0l12.5-13.1l9.2,8.8c2.2,2.1,5.7,2,7.8-0.2l30.2-31.7c1-1.1,1.6-2.5,1.5-3.9
					c0-1.5-0.6-2.8-1.7-3.9l0,0l-20.3-19.4C844.3,470,840.8,470.1,838.7,472.3z M865,493.3L865,493.3c0.4,0.3,0.6,0.7,0.8,1.2
					l-23.4,0.6l-0.5-21.8c1-0.3,2.1-0.1,2.9,0.7L865,493.3z M834.9,529.2c-0.2,0.2-0.3,0.3-0.5,0.4l-0.5-23.1l3.2-0.1
					c3-0.1,5.4-2.6,5.4-5.6l-0.1-3.2l14.4-0.3l-7.1,7.4c-0.2,0.3-0.4,0.6-0.3,0.9c0,0.3,0.1,0.6,0.4,0.9c0.5,0.5,1.3,0.5,1.8,0
					l8.8-9.3l0,0l5.2-0.1c-0.1,0.2-0.2,0.4-0.4,0.5L834.9,529.2z M809.6,507.1l21.8-0.5L832,530c-0.4-0.1-0.9-0.4-1.2-0.7
					l-20.3-19.4C809.6,509.2,809.3,508.1,809.6,507.1z M839.4,475.3l0.6,25.6c0,1.6-1.3,3-2.9,3.1l-10.3,0.2l3.6-3.8
					c0.5-0.5,0.5-1.3,0-1.8s-1.3-0.5-1.8,0l-5.4,5.6l-3.7,0.1l11.1-11.6c0.5-0.5,0.5-1.3,0-1.8s-1.3-0.5-1.8,0L816,504.4l-4.6,0.1
					L839.4,475.3z"/>
				<path class="st5" d="M833.6,487.8c0.2,0.2,0.4,0.5,0.4,0.9c0,0.3-0.1,0.7-0.3,0.9c-0.2,0.2-0.5,0.4-0.9,0.4
					c-0.3,0-0.7-0.1-0.9-0.3s-0.4-0.5-0.4-0.9c0-0.3,0.1-0.7,0.3-0.9c0.2-0.2,0.5-0.4,0.9-0.4C833,487.4,833.3,487.6,833.6,487.8z"
					/>
				<path class="st5" d="M807.4,526.4c0,0.3-0.1,0.7-0.3,0.9s-0.5,0.4-0.9,0.4c-0.3,0-0.7-0.1-0.9-0.3s-0.4-0.5-0.4-0.9
					s0.1-0.7,0.3-0.9s0.5-0.4,0.9-0.4c0.3,0,0.7,0.1,0.9,0.3C807.3,525.7,807.4,526.1,807.4,526.4z"/>
				<path class="st5" d="M813.2,534.4c0-0.3,0.1-0.6,0.3-0.9l5.6-5.8c0.5-0.5,1.3-0.5,1.8,0s0.5,1.3,0,1.8l-5.6,5.8
					c-0.5,0.5-1.3,0.5-1.8,0C813.3,535,813.2,534.7,813.2,534.4z"/>
			</g>
		</g>
	</g>
	<g>
		<circle class="st4" cx="457.2" cy="801.9" r="98.7"/>
		<g>
			<path class="st5" d="M455.1,800.6c-1-0.8-2.4-0.6-3.2,0.4c-0.8,1-0.6,2.4,0.4,3.2c1.2,0.9,2.3,2,3.3,3.2c0.5,0.5,1.1,0.8,1.7,0.8
				c0.5,0,1.1-0.2,1.5-0.6c1-0.8,1.1-2.3,0.2-3.3C457.9,802.9,456.6,801.7,455.1,800.6z"/>
			<path class="st5" d="M428,800.3c0.2,0,0.5,0,0.7-0.1c5.1-1.7,10.8-1.8,15.9-0.1c1.2,0.4,2.5-0.3,2.9-1.5s-0.3-2.5-1.5-2.9
				c-6.1-2-12.8-2-18.9,0.1c-1.2,0.4-1.8,1.7-1.4,2.9C426.1,799.7,427,800.3,428,800.3z"/>
			<path class="st5" d="M418.9,836.2l-3,3c-0.9,0.9-0.9,2.4,0,3.3c0.4,0.4,1,0.7,1.6,0.7s1.2-0.2,1.6-0.7l3-3c0.9-0.9,0.9-2.4,0-3.3
				C421.2,835.3,419.8,835.3,418.9,836.2z"/>
			<path class="st5" d="M417.7,829.6c-0.5-1.2-1.9-1.7-3-1.2l-3.9,1.6c-1.2,0.5-1.7,1.9-1.2,3c0.4,0.9,1.2,1.4,2.1,1.4
				c0.3,0,0.6-0.1,0.9-0.2l3.9-1.6C417.7,832.1,418.2,830.8,417.7,829.6z"/>
			<path class="st5" d="M409.6,824.3l4.2-0.1c1.3,0,2.3-1.1,2.3-2.3c0-1.3-1.1-2.2-2.3-2.3l-4.2,0.1c-1.3,0-2.3,1.1-2.3,2.3
				C407.3,823.3,408.3,824.3,409.6,824.3L409.6,824.3z"/>
			<path class="st5" d="M410.5,813.9l3.9,1.5c0.3,0.1,0.6,0.2,0.8,0.2c0.9,0,1.8-0.6,2.2-1.5c0.5-1.2-0.1-2.5-1.3-3l-3.9-1.5
				c-1.2-0.5-2.5,0.1-3,1.3C408.8,812.1,409.3,813.4,410.5,813.9z"/>
			<path class="st5" d="M437.2,805.7c-8.9,0-16.1,7.2-16.1,16.1c0,8.9,7.2,16.1,16.1,16.1s16.1-7.2,16.1-16.1
				C453.3,813,446.1,805.7,437.2,805.7z M437.2,833.4c-6.4,0-11.5-5.2-11.5-11.5c0-6.4,5.2-11.5,11.5-11.5c6.4,0,11.5,5.2,11.5,11.5
				S443.5,833.4,437.2,833.4z"/>
			<circle class="st5" cx="437.2" cy="821.9" r="4.6"/>
			<path class="st5" d="M497.1,748.1c-7.6,0-13.8,6.2-13.8,13.8s6.2,13.8,13.8,13.8s13.8-6.2,13.8-13.8S504.7,748.1,497.1,748.1z
				 M497.1,771.7c-5.4,0-9.8-4.4-9.8-9.8c0-5.4,4.4-9.8,9.8-9.8s9.8,4.4,9.8,9.8S502.5,771.7,497.1,771.7z"/>
			<circle class="st5" cx="497.1" cy="761.9" r="4.6"/>
			<path class="st5" d="M486.7,814.6l-11.7-3c-0.9-3.2-2.2-6.3-3.9-9.3l6.2-10.4c1.1-1.8,0.8-4.1-0.7-5.6l-4-4
				c-1.5-1.5-3.8-1.8-5.6-0.7l-10.4,6.2c-2.9-1.7-6-3-9.3-3.8l-2.9-11.7c-0.5-2.1-2.4-3.5-4.5-3.5h-5.6c-2.1,0-4,1.4-4.5,3.5
				l-3,11.7c-3.2,0.9-6.3,2.2-9.3,3.9l-10.4-6.2c-1.8-1.1-4.1-0.8-5.6,0.7l-4,4c-1.5,1.5-1.8,3.8-0.7,5.6l6.2,10.4
				c-1.7,2.9-3,6-3.8,9.3l-11.7,2.9c-2.1,0.5-3.5,2.4-3.5,4.5v5.6c0,2.1,1.4,4,3.5,4.5l11.7,3c0.9,3.2,2.2,6.3,3.9,9.3l-6.2,10.4
				c-1.1,1.8-0.8,4.1,0.7,5.6l4,4c1.5,1.5,3.8,1.8,5.6,0.7l10.4-6.2c2.9,1.7,6,3,9.3,3.8l2.9,11.7c0.5,2.1,2.4,3.5,4.5,3.5h5.6
				c2.1,0,4-1.4,4.5-3.5l3-11.7c3.2-0.9,6.3-2.2,9.3-3.9l10.4,6.2c1.8,1.1,4.1,0.8,5.6-0.7l4-4c1.5-1.5,1.8-3.8,0.7-5.6l-6.2-10.4
				c1.7-2.9,3-6,3.8-9.3l11.7-2.9c2.1-0.5,3.5-2.4,3.5-4.5v-5.6C490.2,816.9,488.8,815.1,486.7,814.6z M485.6,824.7l-11.7,2.9
				c-1.6,0.4-2.9,1.7-3.3,3.3c-0.8,2.8-1.9,5.6-3.4,8.2c-0.8,1.5-0.8,3.3,0,4.7l6.2,10.4l-4,4L459,852c-1.4-0.9-3.2-0.9-4.7,0
				c-2.6,1.5-5.3,2.6-8.2,3.4c-1.6,0.4-2.9,1.7-3.3,3.3l-2.9,11.7h-5.6l-2.9-11.7c-0.4-1.6-1.7-2.9-3.3-3.3
				c-2.8-0.8-5.6-1.9-8.2-3.4c-0.7-0.4-1.5-0.6-2.3-0.6s-1.6,0.2-2.3,0.6l-10.4,6.2l-4-4l6.2-10.4c0.9-1.4,0.9-3.2,0-4.7
				c-1.5-2.6-2.6-5.3-3.4-8.2c-0.4-1.6-1.7-2.9-3.3-3.3l-11.7-2.9v-5.6l11.7-2.9c1.6-0.4,2.9-1.7,3.3-3.3c0.8-2.8,1.9-5.6,3.4-8.2
				c0.8-1.5,0.8-3.2,0-4.7l-6.2-10.4l4-4l10.4,6.2c1.4,0.9,3.2,0.9,4.7,0c2.6-1.5,5.3-2.6,8.2-3.4c1.6-0.4,2.9-1.7,3.3-3.3l2.9-11.7
				h5.6l2.9,11.7c0.4,1.6,1.7,2.9,3.3,3.3c2.8,0.8,5.6,1.9,8.2,3.4c1.5,0.8,3.3,0.8,4.7,0l10.4-6.2l4,4l-6.2,10.4
				c-0.9,1.4-0.9,3.2,0,4.7c1.5,2.6,2.6,5.3,3.4,8.2c0.4,1.6,1.7,2.9,3.3,3.3l11.7,2.9v5.6L485.6,824.7L485.6,824.7z"/>
			<path class="st5" d="M529,770.5l-6.9-4.7c0.4-2.4,0.4-4.9,0.1-7.4l6.9-4.6c0.9-0.6,1.3-1.8,0.9-2.8l-1.7-4.3
				c-0.4-1-1.5-1.6-2.6-1.4l-8.2,1.5c-1.5-2-3.2-3.8-5.2-5.3l1.7-8.1c0.2-1.1-0.3-2.2-1.4-2.6l-4.2-1.8c-1-0.4-2.2-0.1-2.8,0.8
				l-4.7,6.9c-2.4-0.4-4.9-0.4-7.4-0.1l-4.6-6.9c-0.6-0.9-1.8-1.3-2.8-0.9l-4.3,1.7c-1,0.4-1.6,1.5-1.4,2.6l1.5,8.2
				c-2,1.5-3.8,3.2-5.3,5.2l-8.1-1.7c-1.1-0.2-2.2,0.3-2.6,1.4l-1.8,4.2c-0.4,1-0.1,2.2,0.8,2.8l6.9,4.7c-0.4,2.4-0.4,4.9-0.1,7.4
				L465,770c-0.9,0.6-1.3,1.8-0.9,2.8l1.7,4.3c0.4,1,1.5,1.6,2.6,1.4l8.2-1.5c1.5,2,3.2,3.8,5.2,5.3l-1.7,8.1
				c-0.2,1.1,0.3,2.2,1.4,2.6l4.2,1.8c1,0.4,2.2,0.1,2.8-0.8l4.7-6.9c2.4,0.4,4.9,0.4,7.4,0.1l4.6,6.9c0.4,0.7,1.2,1,1.9,1
				c0.3,0,0.6-0.1,0.9-0.2l4.3-1.7c1-0.4,1.6-1.5,1.4-2.6l-1.5-8.2c2-1.5,3.8-3.2,5.3-5.2l8.1,1.7c1.1,0.2,2.2-0.3,2.6-1.4l1.8-4.2
				C530.3,772.3,529.9,771.1,529,770.5z M524.5,774l-7.8-1.6c-0.9-0.2-1.9,0.2-2.4,1c-1.6,2.4-3.7,4.4-6.1,6c-0.8,0.5-1.2,1.4-1,2.4
				l1.5,7.8l-0.8,0.3l-4.4-6.6c-0.4-0.7-1.2-1-1.9-1c-0.2,0-0.3,0-0.5,0c-2.9,0.6-5.7,0.6-8.6-0.1c-0.9-0.2-1.9,0.2-2.4,1l-4.5,6.5
				l-0.8-0.3l1.6-7.8c0.2-0.9-0.2-1.9-1-2.4c-2.4-1.6-4.4-3.7-6-6.1c-0.5-0.8-1.4-1.2-2.4-1l-7.8,1.5l-0.3-0.8l6.6-4.4
				c0.8-0.5,1.2-1.5,1-2.4c-0.6-2.9-0.6-5.7,0.1-8.6c0.2-0.9-0.2-1.9-1-2.4l-6.5-4.5l0.3-0.8l7.8,1.6c0.9,0.2,1.9-0.2,2.4-1
				c1.6-2.4,3.7-4.4,6.1-6c0.8-0.5,1.2-1.4,1-2.4l-1.5-7.8l0.8-0.3l4.4,6.6c0.5,0.8,1.5,1.2,2.4,1c2.9-0.6,5.7-0.6,8.6,0.1
				c0.9,0.2,1.9-0.2,2.4-1l4.5-6.5l0.8,0.3l-1.6,7.8c-0.2,0.9,0.2,1.9,1,2.4c2.4,1.6,4.4,3.7,6,6.1c0.5,0.8,1.4,1.2,2.4,1l7.8-1.5
				l0.3,0.8l-6.6,4.4c-0.8,0.5-1.2,1.5-1,2.4c0.6,2.9,0.6,5.7-0.1,8.6c-0.2,0.9,0.2,1.9,1,2.4l6.5,4.5L524.5,774z"/>
		</g>
	</g>
	<g>
		<circle class="st4" cx="109.7" cy="456.9" r="98.7"/>
		<g>
			<g>
				<g>
					<path class="st5" d="M43.8,389.4L43.8,389.4c0.9-0.9,2.4-0.9,3.4,0l3.4,3.4c0.9,0.9,0.9,2.4,0,3.4l0,0c-0.9,0.9-2.4,0.9-3.4,0
						l-3.4-3.4C42.9,391.8,42.9,390.3,43.8,389.4z"/>
				</g>
			</g>
			<g>
				<g>
					<path class="st5" d="M59.5,405.1L59.5,405.1c0.9-0.9,2.4-0.9,3.4,0l3.4,3.4c0.9,0.9,0.9,2.4,0,3.4l0,0c-0.9,0.9-2.4,0.9-3.4,0
						l-3.4-3.4C58.6,407.5,58.6,406,59.5,405.1z"/>
				</g>
			</g>
			<g>
				<g>
					<path class="st5" d="M43.8,408.5l3.4-3.4c0.9-0.9,2.4-0.9,3.4,0l0,0c0.9,0.9,0.9,2.4,0,3.4l-3.4,3.4c-0.9,0.9-2.4,0.9-3.4,0
						l0,0C42.9,410.9,42.9,409.4,43.8,408.5z"/>
				</g>
			</g>
			<g>
				<g>
					<path class="st5" d="M59.5,392.8l3.4-3.4c0.9-0.9,2.4-0.9,3.4,0l0,0c0.9,0.9,0.9,2.4,0,3.4l-3.4,3.4c-0.9,0.9-2.4,0.9-3.4,0
						l0,0C58.6,395.2,58.6,393.7,59.5,392.8z"/>
				</g>
			</g>
			<g>
				<g>
					<path class="st5" d="M55,398.2L55,398.2c1.3,0,2.4,1.1,2.4,2.4l0,0c0,1.3-1.1,2.4-2.4,2.4l0,0c-1.3,0-2.4-1.1-2.4-2.4l0,0
						C52.7,399.3,53.7,398.2,55,398.2z"/>
				</g>
			</g>
			<g>
				<g>
					<path class="st5" d="M164.4,408.5L164.4,408.5c0.9-0.9,2.4-0.9,3.4,0l3.4,3.4c0.9,0.9,0.9,2.4,0,3.4l0,0
						c-0.9,0.9-2.4,0.9-3.4,0l-3.4-3.4C163.5,410.9,163.5,409.4,164.4,408.5z"/>
				</g>
			</g>
			<g>
				<g>
					<path class="st5" d="M180.1,424.2L180.1,424.2c0.9-0.9,2.4-0.9,3.4,0l3.4,3.4c0.9,0.9,0.9,2.4,0,3.4l0,0
						c-0.9,0.9-2.4,0.9-3.4,0l-3.4-3.4C179.2,426.6,179.2,425.1,180.1,424.2z"/>
				</g>
			</g>
			<g>
				<g>
					<path class="st5" d="M164.4,427.6l3.4-3.4c0.9-0.9,2.4-0.9,3.4,0l0,0c0.9,0.9,0.9,2.4,0,3.4l-3.4,3.4c-0.9,0.9-2.4,0.9-3.4,0
						l0,0C163.5,430,163.5,428.5,164.4,427.6z"/>
				</g>
			</g>
			<g>
				<g>
					<path class="st5" d="M180.1,411.9l3.4-3.4c0.9-0.9,2.4-0.9,3.4,0l0,0c0.9,0.9,0.9,2.4,0,3.4l-3.4,3.4c-0.9,0.9-2.4,0.9-3.4,0
						l0,0C179.2,414.3,179.2,412.8,180.1,411.9z"/>
				</g>
			</g>
			<g>
				<g>
					<path class="st5" d="M175.7,417.3L175.7,417.3c1.3,0,2.4,1.1,2.4,2.4l0,0c0,1.3-1.1,2.4-2.4,2.4l0,0c-1.3,0-2.4-1.1-2.4-2.4
						l0,0C173.3,418.4,174.3,417.3,175.7,417.3z"/>
				</g>
			</g>
			<g>
				<g>
					<path class="st5" d="M160.2,463l6.3-7.1c0.5-0.5,0.4-1.4-0.1-1.9l-8.2-7.6l0,0c0.5-0.5,0.5-1.4-0.1-1.9l-8-7.4l0.5-0.5
						c0.5-0.5,0.5-1.4-0.1-1.9l-10.9-10.2c-0.5-0.5-1.4-0.5-1.9,0.1l-0.1,0.1l-2.8-2.6c1.7-0.5,3.3-1.2,4.7-2.2
						c3.7-2.5,6.2-6.2,7.1-10.6l0,0c0.2-1.3-0.5-2.5-1.8-2.8l-27.3-6.5c-2.9-0.7-6,0-8.3,2l0,0l-16.8-7.7c-1.2-0.5-2.5-0.1-3.1,1.1
						l0,0c-2,4-2.4,8.5-1,12.7c1,2.9,2.7,5.5,4.9,7.4l-2.9,2.4l-8.1-3.3c-1-0.4-2.2,0.1-2.6,1.2l-3.4,10.7v5.3l-8.5,38.5
						c-0.3,1.4,0.4,2.8,1.7,3.5l1.8,0.8l-32.4,45.9l3.9,2.7l33-46.6l39.3,18.1c0.7,0.3,1.5,0.4,2.2,0.4l5.9-0.7
						c1.6-0.2,3.1,0.5,4,1.8l0,0l-20.6,3.1c-1.7,0.3-3.3,1.2-4.2,2.7l-18.9,28.8l4,2.6l17.7-27c1-1.5,2.5-2.4,4.2-2.7l18.7-2.8
						c1.2-0.2,2.4,0.3,3.1,1.4l20.8,31.2l4-2.6l-26.5-39.7c-0.9-1.3-2.4-2-4-1.8l-7.5,0.9c-0.8,0.1-1.5,0-2.2-0.4l-41.9-19.4
						c-0.6-0.3-1-1-0.8-1.6l0.7-3.2c0.2-0.9,1.1-1.4,1.9-1.1l7.2,2.5c0.8,0.3,1.6-0.1,1.9-0.9l0.6-1.7c0.3-0.8-0.1-1.6-0.9-1.9
						l-8.1-2.8c-0.7-0.2-1.1-1-0.9-1.7l1.2-5.4c0.2-0.9,1.1-1.4,1.9-1.1l7.2,2.5c0.8,0.3,1.6-0.1,1.9-0.9l0.6-1.7
						c0.3-0.8-0.1-1.6-0.9-1.9l-8.1-2.8c-0.7-0.2-1.1-1-0.9-1.7l1.8-8.3c0.2-0.9,1.1-1.4,1.9-1.1l8.1,2.8c0.8,0.3,1.6-0.1,1.9-0.9
						l0.6-1.7c0.3-0.8-0.1-1.6-0.9-1.9l-10.6-3.7l0,0c0-2.1,0.3-4.1,0.9-6.1l0.8-2.6c0.3-0.8,1.2-1.3,2-0.9l27.5,11.3l-4.6,5.3
						c-0.8,1-0.7,2.4,0.2,3.3l7.7,7.2l-1.5,1.6c-0.9,0.9-0.8,2.4,0.1,3.3l9.5,8.8c0.9,0.9,2.4,0.8,3.3-0.1l0,0l7.6,7.1
						c1,0.9,2.5,0.8,3.3-0.1l3.3-3.6l7.6,7.1c1,0.9,2.5,0.8,3.4-0.2l4.6-5.1l27.9,39.7l3.9-2.7L160.2,463z M93,406.5
						c-0.7-2.3-0.8-4.7-0.1-6.9l12.5,5.7l-8.2,7C95.2,410.9,93.8,408.9,93,406.5z M127.8,417.6l-10-1.4l-5,10.7l-17.3-7.1l18.7-15.9
						l27.2,6.5c-0.9,2.2-2.4,4-4.4,5.4c-2,1.3-4.2,2-6.5,2 M121.6,421.6l-2.1,2.4l1.2-2.5L121.6,421.6z M113.7,437.9l13.4-15.5h0.3
						c0.3,0.1,0.7,0.1,1,0.2l5,4.7c0.5,0.4,0.5,1.1,0.1,1.6l-13.7,14.7c-0.4,0.5-1.1,0.5-1.6,0.1l-4.4-4.1
						C113.4,439.1,113.3,438.4,113.7,437.9z M124.5,455.6l-4-3.7c-0.6-0.5-0.6-1.5-0.1-2l17.8-18.8c0.4-0.4,1.1-0.5,1.6,0l3.9,3.6
						c0.5,0.4,0.5,1.1,0.1,1.6l-17.7,19.4C125.6,456,124.9,456,124.5,455.6z M138,461.6l-0.9,1c-0.4,0.5-1.2,0.5-1.6,0.1l-4.2-3.9
						c-0.5-0.4-0.5-1.2-0.1-1.6l15-15.9c0.4-0.5,1.1-0.5,1.6-0.1l3.6,3.4c0.5,0.4,0.5,1.1,0.1,1.6L138,461.6L138,461.6z M149.7,466
						l-4.2-3.9c-0.5-0.4-0.5-1.1-0.1-1.6l8.9-9.8c0.4-0.5,1.1-0.5,1.6-0.1l4,3.8c0.5,0.4,0.5,1.1,0.1,1.6l-8.8,9.9
						C150.9,466.4,150.1,466.4,149.7,466z"/>
				</g>
			</g>
		</g>
	</g>
	<g>
		<circle class="st4" cx="456.9" cy="110.3" r="98.7"/>
		<g>
			<g>
				<g>
					<path class="st5" d="M521.4,161.4L503,122c5.1-8.3,8-18,8-28.4c0-30-24.3-54.3-54.1-54.3s-54.1,24.4-54.1,54.3
						c0,10.4,2.9,20.1,8,28.4l-18.4,39.4c-0.7,1.5-0.4,3.3,0.7,4.6c1.1,1.2,2.9,1.7,4.5,1.1l18.2-6.6l6.6,18.2
						c0.6,1.6,2,2.7,3.7,2.7c1.7,0.1,3.2-0.9,4-2.4l15.1-32.3c3.8,0.8,7.7,1.3,11.7,1.3s7.9-0.4,11.7-1.3l15.1,32.3
						c0.7,1.5,2.2,2.4,3.8,2.4c1.7,0,3.3-1.1,3.9-2.7l6.6-18.2l18.2,6.6c1.6,0.6,3.4,0.1,4.5-1.1
						C521.8,164.7,522.1,162.9,521.4,161.4z M426.8,177l-6.3-17.2c-0.5-1.4-1.6-2.6-2.9-3.2c-1.4-0.6-2.9-0.7-4.3-0.2l-17.2,6.3
						l16.5-35.7c7.7,8.7,17.3,15.5,28.2,19.8L426.8,177z M457,143.1c-27.4,0-49.7-22.4-49.7-50s22.3-50,49.7-50s49.7,22.4,49.7,50
						S484.4,143.1,457,143.1z M500.6,156.3c-2.9-1.1-6.2,0.4-7.3,3.4l-6.3,17.2l-14-30.1c10.9-4.3,20.6-11.2,28.2-19.8l16.6,35.6
						L500.6,156.3z"/>
				</g>
			</g>
			<g>
				<g>
					<path class="st5" d="M456.8,56.4c-20.6,0-37.4,16.8-37.4,37.4c0,20.7,16.8,37.7,37.4,37.7c20.7,0,37.4-17,37.4-37.7
						C494.3,73.2,477.5,56.4,456.8,56.4z M456.7,127.1c-18.3,0-33.1-15-33.1-33.4c0-18.3,14.9-33.1,33.1-33.1s33.1,14.9,33.1,33.1
						C489.8,112.1,475,127.1,456.7,127.1z"/>
				</g>
			</g>
			<g>
				<g>
					<g>
						<path class="st5" d="M456.8,81.1l3.4,6.9l0.9,1.9l2.1,0.3l7.9,1.1l-5.6,5.4l-1.5,1.5l0.4,2.1l1.3,7.7l-6.9-3.6l-1.9-1l-1.9,1
							l-6.9,3.6l1.3-7.7l0.4-2.1l-1.5-1.5l-5.7-5.5l7.8-1.1l2.1-0.3l0.9-1.9L456.8,81.1 M456.8,73.6c-0.4,0-0.9,0.3-1.1,0.7
							L450,86.2l-13.3,1.9c-0.4,0.1-0.9,0.4-1,0.9c-0.2,0.4,0,1,0.3,1.3l9.7,9.3l-2.3,13.2c-0.1,0.4,0.1,1,0.5,1.2
							c0.2,0.2,0.5,0.2,0.7,0.2s0.4,0,0.6-0.2l11.8-6.2l11.8,6.2c0.2,0.1,0.4,0.2,0.6,0.2c0.3,0,0.5-0.1,0.7-0.2
							c0.3-0.3,0.6-0.8,0.5-1.2l-2.3-13.2l9.6-9.3c0.3-0.3,0.3-0.9,0.2-1.3s-0.5-0.8-1-0.9l-13.2-1.9L458,74.3
							C457.8,73.9,457.3,73.6,456.8,73.6L456.8,73.6z"/>
					</g>
				</g>
			</g>
		</g>
	</g>
</g>
</svg>
