<svg xmlns="http://www.w3.org/2000/svg" viewBox="0 0 558.69 464.67"><defs><style>.cls-1,.cls-2,.cls-3,.cls-4{fill:none;}.cls-1,.cls-2,.cls-3{stroke:#46d1a4;stroke-miterlimit:10;}.cls-1{stroke-width:20px;}.cls-2,.cls-3{stroke-width:14px;}.cls-3{stroke-dasharray:20.19 10.1;}.cls-5{fill:#fff;}</style></defs><title>04_always_wy</title><g id="Layer_2" data-name="Layer 2"><g id="Layer_3" data-name="Layer 3"><path class="cls-1" d="M0,10H124.45a2,2,0,0,1,2,2.17c-2.17,20.17-14.82,176,102.39,253.26C329.49,331.85,524,316.26,546.55,314.2a2,2,0,0,1,2.14,2v148.5"/><path class="cls-2" d="M548.69,348.67s-3.54.3-10,.67"/><path class="cls-3" d="M528.64,349.85c-57.83,2.51-226.94,3.45-323.7-63.42C91.28,207.9,94.58,70.23,99.12,24.92"/><path class="cls-2" d="M99.67,19.9c.76-6.36,1.41-9.9,1.41-9.9"/><path class="cls-4" d="M482.68,124.17,351.22,53.32A53.42,53.42,0,0,0,279,75l-5.06,9.39L499.27,205.81l5.06-9.39A53.41,53.41,0,0,0,482.68,124.17Zm-57.8,17.32-56.34-30.37a10.67,10.67,0,0,1,10.12-18.78L435,122.71a10.67,10.67,0,1,1-10.12,18.78Zm37.93,20.44a10.77,10.77,0,0,1-4.42-14.5,10.58,10.58,0,0,1,14.36-4.38l.18.1a10.67,10.67,0,1,1-10.12,18.78Z"/><path class="cls-5" d="M492.77,105.37,361.37,34.56a74.7,74.7,0,0,0-101.2,30.32L189.31,196.37A10.82,10.82,0,0,0,193.7,211h0A10.51,10.51,0,0,0,208,206.75l55.82-103.58s0,0,0,0L489.12,224.57a0,0,0,0,1,0,0L453.91,290a10.92,10.92,0,0,0,4,14.7,10.68,10.68,0,0,0,14.61-4.24l50.58-93.88A74.69,74.69,0,0,0,492.77,105.37Zm6.47,100.42L273.93,84.38s0,0,0,0L279,75a53.37,53.37,0,0,1,72.29-21.66l131.41,70.81a53.36,53.36,0,0,1,21.66,72.29l-5,9.34S499.26,205.8,499.24,205.79Z"/><path class="cls-5" d="M435,122.71,378.66,92.34a10.67,10.67,0,0,0-10.12,18.78l56.34,30.37A10.67,10.67,0,1,0,435,122.71Z"/><path class="cls-5" d="M472.93,143.15l-.18-.1a10.58,10.58,0,0,0-14.36,4.38,10.72,10.72,0,1,0,14.54-4.28Z"/></g></g></svg>