<?xml version="1.0" encoding="utf-8"?>
<!-- Generator: Adobe Illustrator 22.0.1, SVG Export Plug-In . SVG Version: 6.00 Build 0)  -->
<svg version="1.1" id="Layer_1" xmlns="http://www.w3.org/2000/svg" xmlns:xlink="http://www.w3.org/1999/xlink" x="0px" y="0px"
	 viewBox="0 0 501.5 423.2" style="enable-background:new 0 0 501.5 423.2;" xml:space="preserve">
<style type="text/css">
	.st0{display:none;}
	.st1{display:inline;}
	.st2{fill:#AFB9D2;}
	.st3{fill:#FFFFFF;}
	.st4{fill:#CDD6E0;}
	.st5{fill:#F2F2F2;}
	.st6{opacity:0.38;fill:#ACB3BA;enable-background:new    ;}
	.st7{opacity:0.5;fill:#FFFFFF;enable-background:new    ;}
	.st8{fill:#F2F2FF;}
	.st9{fill:#A182FA;}
	.st10{opacity:0.64;}
	.st11{fill:#886DD2;}
	.st12{fill:#AFB9D2;stroke:#AFB9D2;stroke-width:4;stroke-miterlimit:10;}
	.st13{fill:none;stroke:#DFE1EB;stroke-width:7;stroke-linecap:round;stroke-miterlimit:10;}
</style>
<title>online</title>
<g id="Layer_2_1_" class="st0">
	<g id="Layer_1-2" class="st1">
		<path class="st2" d="M480.6,0H20.9C9.4,0.1,0.1,9.4,0,20.9v311.4c0.1,11.5,9.4,20.8,20.9,20.9h459.8c11.5-0.1,20.8-9.4,20.9-20.9
			V20.9C501.5,9.4,492.2,0.1,480.6,0z"/>
		<rect x="16.4" y="21.5" class="st3" width="466.7" height="307.8"/>
		<rect x="154.6" y="353.2" class="st4" width="191.2" height="56.4"/>
		<rect x="97.2" y="409.6" class="st5" width="307.2" height="13.6"/>
		<rect x="154.6" y="353.2" class="st6" width="191.2" height="15.7"/>
		<circle class="st7" cx="160" cy="93.3" r="7.6"/>
		<path class="st8" d="M384.3,255.6H102.8c-6.1,0-11-4.9-11-11V102.4l0,0h303.5l0,0v142.2C395.3,250.7,390.3,255.6,384.3,255.6z"/>
		<circle class="st3" cx="130.9" cy="93.3" r="7.6"/>
		<circle class="st7" cx="101.8" cy="93.3" r="7.6"/>
		<polygon class="st2" points="351.9,196 361.2,229.4 369.5,221.1 377.4,229.4 384.8,222 376.9,213.7 384.8,205.3 		"/>
		
			<ellipse transform="matrix(0.1602 -0.9871 0.9871 0.1602 37.355 394.0455)" class="st9" cx="250.3" cy="175.1" rx="43.8" ry="43.8"/>
		<path class="st3" d="M230.7,193.9c5.1,5.3,12.1,8.2,19.4,8.2c2.1,0,4.1-0.2,6.2-0.7l-7.6-7.5L230.7,193.9z"/>
		<path class="st3" d="M250.1,148c-7.3,0-14.4,3-19.4,8.3h19.4c10.4,0,18.8,8.4,18.8,18.8l0,0l0,0c0,7.3-4.2,13.9-10.8,17l6.1,6
			c12.7-7.9,16.6-24.6,8.7-37.3C268.1,152.9,259.4,148,250.1,148z"/>
		<path class="st3" d="M260.5,175.1c0-5.7-4.6-10.3-10.3-10.3h-25.1c-0.8,2-1.4,4.2-1.7,6.3h27.5c2.2,0,3.9,1.8,3.9,3.9l0,0l0,0
			c0,2.2-1.8,3.9-3.9,3.9h-27.5c0.3,2.2,0.9,4.3,1.7,6.3h25.1C255.8,185.3,260.4,180.7,260.5,175.1z"/>
		<path class="st9" d="M102.8,63.9h281.5c6.1,0,11,4.9,11,11l0,0v27.8l0,0H91.8l0,0V74.9C91.8,68.8,96.7,63.9,102.8,63.9
			C102.8,63.9,102.8,63.9,102.8,63.9z"/>
		<circle class="st7" cx="110.7" cy="84.1" r="5.2"/>
		<circle class="st3" cx="127.6" cy="84.1" r="5.2"/>
		<circle class="st7" cx="145.5" cy="84.1" r="5.2"/>
	</g>
</g>
<g id="Layer_2_2_" class="st0">
	<g id="Layer_1-2_1_" class="st1">
		<circle class="st4" cx="331.4" cy="139.8" r="124.4"/>
		<g class="st10">
			<path class="st3" d="M382.5,143.5c-4.2-5-9.9-8.3-16.3-9.5c9.2-4.7,13.3-12.6,12.2-23.8c-0.3-3.7-1.4-7.4-3.4-10.6
				c-1.9-3-4.5-5.5-7.7-7.2c-3.3-1.8-6.8-3.2-10.4-4.1c-4.3-1-8.6-1.7-12.9-2.1V62.9h-14.2v22.7c-2.4,0-6.2,0-11.2,0V62.9h-14.2
				v23.3c-2,0-5,0-9,0h-19.6v15.2h10.2c4-0.5,7.6,2.3,8.1,6.3v26.5c0.5,0,1,0,1.5,0h-1.5v37.1c-0.1,2.7-2.4,4.9-5.2,4.8
				c0,0-0.1,0-0.1,0h-10.3l-2.8,16.9h28.5v23.8h14.2v-23.4h11.3v23.4h14.2v-23.6c4.5-0.2,9-0.7,13.4-1.4c3.8-0.7,7.6-1.7,11.2-3.2
				c3.3-1.2,6.3-3.1,9-5.4c2.5-2.3,4.5-5.1,6-8.1c1.6-3.7,2.6-7.6,3-11.6C387.9,156.5,386.4,149.4,382.5,143.5z M318.9,102.4h3.7h5
				c1.8,0,3.6,0.1,5.3,0.2c1.9,0.1,3.8,0.4,5.7,0.7c1.7,0.4,3.4,0.9,5.1,1.5c1.6,0.6,3.1,1.5,4.4,2.6c1.2,1.1,2.1,2.4,2.8,3.9
				c0.8,1.7,1.2,3.5,1.1,5.4c0,1.6-0.3,3.2-0.8,4.7c-0.5,1.4-1.4,2.6-2.5,3.5c-1,0.8-2.1,1.5-3.3,2.2c-1.4,0.8-2.9,1.4-4.5,1.7
				c-1.8,0.4-3.4,0.8-4.7,1c-1.7,0.3-3.4,0.4-5.1,0.5l-4.6,0.2h-4.1h-3.2v-28.5L318.9,102.4z M357.7,165.3c-0.5,1.4-1.3,2.6-2.3,3.7
				c-1,1.2-2.2,2.1-3.6,2.8c-1.4,0.8-2.9,1.4-4.4,2c-1.7,0.6-3.4,1-5.1,1.3c-2,0.4-3.8,0.6-5.3,0.8c-1.5,0.2-3.3,0.3-5.4,0.4h-4.9
				l-4.4-0.1h-3.4V145h4.4c2.4,0,4.4,0,6,0c1.5,0,3.7,0,6.3,0.2c2.3,0.1,4.6,0.4,6.8,0.9c2.1,0.4,4.1,1,6.1,1.7
				c1.9,0.6,3.7,1.6,5.3,2.8c1.4,1.1,2.6,2.5,3.4,4.1C358.8,158,359,161.8,357.7,165.3z"/>
		</g>
		<circle class="st9" cx="168.7" cy="284.9" r="124.4"/>
		<path class="st3" d="M113.1,338.4c18.8,19.4,46.4,27.5,72.7,21.4l-21.6-21.4H113.1z"/>
		<path class="st3" d="M168.3,208.1c-20.8,0-40.8,8.4-55.2,23.4h55.2c29.5,0,53.5,23.9,53.5,53.4c0,0,0,0,0,0l0,0
			c0,20.6-11.9,39.4-30.5,48.3l17.3,17.2c36.2-22.1,47.7-69.4,25.6-105.6c-14-23-39-36.9-65.9-36.8V208.1z"/>
		<path class="st3" d="M197.6,284.9c0-16.1-13.1-29.1-29.1-29.2H97.2c-2.4,5.8-4.1,11.8-5,18h78c6.2,0,11.2,5,11.2,11.2l0,0
			c0,6.2-5,11.2-11.2,11.2h-78c0.9,6.2,2.6,12.2,5,18h71.3C184.6,314.1,197.6,301,197.6,284.9z"/>
		<path class="st2" d="M491.5,290.3c-6.6-1.1-12.8,3.3-14,9.8c-5.6,32.2-45.3,66.3-81,74.4l2.4-3.3c4.6-5,4.3-12.7-0.7-17.3
			c-5-4.6-12.7-4.3-17.3,0.7c-0.7,0.8-1.3,1.6-1.8,2.5l-16.7,23.6l-0.2,0.4l-0.6,1.1l-0.5,1.1c0,0.3,0,0.7-0.3,1
			c-0.3,0.4-0.2,0.9-0.3,1.3c-0.1,0.4,0,0.2,0,0.4c0,0.1,0,0.4,0,0.6c0,0.5,0,0.9,0,1.4c0,0.4,0,0.7,0,1.1c0,0.4,0,0.8,0,1.2
			c0,0.4,0,0.7,0.3,1.1c0.1,0.4,0.3,0.8,0.4,1.1c0.3,0.7,0.7,1.4,1.1,2c0.2,0.3,0.4,0.6,0.7,0.9c0.2,0.3,0.5,0.6,0.8,0.9l1,0.8
			c0.2,0.2,0.3,0.3,0.5,0.4l31.3,22.2c4.9,4.6,12.6,4.4,17.3-0.5c4.6-4.9,4.4-12.6-0.5-17.3c-0.8-0.8-1.7-1.4-2.7-1.9l-4.3-3.1
			c43.7-11.8,87.9-51.9,95.1-92.8C502.5,297.7,498.1,291.5,491.5,290.3z"/>
		<path class="st2" d="M140.6,39.9c0-0.3,0-0.7,0.3-1s0.2-0.9,0.3-1.3v-0.4v-0.6c0-0.4,0-0.9,0-1.4c0-0.4,0-0.7,0-1.1
			c0-0.4,0-0.8,0-1.2c-0.1-0.4-0.2-0.7-0.3-1.1c-0.1-0.4-0.2-0.8-0.4-1.1l-0.6-1c-0.2-0.4-0.4-0.7-0.7-1.1c-0.2-0.3-0.4-0.6-0.7-0.9
			c-0.2-0.3-0.5-0.6-0.8-0.9c-0.3-0.3-0.6-0.6-1-0.8l-0.5-0.4L105.2,3.3C100.3-1.3,92.6-1.1,88,3.8c-4.6,4.9-4.4,12.6,0.5,17.3
			c0.8,0.8,1.7,1.4,2.7,1.9l4.4,3.1C51.6,38,7.3,78.1,0.1,119.1c-0.6,6.7,4.3,12.7,11,13.3c6,0.6,11.6-3.4,13-9.2
			c5.6-32.2,45.4-66.3,81-74.4l-2.3,3.3c-4.6,4.9-4.4,12.6,0.5,17.3c4.9,4.6,12.6,4.4,17.3-0.5c0.8-0.8,1.4-1.7,1.9-2.7l16.8-23.6
			v-0.4c0.2-0.3,0.4-0.7,0.6-1.1C140.3,40.6,140.4,40.2,140.6,39.9z"/>
	</g>
</g>
<g id="Layer_2_3_">
	<g id="Layer_2-2">
		<path class="st11" d="M200,108.4c-25.9,0-48.8,21.9-51.6,47.6c-2.7,23.8,15.8,38.7,39.5,38.7c19.4,0,44.2-19.4,48.2-41.6
			C241,124.7,220.8,108.4,200,108.4z M217.3,152.6c-2.2,14.1-16.4,26.3-27.5,26.3c-13.6,0-24.1-9.4-22.6-24.5
			c1.6-16.2,14.7-30.1,29.5-30.1C208.6,124.3,220.2,134.6,217.3,152.6z"/>
		<path class="st11" d="M307.1,235.9c-25.9,0-48.8,21.9-51.6,47.6c-2.7,23.8,15.8,38.7,39.5,38.7c19.4,0,44.2-19.4,48.1-41.6
			C348.1,252.2,327.9,235.9,307.1,235.9z M324.5,280.1c-2.2,14.1-16.4,26.3-27.5,26.3c-13.5,0-24.1-9.4-22.6-24.5
			c1.6-16.2,14.7-30.1,29.5-30.1C315.7,251.8,327.3,262.1,324.5,280.1z"/>
		<path class="st12" d="M318.3,122.1L196.8,314.4c-2.6,4.2-8.5,6.3-13.9,4.7l-0.1,0c-6.7-1.8-9.7-8.3-6.4-13.5l121.4-192.2
			c2.7-4.3,8.7-6.4,14.1-4.8l0,0C318.6,110.5,321.6,116.9,318.3,122.1z"/>
		<line class="st13" x1="256.2" y1="28.6" x2="254.7" y2="56"/>
		<line class="st13" x1="291.7" y1="3.7" x2="280.4" y2="58.3"/>
		<line class="st13" x1="146.4" y1="32.5" x2="168.4" y2="71.8"/>
		<line class="st13" x1="172.8" y1="10" x2="192" y2="62.9"/>
		<line class="st13" x1="371" y1="33.2" x2="338.4" y2="79.3"/>
		<line class="st13" x1="381.7" y1="69.8" x2="358.8" y2="93.3"/>
		<line class="st13" x1="47.7" y1="203" x2="77.5" y2="204.4"/>
		<line class="st13" x1="4.3" y1="161.6" x2="81" y2="180.7"/>
		<line class="st13" x1="52" y1="304.2" x2="94.6" y2="283.9"/>
		<line class="st13" x1="27.6" y1="279.9" x2="84.9" y2="262.2"/>
		<line class="st13" x1="52.7" y1="97.1" x2="102.7" y2="127.1"/>
		<line class="st13" x1="92.4" y1="87.3" x2="117.9" y2="108.4"/>
		<line class="st13" x1="236.8" y1="395.1" x2="238.3" y2="367.6"/>
		<line class="st13" x1="201.3" y1="420" x2="212.6" y2="365.3"/>
		<line class="st13" x1="346.7" y1="391.1" x2="324.6" y2="351.9"/>
		<line class="st13" x1="320.3" y1="413.6" x2="301" y2="360.9"/>
		<line class="st13" x1="122" y1="390.5" x2="154.6" y2="344.4"/>
		<line class="st13" x1="111.3" y1="354" x2="134.3" y2="330.4"/>
		<line class="st13" x1="445.3" y1="220.8" x2="415.4" y2="219.4"/>
		<line class="st13" x1="498" y1="259" x2="412.9" y2="243.1"/>
		<line class="st13" x1="440.9" y1="119.6" x2="398.4" y2="139.8"/>
		<line class="st13" x1="465.4" y1="143.9" x2="408.1" y2="161.6"/>
		<line class="st13" x1="440.3" y1="326.6" x2="390.3" y2="296.6"/>
		<line class="st13" x1="400.6" y1="336.5" x2="375" y2="315.4"/>
	</g>
</g>
</svg>
