<?xml version="1.0" encoding="utf-8"?>
<!-- Generator: Adobe Illustrator 22.0.1, SVG Export Plug-In . SVG Version: 6.00 Build 0)  -->
<svg version="1.1" id="Layer_1" xmlns="http://www.w3.org/2000/svg" xmlns:xlink="http://www.w3.org/1999/xlink" x="0px" y="0px"
	 viewBox="0 0 458.6 458.6" style="enable-background:new 0 0 458.6 458.6;" xml:space="preserve">
<style type="text/css">
	.st0{fill:#886DD2;}
	.st1{fill:#AFB9D2;stroke:#AFB9D2;stroke-width:6;stroke-miterlimit:10;}
	.st2{fill:none;stroke:#DFE1EB;stroke-width:7;stroke-linecap:round;stroke-miterlimit:10;}
</style>
<title>discount</title>
<g id="Layer_2_1_">
	<g id="Layer_2-2">
		<path class="st0" d="M182.8,117.1c-25.9,0-48.8,23.8-51.6,51.6c-2.7,25.8,15.8,42,39.5,42c19.4,0,44.2-21,48.2-45.1
			C223.8,134.8,203.6,117.1,182.8,117.1z M200.1,165c-2.2,15.3-16.4,28.5-27.5,28.5c-13.6,0-24.1-10.2-22.6-26.6
			c1.6-17.6,14.7-32.6,29.5-32.6C191.4,134.4,203,145.5,200.1,165z"/>
		<path class="st0" d="M289.9,255.4c-25.9,0-48.8,23.8-51.6,51.6c-2.7,25.8,15.8,42,39.5,42c19.4,0,44.2-21,48.1-45.1
			C330.9,273.1,310.7,255.4,289.9,255.4z M307.3,303.3c-2.2,15.3-16.4,28.5-27.5,28.5c-13.5,0-24.1-10.2-22.6-26.6
			c1.6-17.6,14.7-32.6,29.5-32.6C298.5,272.6,310.1,283.8,307.3,303.3z"/>
		<path class="st1" d="M304.9,135.3L175.5,338.2c-2.8,4.4-8.8,6.4-14.1,4.5l-0.1,0c-6.6-2.3-9.3-9.4-5.8-14.9L284.8,125
			c2.9-4.5,9-6.5,14.3-4.6l0,0C305.7,122.7,308.4,129.8,304.9,135.3z"/>
		<line class="st2" x1="239" y1="30.5" x2="237.5" y2="60.3"/>
		<line class="st2" x1="274.5" y1="3.5" x2="263.2" y2="62.8"/>
		<line class="st2" x1="129.2" y1="34.8" x2="151.2" y2="77.4"/>
		<line class="st2" x1="155.6" y1="10.4" x2="174.8" y2="67.7"/>
		<line class="st2" x1="353.8" y1="35.5" x2="321.2" y2="85.5"/>
		<line class="st2" x1="364.5" y1="75.2" x2="341.6" y2="100.7"/>
		<line class="st2" x1="30.5" y1="219.7" x2="60.3" y2="221.2"/>
		<line class="st2" x1="3.5" y1="184.2" x2="62.8" y2="195.5"/>
		<line class="st2" x1="34.8" y1="329.5" x2="77.4" y2="307.5"/>
		<line class="st2" x1="10.4" y1="303.1" x2="67.7" y2="283.9"/>
		<line class="st2" x1="35.5" y1="104.8" x2="85.5" y2="137.4"/>
		<line class="st2" x1="75.2" y1="94.2" x2="100.7" y2="117.1"/>
		<line class="st2" x1="219.6" y1="428.1" x2="221.1" y2="398.3"/>
		<line class="st2" x1="184.1" y1="455.1" x2="195.4" y2="395.8"/>
		<line class="st2" x1="329.5" y1="423.8" x2="307.4" y2="381.2"/>
		<line class="st2" x1="303.1" y1="448.2" x2="283.8" y2="391"/>
		<line class="st2" x1="104.8" y1="423.1" x2="137.4" y2="373.1"/>
		<line class="st2" x1="94.1" y1="383.5" x2="117.1" y2="357.9"/>
		<line class="st2" x1="428.1" y1="239" x2="398.2" y2="237.5"/>
		<line class="st2" x1="455.1" y1="274.5" x2="395.7" y2="263.2"/>
		<line class="st2" x1="423.7" y1="129.2" x2="381.2" y2="151.2"/>
		<line class="st2" x1="448.2" y1="155.6" x2="390.9" y2="174.8"/>
		<line class="st2" x1="423.1" y1="353.8" x2="373.1" y2="321.2"/>
		<line class="st2" x1="383.4" y1="364.5" x2="357.8" y2="341.6"/>
	</g>
</g>
</svg>
