<svg xmlns="http://www.w3.org/2000/svg" viewBox="0 0 428.91 428.95"><defs><style>.cls-1{fill:#886dd2;}.cls-1,.cls-2{stroke:#363636;stroke-width:1.5px;}.cls-1,.cls-2,.cls-3{stroke-miterlimit:10;}.cls-2{fill:#fcfcfc;}.cls-3{fill:none;stroke:#dfe1eb;stroke-linecap:round;stroke-width:7px;}</style></defs><title>07_profit</title><g id="Layer_2" data-name="Layer 2"><g id="Layer_2-2" data-name="Layer 2"><path class="cls-1" d="M181.94,111.17c-20.92,0-39.35,21.18-41.66,46-2.14,23,12.76,37.45,31.89,37.45,15.62,0,35.68-18.68,38.83-40.2C215,126.94,198.72,111.17,181.94,111.17Zm14,42.66c-1.8,13.61-13.26,25.42-22.19,25.42-10.92,0-19.43-9.12-18.21-23.68,1.32-15.67,11.85-29.06,23.8-29.06C188.91,126.51,198.22,136.48,195.93,153.83Z"/><path class="cls-1" d="M172.73,111.17c-20.92,0-39.34,21.18-41.65,46-2.14,23,12.76,37.45,31.88,37.45,15.63,0,35.69-18.68,38.84-40.2C205.82,126.94,189.52,111.17,172.73,111.17Zm14,42.66c-1.8,13.61-13.25,25.42-22.18,25.42-10.92,0-19.44-9.12-18.21-23.68,1.32-15.67,11.84-29.06,23.79-29.06C179.71,126.51,189,136.48,186.72,153.83Z"/><path class="cls-1" d="M268.36,234.37c-20.92,0-39.35,21.17-41.66,46-2.14,23,12.76,37.44,31.89,37.44,15.62,0,35.68-18.68,38.83-40.2C301.44,250.13,285.14,234.37,268.36,234.37Zm14,42.66c-1.8,13.6-13.26,25.42-22.19,25.42-10.92,0-19.43-9.13-18.21-23.68,1.32-15.68,11.85-29.07,23.8-29.07C275.34,249.7,284.64,259.67,282.35,277Z"/><path class="cls-1" d="M259.15,234.37c-20.91,0-39.34,21.17-41.65,46-2.14,23,12.76,37.44,31.88,37.44,15.63,0,35.69-18.68,38.84-40.2C292.24,250.13,275.94,234.37,259.15,234.37Zm14,42.66c-1.79,13.6-13.25,25.42-22.18,25.42-10.92,0-19.43-9.13-18.21-23.68,1.32-15.68,11.84-29.07,23.79-29.07C266.13,249.7,275.44,259.67,273.14,277Z"/><path class="cls-2" d="M268,111.17h-8.86a.06.06,0,0,0-.05.11l5.24,6.24L154.27,308.21l7.81,3,.81,3.79h9L285.65,118Z"/><path class="cls-2" d="M276.65,118,162.89,315l-17.62-6.82L259,111.28a.14.14,0,0,1,.18-.06Z"/><line class="cls-3" x1="223.53" y1="28.73" x2="222.13" y2="56.6"/><line class="cls-3" x1="256.7" y1="3.5" x2="246.11" y2="58.94"/><line class="cls-3" x1="120.91" y1="32.78" x2="141.52" y2="72.56"/><line class="cls-3" x1="145.56" y1="9.95" x2="163.56" y2="63.45"/><line class="cls-3" x1="330.82" y1="33.4" x2="300.36" y2="80.1"/><line class="cls-3" x1="340.79" y1="70.46" x2="319.36" y2="94.35"/><line class="cls-3" x1="28.73" y1="205.47" x2="56.6" y2="206.87"/><line class="cls-3" x1="3.5" y1="172.3" x2="58.94" y2="182.89"/><line class="cls-3" x1="32.78" y1="308.09" x2="72.56" y2="287.48"/><line class="cls-3" x1="9.95" y1="283.43" x2="63.45" y2="265.44"/><line class="cls-3" x1="33.4" y1="98.18" x2="80.1" y2="128.63"/><line class="cls-3" x1="70.46" y1="88.21" x2="94.35" y2="109.63"/><line class="cls-3" x1="205.42" y1="400.23" x2="206.83" y2="372.35"/><line class="cls-3" x1="172.26" y1="425.45" x2="182.85" y2="370.02"/><line class="cls-3" x1="308.04" y1="396.18" x2="287.44" y2="356.39"/><line class="cls-3" x1="283.39" y1="419" x2="265.4" y2="365.51"/><line class="cls-3" x1="98.13" y1="395.56" x2="128.59" y2="348.85"/><line class="cls-3" x1="88.17" y1="358.5" x2="109.59" y2="334.6"/><line class="cls-3" x1="400.19" y1="223.53" x2="372.31" y2="222.13"/><line class="cls-3" x1="425.41" y1="256.7" x2="369.98" y2="246.11"/><line class="cls-3" x1="396.14" y1="120.91" x2="356.35" y2="141.52"/><line class="cls-3" x1="418.96" y1="145.56" x2="365.47" y2="163.56"/><line class="cls-3" x1="395.51" y1="330.82" x2="348.81" y2="300.36"/><line class="cls-3" x1="358.45" y1="340.79" x2="334.56" y2="319.36"/></g></g></svg>