<svg xmlns="http://www.w3.org/2000/svg" viewBox="0 0 512 512"><defs><style>.cls-1{fill:#775bb2;}.cls-2{fill:#46d1a4;}</style></defs><title>Asset 2</title><g id="Layer_2" data-name="Layer 2"><g id="Capa_1" data-name="Capa 1"><path class="cls-1" d="M224,0H74.67A74.75,74.75,0,0,0,0,74.67V437.33A74.75,74.75,0,0,0,74.67,512H96a10.67,10.67,0,1,0,0-21.33H74.67a53.42,53.42,0,0,1-53.34-53.34V74.67A53.42,53.42,0,0,1,74.67,21.33H224a53.41,53.41,0,0,1,53.33,53.34V181.33a10.67,10.67,0,0,0,21.34,0V74.67A74.75,74.75,0,0,0,224,0Z"/><path class="cls-1" d="M288,85.33H10.67a10.67,10.67,0,0,0,0,21.34H288a10.67,10.67,0,1,0,0-21.34Z"/><path class="cls-1" d="M192,384H10.67a10.67,10.67,0,1,0,0,21.33H192A10.67,10.67,0,1,0,192,384Z"/><path class="cls-1" d="M181.33,42.67h-64a10.67,10.67,0,0,0,0,21.33h64a10.67,10.67,0,1,0,0-21.33Z"/><path class="cls-1" d="M224.43,42.67h-.22a10.58,10.58,0,0,0-10.56,10.66,10.72,10.72,0,0,0,21.44,0A10.66,10.66,0,0,0,224.43,42.67Z"/><path class="cls-2" d="M481.49,282.35,401.28,194.2a40.83,40.83,0,0,0-57.75.13A39.8,39.8,0,0,0,333.21,212a40.87,40.87,0,0,0-64,21.31,40.88,40.88,0,0,0-63.89,20.93l-37.8-37.8a40.83,40.83,0,0,0-57.75,57.74L255,419.39l-86.15,13.53A47.78,47.78,0,0,0,128,480a32,32,0,0,0,32,32H361.15a116.56,116.56,0,0,0,83-34.37l33.55-33.56a117.17,117.17,0,0,0,3.82-161.72ZM462.59,429,429,462.55a95.4,95.4,0,0,1-67.89,28.12H160A10.67,10.67,0,0,1,149.33,480,26.44,26.44,0,0,1,172,454l107-16.81a10.65,10.65,0,0,0,5.88-18.07L124.8,259.05a19.51,19.51,0,0,1,27.61-27.56L259.14,338.22a10.66,10.66,0,0,0,15.08-15.08l-43.58-43.59A19.5,19.5,0,0,1,258.22,252l43.58,43.58A10.66,10.66,0,0,0,320,288a10.56,10.56,0,0,0-3-7.45L294.72,258.3a19.51,19.51,0,0,1,27.59-27.58L344.56,253l0,0,0,0,0,0,0,0h0s0,0,0,0a10.67,10.67,0,0,0,14.87-15.3l-.92-.92a19.42,19.42,0,0,1,.11-27.58c7.57-7.55,19.88-7.53,27.12-.36l79.87,87.78A95.87,95.87,0,0,1,462.59,429Z"/></g></g></svg>