<?xml version="1.0" encoding="utf-8"?>
<!-- Generator: Adobe Illustrator 22.0.1, SVG Export Plug-In . SVG Version: 6.00 Build 0)  -->
<svg version="1.1" id="Layer_1" xmlns="http://www.w3.org/2000/svg" xmlns:xlink="http://www.w3.org/1999/xlink" x="0px" y="0px"
	 viewBox="0 0 512 512" style="enable-background:new 0 0 512 512;" xml:space="preserve">
<style type="text/css">
	.st0{fill:#775BB2;}
	.st1{fill:#46D1A4;}
</style>
<g>
	<g>
		<g>
			<g>
				<path class="st0" d="M261.3,198.2c-19.2,0-34.8,15.6-34.8,34.8c0,19.2,15.6,34.8,34.8,34.8s34.8-15.6,34.8-34.8
					C296.1,213.8,280.5,198.2,261.3,198.2z M261.3,254.3c-11.7,0-21.3-9.6-21.3-21.3c0-11.7,9.6-21.3,21.3-21.3
					c11.7,0,21.3,9.6,21.3,21.3C282.6,244.7,273,254.3,261.3,254.3z"/>
				<path class="st0" d="M399.7,395.2v-99.9c0-1.8-0.7-3.5-2-4.8l-65-64.6v-14.3c0-23.3-6.6-45.9-19-65.4
					c-12.1-19-29.2-34.3-49.4-44.2c-1.9-0.9-4.1-0.9-5.9,0c-20.2,9.9-37.3,25.2-49.4,44.2c-12.5,19.5-19,42.2-19,65.4v14.3l-65,64.6
					c-1.3,1.3-2,3-2,4.8v99.9c0,3.7,3,6.8,6.8,6.8h60.3v0.3c0,13.2,10.7,23.9,23.9,23.9h10c-4,8.3-6.1,17.5-6.1,26.9
					c0,26.3,16.6,49.9,41.3,58.9c0.7,0.3,1.5,0.4,2.3,0.4c0.8,0,1.6-0.1,2.3-0.4c24.7-9,41.3-32.7,41.3-58.9
					c0-9.4-2.1-18.5-6.1-26.9h10c13.2,0,23.9-10.7,23.9-23.9V402H393C396.7,402,399.7,399,399.7,395.2z M189.8,376.2v12.3h-53.5v0
					v-90.3l53.5-53.2V376.2z M213.7,412.6c-5.7,0-10.4-4.6-10.4-10.4v-7V383h51.1v29.7H213.7z M261.3,498.4
					c-18.1-7.6-30-25.5-30-45.3c0-9.5,2.7-18.6,7.8-26.6h15.4V439c0,3.7,3,6.8,6.8,6.8c3.7,0,6.8-3,6.8-6.8v-12.5h15.4
					c5.1,7.9,7.8,17,7.8,26.6C291.3,472.8,279.3,490.7,261.3,498.4z M319.2,402.3L319.2,402.3c0,5.7-4.6,10.4-10.4,10.4H268V383
					h51.1V402.3z M386.2,388.5h-53.5v-12.3v-41.7c0-3.7-3-6.8-6.8-6.8s-6.8,3-6.8,6.8v35H268v-18c0-3.7-3-6.8-6.8-6.8
					c-3.7,0-6.8,3-6.8,6.8v18h-51.1V228.7v-17.1c0-40.6,22.1-77.1,57.9-95.9c35.8,18.8,57.9,55.3,57.9,95.9v99.8
					c0,3.7,3,6.8,6.8,6.8c3.7,0,6.8-3,6.8-6.8V245l53.5,53.2L386.2,388.5L386.2,388.5z"/>
				<path class="st1" d="M415.8,437.2c-7.6,0-15.1,1.5-22,4.4c-3.8-12-15.1-20.8-28.3-20.8c-16.4,0-29.7,13.3-29.7,29.7
					c0,3.7,3,6.8,6.8,6.8s6.8-3,6.8-6.8c0-8.9,7.3-16.2,16.2-16.2c8.9,0,16.2,7.3,16.2,16.2c0,3.8-1.4,7.5-3.8,10.4
					c-2.4,2.9-2.1,7.1,0.8,9.5c1.3,1.1,2.8,1.6,4.4,1.6c1.9,0,3.8-0.8,5.2-2.4c3.3-3.9,5.5-8.5,6.5-13.4c6.5-3.6,13.8-5.5,21.2-5.5
					c24,0,43.6,19.6,43.6,43.6c0,3.7,3,6.8,6.8,6.8s6.8-3,6.8-6.8C473,462.8,447.4,437.2,415.8,437.2z"/>
				<path class="st1" d="M175.1,465.8c-2.7,0-5.3,0.3-7.9,0.9c1-1.7,1.2-3.7,0.6-5.7c-5.2-15-19.5-25.1-35.4-25.1
					c-11.7,0-22.8,5.5-29.8,14.8c-3.8-1-7.7-1.5-11.7-1.5c-25,0-45.4,20.4-45.4,45.4c0,3.7,3,6.8,6.8,6.8c3.7,0,6.8-3,6.8-6.8
					c0-17.6,14.3-31.9,31.9-31.9c11,0,21.1,5.6,27,14.9c2,3.2,6.2,4.1,9.3,2.1c3.2-2,4.1-6.2,2.1-9.3c-3.6-5.7-8.4-10.5-13.8-14
					c4.5-4.4,10.5-7,16.9-7c10.2,0,19.2,6.4,22.6,16c0.7,2,2.3,3.5,4.2,4.2c-10.9,5.7-18.3,17.1-18.3,30.3c0,3.7,3,6.8,6.8,6.8
					c3.7,0,6.8-3,6.8-6.8c0-11.4,9.3-20.7,20.7-20.7s20.7,9.3,20.7,20.7c0,3.7,3,6.8,6.8,6.8c3.7,0,6.8-3,6.8-6.8
					C209.3,481.2,194,465.8,175.1,465.8z"/>
			</g>
		</g>
	</g>
	<path class="st1" d="M385.4,84.6c1.4,1.4,3.2,2.1,5,2.1c1.8,0,3.6-0.7,5-2.1l9.1-9.1l9.1,9.1c1.4,1.4,3.2,2.1,5,2.1
		c1.8,0,3.6-0.7,5-2.1c2.7-2.7,2.7-7.2,0-9.9l-9.1-9.1l9.1-9.1c2.7-2.7,2.7-7.2,0-9.9c-2.7-2.7-7.2-2.7-9.9,0l-9.1,9.1l-9.1-9.1
		c-2.7-2.7-7.2-2.7-9.9,0s-2.7,7.2,0,9.9l9.1,9.1l-9.1,9.1C382.7,77.4,382.7,81.9,385.4,84.6z"/>
	<path class="st1" d="M447.1,179.8c3.9,0,7-3.1,7-7c0-3.9-3.1-7-7-7c-3.9,0-7,3.1-7,7C440.1,176.6,443.2,179.8,447.1,179.8z"/>
	<circle class="st1" cx="101.6" cy="224.3" r="7"/>
	<path class="st1" d="M67.4,72.6c11.6,0,21,9.4,21,21c0,3.9,3.1,7,7,7c3.9,0,7-3.1,7-7c0-11.6,9.4-21,21-21c3.9,0,7-3.1,7-7
		s-3.1-7-7-7c-11.6,0-21-9.4-21-21c0-3.9-3.1-7-7-7c-3.9,0-7,3.1-7,7c0,11.6-9.4,21-21,21c-3.9,0-7,3.1-7,7
		C60.4,69.5,63.5,72.6,67.4,72.6z M95.4,58.6c2,2.7,4.4,5,7,7c-2.7,2-5,4.4-7,7c-2-2.7-4.4-5-7-7C91.1,63.6,93.4,61.3,95.4,58.6z"/>
	<circle class="st1" cx="281.9" cy="7.2" r="7"/>
</g>
</svg>
