<svg xmlns="http://www.w3.org/2000/svg" xmlns:xlink="http://www.w3.org/1999/xlink" viewBox="0 0 391.28 390.88"><defs><style>.cls-1{fill:none;}.cls-2{clip-path:url(#clip-path);}.cls-3{fill:#46d1a4;}.cls-4{fill:#775bb2;}</style><clipPath id="clip-path" transform="translate(0 -0.08)"><rect class="cls-1" width="391.92" height="391.92"/></clipPath></defs><title>Asset 1</title><g id="Layer_2" data-name="Layer 2"><g id="Layer_1-2" data-name="Layer 1"><g class="cls-2"><path class="cls-3" d="M18.37,266.56a8.92,8.92,0,0,0,2.48-.4,7.28,7.28,0,0,0,4.4-9.28C1.57,191,17.25,119,66.13,69a181.08,181.08,0,0,1,256.08-2.88l1.12,1-21.92.24a7.28,7.28,0,0,0,.08,14.56h.08L341,81.44a7.27,7.27,0,0,0,5.12-2.16,7.2,7.2,0,0,0,2.08-5.12l-.48-39.44a7.26,7.26,0,0,0-7.36-7.2,7.36,7.36,0,0,0-7.2,7.36l.24,21.92-1.12-1A194.16,194.16,0,0,0,195.65.08h-2.32A195.71,195.71,0,0,0,4.13,155.6a196.33,196.33,0,0,0,7.36,106.32,7.48,7.48,0,0,0,6.88,4.64Z" transform="translate(0 -0.08)"/><path class="cls-3" d="M379.73,129.36a7.26,7.26,0,1,0-13.68,4.88c23.6,65.84,7.92,137.84-41,187.84A181.3,181.3,0,0,1,69,325l-1.12-1,21.92-.24a7.28,7.28,0,0,0-.08-14.56h-.08l-39.44.48A7.36,7.36,0,0,0,43,317l.48,39.44a7.29,7.29,0,0,0,7.28,7.2h.08a7.36,7.36,0,0,0,7.2-7.36l-.24-21.92,1.12,1a195.57,195.57,0,0,0,320.8-206Z" transform="translate(0 -0.08)"/></g><path class="cls-4" d="M198.53,79.52a58,58,0,0,0-58,58v29h-2.32a18.91,18.91,0,0,0-18.88,18.88V264.8a18.91,18.91,0,0,0,18.88,18.88H258.85a18.91,18.91,0,0,0,18.88-18.88V185.36a18.91,18.91,0,0,0-18.88-18.88h-2.32v-29a58,58,0,0,0-58-58Zm-43.44,58a43.52,43.52,0,1,1,87,0v29h-87Zm108.08,47.76v79.44a4.3,4.3,0,0,1-4.32,4.32H138.29a4.31,4.31,0,0,1-4.32-4.32V185.28a4.31,4.31,0,0,1,4.32-4.32H258.85a4.3,4.3,0,0,1,4.32,4.32Z" transform="translate(0 -0.08)"/><path class="cls-4" d="M200.45,206.32a11.08,11.08,0,0,0-12,6.4,10.84,10.84,0,0,0,3.6,13.36,2.35,2.35,0,0,1,1,2.24v14.24a5.59,5.59,0,0,0,8.32,4.8,4.92,4.92,0,0,0,2.64-4.8V228.32a2.47,2.47,0,0,1,1.12-2.32,10.53,10.53,0,0,0,4.48-8.88,11.18,11.18,0,0,0-9.2-10.8Z" transform="translate(0 -0.08)"/></g></g></svg>