<?xml version="1.0" encoding="utf-8"?>
<!-- Generator: Adobe Illustrator 22.0.1, SVG Export Plug-In . SVG Version: 6.00 Build 0)  -->
<svg version="1.1" id="Layer_1" xmlns="http://www.w3.org/2000/svg" xmlns:xlink="http://www.w3.org/1999/xlink" x="0px" y="0px"
	 viewBox="0 0 926 926" style="enable-background:new 0 0 926 926;" xml:space="preserve">
<style type="text/css">
	.st0{fill:none;stroke:#363636;stroke-width:2;stroke-miterlimit:10;stroke-dasharray:4.0054,5.0067;}
	.st1{fill:#FFFFFF;}
	.st2{display:none;}
	.st3{display:inline;}
	.st4{fill:#363636;}
	.st5{clip-path:url(#SVGID_2_);}
	.st6{display:inline;fill:#363636;}
	.st7{display:inline;fill:#0B050C;}
	.st8{fill:#A182FA;stroke:#000000;stroke-width:4;stroke-miterlimit:10;}
</style>
<g id="Layer_1_1_">
	<g>
		<circle class="st0" cx="459.9" cy="459.7" r="360"/>
	</g>
</g>
<g id="Layer_2_1_">
	<g>
		<circle class="st1" cx="806.9" cy="460.7" r="100.1"/>
		<g class="st2">
			<g class="st3">
				<path class="st4" d="M778.5,412c0.8,0.6,1.7,1,5.2,0.2c1.6-0.4,4-1.1,6.5-2.5l1.1-0.6c9.5-5.2,31.8-17.3,51.4-7.2
					c16,8.7,22,26.6,17.4,51.5c-0.2,0.9-0.3,1.4-0.3,1.8c-0.8,4.1-1.4,9.3,0,11.7c0.3,0.6,0.9,1.1,1.5,1.3c0.9,0.4,2,0.4,2.9-0.1
					c1.5-0.8,2-2.7,1.3-4.2c-0.2-1,0.1-4.6,0.7-7.7c0-0.2,0.1-0.4,0.1-0.6s0.1-0.7,0.2-1.1c0.7-4,2.6-14.5,0.9-26
					c-2.2-14.8-9.5-25.7-21.7-32.4c0,0,0,0-0.1,0c-22.6-11.7-47,1.6-57.5,7.2l-1.1,0.6c-2.8,1.5-5.6,2-6.5,2.1c-0.3,0-0.6,0-0.9,0.1
					c-1.2,0.3-2.2,1.2-2.5,2.5C777,409.9,777.5,411.2,778.5,412z"/>
				<path class="st4" d="M846.5,456.4c4.7-4.5,7.4-10.2,7.2-15.5c-0.1-4.8-2.3-9.2-6.4-12.9c-6-5.3-16.2-5.3-28,0.1
					c-0.1,0.1-16.5,6.6-31.3,8.5c-0.1,0-10.9,1.2-20.9-0.4c-1.7-0.3-3.4,0.9-3.7,2.6c-0.3,1.7,0.9,3.4,2.6,3.7
					c10.8,1.8,22.2,0.5,22.7,0.4c16.1-2,33-8.9,33.2-9c7.2-3.2,16.5-5.2,21.2-1.1c2.8,2.4,4.2,5.2,4.2,8.2c0.1,3.6-1.9,7.5-5.3,10.8
					c-6.4,6.1-19.7,10.8-37.6,13.4c-9,1.3-31.4,4.2-46.2,3.9c-1.8,0-3.2,1.4-3.3,3.1c0,1.3,0.7,2.5,1.9,3c0.4,0.2,0.8,0.3,1.3,0.3
					c15.2,0.4,38.1-2.6,47.2-4C818.9,469.6,837.1,465.4,846.5,456.4z"/>
				<path class="st4" d="M809.4,413.2c-2,0.9-3.9,1.9-5.9,2.8c-2.6,1.2-5.2,2.2-7.9,3c-2.8,0.9-4.9,1.4-7.9,1.7
					c-3.1,0.3-6.3,0.6-9.4,0.7c-1.1,0-2,0-3.1-0.2c-1.7-0.2-3.4,0.9-3.7,2.7c-0.3,1.7,0.9,3.4,2.7,3.7c3.4,0.5,6.8,0.2,10.2-0.1
					c2.9-0.3,5.7-0.4,8.5-1c5.5-1.2,10.6-3.3,15.7-5.8c2-1,4.1-1.9,6.3-2.7c1.2-0.4,2.3-0.8,3.5-1.2c0.6-0.2,1.2-0.4,1.9-0.5
					c0.3-0.1,0.6-0.2,1-0.3c0.1,0,0.7-0.2,0.9-0.2c2.7-0.6,5.5-1,8.4-1.2c2.7-0.1,5.2,0.1,8,0.7c1,0.2,1.1,0.3,1.8,0.5
					c1.7,0.6,3.5,0.1,4.2-1.6c0.7-1.5,0.1-3.7-1.6-4.3C831.9,406.3,819.8,408.7,809.4,413.2z"/>
				<path class="st4" d="M761.2,458.8c7.3,0.7,45.4,3.4,75.3-13.9c1.5-0.9,2.1-2.8,1.2-4.4c-0.9-1.5-2.8-2.1-4.4-1.2
					c-28.2,16.3-64.5,13.7-71.5,13c-0.1,0-0.2,0-0.3,0c-1.8-0.1-3.3,1.2-3.4,3c-0.1,1.4,0.7,2.6,1.9,3.1c0.3,0.2,0.7,0.2,1.1,0.3
					L761.2,458.8z"/>
				<path class="st4" d="M832.7,512.3c-3.4-3.2-6.8-9-10-14.6c-4.7-8.1-8.7-15.1-14-16.5c-4-1-12.2,0.1-25.4,2.2
					c-9.5,1.5-20.2,3.2-24.3,2.5c-1.7-0.3-3.4,0.9-3.7,2.6c-0.2,1.5,0.5,2.9,1.8,3.4c0.3,0.1,0.5,0.2,0.8,0.2
					c5.1,0.8,15.4-0.8,26.3-2.5c8.8-1.4,19.8-3.1,22.7-2.3c2.7,0.7,6.8,7.8,10.1,13.5c3.5,6,7.1,12.2,11.2,16.1
					c1.3,1.2,3.3,1.1,4.5-0.2C834.1,515.6,834,513.6,832.7,512.3z"/>
				<path class="st4" d="M818.9,523.3c-2-1.9-4.7-6-7.4-10c-5.6-8.4-9.2-13.6-13.1-14.6c-3.9-1-13.8,0.7-30.8,4.2
					c-2.1,0.4-3.9,0.8-5.1,1c-1.7,0.3-2.9,2-2.6,3.8c0.2,1.1,0.9,1.9,1.8,2.3c0.6,0.3,1.2,0.4,1.9,0.2c1.3-0.2,3.1-0.6,5.2-1
					c6.7-1.4,24.7-5.1,27.8-4.3c1.9,0.7,6.6,7.7,9.4,12c3,4.4,5.8,8.6,8.2,11c1.3,1.2,3.3,1.2,4.5-0.1
					C820.2,526.6,820.2,524.6,818.9,523.3z"/>
				<path class="st4" d="M802.4,533.3c-1.2-1.8-2.2-3.6-3.2-5.3c-3.2-5.6-6-10.4-10.9-11.7c-5.5-1.4-17.4,3-19.7,3.9
					c-1.6,0.6-2.5,2.5-1.8,4.2c0.3,0.8,0.9,1.4,1.7,1.7c0.8,0.3,1.7,0.4,2.5,0.1c5.7-2.3,13.4-4.3,15.7-3.7s4.5,4.4,7,8.7
					c1,1.7,2.1,3.6,3.3,5.5c0.9,1.5,2.9,1.9,4.4,1C802.9,536.8,803.4,534.8,802.4,533.3z"/>
				<path class="st4" d="M855.6,484.8c-2-2.1-4-4.4-5.3-7c-1.4-2.9-1.3-5.8-0.5-8.9c1.1-4-5.3-5-6.3-1c-2.2,8.1,1.5,14.8,6.9,20.6
					c1.2,1.3,2.9,1.9,4.5,0.8C856.1,488.3,856.7,486.1,855.6,484.8z"/>
				<path class="st4" d="M843,497.4c-1.9-1.7-3.2-3.3-4.9-5.7c-3.1-4.4-5.3-9.8-5.1-15.4c0.1-1.7-0.8-3.4-2.7-3.7
					c-1.6-0.3-3.6,0.9-3.7,2.7c-0.4,10.2,4.6,20.3,12.2,27C841.9,505.1,846,500.2,843,497.4z"/>
			</g>
		</g>
	</g>
	<g>
		<g>
			<defs>
				<rect id="SVGID_1_" x="757.6" y="398.8" width="100.9" height="110"/>
			</defs>
			<clipPath id="SVGID_2_">
				<use xlink:href="#SVGID_1_"  style="overflow:visible;"/>
			</clipPath>
			<path class="st5" d="M842.4,497.3c-17.1,0-32.1-12.9-32.1-27.5c0-1.3-1-2.3-2.3-2.3c-1.3,0-2.3,1-2.3,2.3
				c0,17.1,17.1,32.1,36.7,32.1c1.3,0,2.3-1,2.3-2.3S843.6,497.3,842.4,497.3L842.4,497.3z"/>
			<path class="st5" d="M773.6,413c0.4,0,0.8-0.1,1.2-0.3c19.4-11.8,44.5-12.2,64.2-1.3c1.1,0.6,2.5,0.2,3.1-0.9
				c0.6-1.1,0.2-2.5-0.9-3.1c-10.1-5.6-21.7-8.6-33.2-8.6c-12.4,0-24.8,3.5-35.6,10c-1.1,0.7-1.4,2.1-0.8,3.1
				C772.1,412.6,772.8,413,773.6,413L773.6,413z"/>
			<path class="st5" d="M858.1,438.9c-8.9-16-28.6-26.4-50.1-26.4c-21.6,0-41.3,10.4-50.1,26.4c-0.6,1.1-0.2,2.5,0.9,3.1
				c1.1,0.6,2.5,0.2,3.1-0.9c8.1-14.6,26.2-24,46.1-24c19.9,0,38,9.4,46.1,24c0.4,0.8,1.2,1.2,2,1.2c0.4,0,0.8-0.1,1.1-0.3
				C858.3,441.4,858.7,440,858.1,438.9L858.1,438.9z"/>
		</g>
		<path d="M780.5,472.1c0-15.9,11.6-27.5,27.5-27.5c16.7,0,27.5,9.9,27.5,25.2c0,1.3,1,2.3,2.3,2.3s2.3-1,2.3-2.3
			c0-17.8-12.9-29.8-32.1-29.8c-18.3,0-32.1,13.8-32.1,32.1c0,13.4,4.8,24.5,15.5,35.9c0.5,0.5,1.1,0.7,1.7,0.7
			c0.6,0,1.1-0.2,1.6-0.6c0.9-0.9,1-2.3,0.1-3.2C784.9,494.4,780.5,484.3,780.5,472.1L780.5,472.1z"/>
		<path d="M808,426.3c-26.6,0-45.8,18.3-45.8,43.6c0,6.8,2.3,13.3,4.8,19.2c0.5,1.2,1.8,1.7,3,1.2c1.2-0.5,1.7-1.8,1.2-3
			c-2.3-5.5-4.4-11.5-4.4-17.5c0-22.9,17-39,41.3-39c23.5,0,41.3,17.7,41.3,41.3c0,6.3-5.1,11.5-11.5,11.5
			c-6.3,0-11.5-5.1-11.5-11.5c0-10.8-7.5-18.3-18.3-18.3c-10.8,0-18.3,7.5-18.3,18.3c0,15,8.5,27.5,24.5,36.4
			c0.4,0.2,0.7,0.3,1.1,0.3c0.8,0,1.6-0.4,2-1.2c0.6-1.1,0.2-2.5-0.9-3.1c-14.7-8.1-22.1-19-22.1-32.4c0-9.5,6.9-13.8,13.8-13.8
			c6.8,0,13.8,4.3,13.8,13.8c0,8.8,7.2,16,16,16c8.8,0,16-7.2,16-16C853.8,446,834.1,426.3,808,426.3L808,426.3z"/>
	</g>
	<g>
		<circle class="st1" cx="461.5" cy="806" r="100.1"/>
		<g>
			<path class="st4" d="M531.6,783.3H386.5c-5.6,0-10.2,4.6-10.2,10.2v31.1c0,5.6,4.6,10.2,10.2,10.2h90.7c1.3,0,2.4-1.1,2.4-2.4
				s-1.1-2.4-2.4-2.4h-90.7c-2.9,0-5.3-2.4-5.3-5.3v-31.1c0-2.9,2.4-5.3,5.3-5.3h145.1c2.9,0,5.3,2.4,5.3,5.3v23.3
				c0,1.3,1.1,2.4,2.4,2.4s2.4-1.1,2.4-2.4v-23.3C541.8,787.8,537.2,783.3,531.6,783.3z"/>
			<path class="st4" d="M531.4,822.5v-3.2c0-11.3-9.2-20.6-20.6-20.6c-11.4,0-20.6,9.2-20.6,20.6v3.2c-3,1-5.2,3.9-5.2,7.2v25.9
				c0,4.2,3.4,7.6,7.6,7.6H529c4.2,0,7.6-3.4,7.6-7.6v-25.9C536.6,826.4,534.4,823.5,531.4,822.5z M510.8,803.7
				c8.7,0,15.7,7,15.7,15.7v2.8h-31.4v-2.8C495.1,810.7,502.2,803.7,510.8,803.7z M531.7,855.6c0,1.5-1.2,2.8-2.8,2.8h-36.2
				c-1.5,0-2.8-1.2-2.8-2.8v-25.9c0-1.5,1.2-2.8,2.8-2.8H529c1.5,0,2.8,1.2,2.8,2.8L531.7,855.6L531.7,855.6z"/>
			<path class="st4" d="M415.7,802.6c-0.7-1.2-2.2-1.6-3.3-0.9l-5.3,3.1v-6.2c0-1.3-1.1-2.4-2.4-2.4c-1.3,0-2.4,1.1-2.4,2.4v6.2
				l-5.3-3.1c-1.2-0.7-2.6-0.3-3.3,0.9c-0.7,1.2-0.3,2.6,0.9,3.3l5.3,3.1l-5.3,3.1c-1.2,0.7-1.6,2.2-0.9,3.3
				c0.4,0.8,1.3,1.2,2.1,1.2c0.4,0,0.8-0.1,1.2-0.3l5.3-3.1v6.2c0,1.3,1.1,2.4,2.4,2.4c1.3,0,2.4-1.1,2.4-2.4v-6.2l5.3,3.1
				c0.4,0.2,0.8,0.3,1.2,0.3c0.8,0,1.7-0.4,2.1-1.2c0.7-1.2,0.3-2.6-0.9-3.3l-5.3-3.1l5.3-3.1C416,805.3,416.4,803.8,415.7,802.6z"
				/>
			<path class="st4" d="M446.8,802.6c-0.7-1.2-2.2-1.6-3.3-0.9l-5.3,3.1v-6.2c0-1.3-1.1-2.4-2.4-2.4c-1.3,0-2.4,1.1-2.4,2.4v6.2
				l-5.3-3.1c-1.2-0.7-2.6-0.3-3.3,0.9c-0.7,1.2-0.3,2.6,0.9,3.3l5.3,3.1l-5.3,3.1c-1.2,0.7-1.6,2.2-0.9,3.3
				c0.4,0.8,1.3,1.2,2.1,1.2c0.4,0,0.8-0.1,1.2-0.3l5.3-3.1v6.2c0,1.3,1.1,2.4,2.4,2.4c1.3,0,2.4-1.1,2.4-2.4v-6.2l5.3,3.1
				c0.4,0.2,0.8,0.3,1.2,0.3c0.8,0,1.7-0.4,2.1-1.2c0.7-1.2,0.3-2.6-0.9-3.3l-5.3-3.1l5.3-3.1C447.1,805.3,447.4,803.8,446.8,802.6z
				"/>
			<path class="st4" d="M477.9,802.6c-0.7-1.2-2.2-1.6-3.3-0.9l-5.3,3.1v-6.2c0-1.3-1.1-2.4-2.4-2.4s-2.4,1.1-2.4,2.4v6.2l-5.3-3.1
				c-1.2-0.7-2.6-0.3-3.3,0.9s-0.3,2.6,0.9,3.3l5.3,3.1l-5.3,3.1c-1.2,0.7-1.6,2.2-0.9,3.3c0.4,0.8,1.3,1.2,2.1,1.2
				c0.4,0,0.8-0.1,1.2-0.3l5.3-3.1v6.2c0,1.3,1.1,2.4,2.4,2.4c1.3,0,2.4-1.1,2.4-2.4v-6.2l5.3,3.1c0.4,0.2,0.8,0.3,1.2,0.3
				c0.8,0,1.7-0.4,2.1-1.2c0.7-1.2,0.3-2.6-0.9-3.3l-5.3-3.1l5.3-3.1C478.1,805.3,478.5,803.8,477.9,802.6z"/>
			<path class="st4" d="M510.8,832.5c-4.2,0-7.6,3.4-7.6,7.6c0,3.3,2.2,6.2,5.2,7.2v3.2c0,1.3,1.1,2.4,2.4,2.4s2.4-1.1,2.4-2.4v-3.2
				c3-1,5.2-3.9,5.2-7.2C518.5,835.9,515,832.5,510.8,832.5z M510.8,842.8c-1.5,0-2.8-1.2-2.8-2.8c0-1.5,1.2-2.8,2.8-2.8
				c1.6,0,2.8,1.2,2.8,2.8S512.4,842.8,510.8,842.8z"/>
		</g>
	</g>
	<g>
		<circle class="st1" cx="114.3" cy="460" r="100.1"/>
		<g>
			<path class="st4" d="M131.1,476.1c-1.4,0-2.5,1.1-2.5,2.5V504H65.2v-63.4h19.4c1.4,0,2.5-1.1,2.5-2.5s-1.1-2.5-2.5-2.5H65.2V425
				c0-4.4,3.6-8,8-8h3.6c1.4,0,2.5-1.1,2.5-2.5s-1.1-2.5-2.5-2.5h-3.6c-7.2,0-13,5.9-13,13v94.8c0,7.2,5.9,13,13,13h47.4
				c7.2,0,13-5.9,13-13v-41C133.6,477.2,132.5,476.1,131.1,476.1z M120.5,527.6H73.1c-4.4,0-8-3.6-8-8V509h63.4v10.6
				C128.6,524.1,125,527.6,120.5,527.6z"/>
			<path class="st4" d="M108.3,415.5c-3.7-0.6-3.8-1-3.8-1.7c0-1.3,2.2-1.7,3.4-1.7c1.9,0,3.1,0.6,3.3,1.3c0.5,1.3,1.9,2,3.2,1.5
				c1.3-0.5,2-1.9,1.5-3.2c-1-2.8-4.1-4.6-8.1-4.6c-5,0-8.4,2.8-8.4,6.7c0,5.4,5,6.2,8,6.7c3.7,0.6,3.8,1,3.8,1.7
				c0,1.3-2.2,1.7-3.4,1.7c-1.9,0-3.1-0.6-3.3-1.3c-0.5-1.3-1.9-2-3.2-1.5c-1.3,0.5-2,1.9-1.5,3.2c1,2.8,4.1,4.6,8.1,4.6
				c5,0,8.4-2.8,8.4-6.7C116.4,416.8,111.3,416,108.3,415.5z"/>
			<path class="st4" d="M154.6,415.5c-3.7-0.6-3.8-1-3.8-1.7c0-1.3,2.2-1.7,3.4-1.7c1.9,0,3.1,0.6,3.3,1.3c0.5,1.3,1.9,2,3.2,1.5
				s2-1.9,1.5-3.2c-1-2.8-4.1-4.6-8.1-4.6c-5,0-8.4,2.8-8.4,6.7c0,5.4,5,6.2,8,6.7c3.7,0.6,3.8,1,3.8,1.7c0,1.3-2.2,1.7-3.4,1.7
				c-1.9,0-3.1-0.6-3.3-1.3c-0.5-1.3-1.9-2-3.2-1.5s-2,1.9-1.5,3.2c1,2.8,4.1,4.6,8.1,4.6c5,0,8.4-2.8,8.4-6.7
				C162.6,416.8,157.6,416,154.6,415.5z"/>
			<path class="st4" d="M139.1,407.2c-1-0.4-2.1-0.1-2.8,0.7l-5.2,6.1l-5.2-6.1c-0.7-0.8-1.8-1.1-2.8-0.7s-1.6,1.3-1.6,2.4v16.8
				c0,1.4,1.1,2.5,2.5,2.5s2.5-1.1,2.5-2.5v-9.9l2.7,3.2c0.5,0.6,1.2,0.9,1.9,0.9c0.7,0,1.4-0.3,1.9-0.9l2.7-3.2v9.9
				c0,1.4,1.1,2.5,2.5,2.5s2.5-1.1,2.5-2.5v-16.8C140.7,408.5,140.1,407.6,139.1,407.2z"/>
			<path class="st4" d="M164,391c-8.8-7-20.5-10.9-33-10.9c-12.4,0-24.1,3.9-33,10.9c-9,7.1-14,16.7-14,26.9
				c0,17.9,15.4,33.2,36.9,36.9c0.4,5.6-1.6,11.1-5.6,15.1c-0.7,0.7-0.9,1.8-0.5,2.7c0.4,0.9,1.3,1.5,2.3,1.5
				c11.5,0,21.4-8.2,23.7-19.4c21.6-3.7,37-19,37-36.9C178,407.8,173,398.2,164,391z M138.4,450.2c-1.3,0.2-2.3,1.3-2.2,2.7l0,0
				c-1.2,7.4-6.4,13.3-13.3,15.5c2.6-4.6,3.7-10.1,3-15.5l0,0c0.1-1.3-0.9-2.5-2.2-2.7c-20-2.8-34.6-16.3-34.6-32.3
				c0-18.1,18.8-32.8,41.9-32.8s41.9,14.7,41.9,32.8C173,433.9,158.4,447.4,138.4,450.2z"/>
		</g>
	</g>
	<g>
		<circle class="st1" cx="459.6" cy="114.1" r="100.1"/>
		<g class="st2">
			<path class="st6" d="M469.7,88.3c0-8,6.5-14.5,14.5-14.5s14.5,6.5,14.5,14.5c0,2.3-1.9,4.2-4.2,4.2s-4.2-1.9-4.2-4.2
				c0-3.4-2.8-6.2-6.2-6.2s-6.2,2.8-6.2,6.2c0,2.3-1.9,4.2-4.2,4.2S469.7,90.7,469.7,88.3z M423.4,88.3c0-8,6.5-14.5,14.5-14.5
				s14.5,6.5,14.5,14.5c0,2.3-1.9,4.2-4.2,4.2c-2.3,0-4.2-1.9-4.2-4.2c0-3.4-2.8-6.2-6.2-6.2c-3.4,0-6.2,2.8-6.2,6.2
				c0,2.3-1.9,4.2-4.2,4.2C425.1,92.5,423.4,90.6,423.4,88.3z M421.5,125.6c-1.1-2.6,0.1-5.5,2.7-6.5c0.6-0.3,1.3-0.4,1.9-0.4
				c2,0,3.8,1.2,4.6,3.1c4.7,11.2,16.2,18.4,29.3,18.4c12.8,0,24.3-7.2,29.1-18.4c1.1-2.5,4-3.7,6.6-2.6c2.5,1.1,3.7,4,2.6,6.6
				c-6.4,14.8-21.4,24.4-38.3,24.4C442.8,150.2,427.7,140.5,421.5,125.6z"/>
		</g>
		<g>
			<g>
				<path class="st4" d="M506.5,170.9H475c-1.8,0-3.3-1.5-3.3-3.3c0-1.8,1.5-3.3,3.3-3.3h31.5c2.5,0,4.5-2,4.5-4.5v-31.5
					c0-1.8,1.5-3.3,3.3-3.3s3.3,1.5,3.3,3.3v31.5C517.6,165.9,512.6,170.9,506.5,170.9z"/>
			</g>
			<g>
				<path class="st4" d="M514.3,98.3c-1.8,0-3.3-1.5-3.3-3.3V63.5c0-2.5-2-4.5-4.5-4.5H475c-1.8,0-3.3-1.5-3.3-3.3s1.5-3.3,3.3-3.3
					h31.5c6.1,0,11.1,5,11.1,11.1V95C517.6,96.8,516.1,98.3,514.3,98.3z"/>
			</g>
			<g>
				<path class="st4" d="M402.4,98.3c-1.9,0-3.4-1.5-3.4-3.4V63.4c0-6.1,5-11.1,11.1-11.1h31.5c1.8,0,3.3,1.5,3.3,3.3
					s-1.4,3.4-3.3,3.4h-31.4c-2.5,0-4.5,2-4.5,4.5V95C405.7,96.8,404.2,98.3,402.4,98.3z"/>
			</g>
			<g>
				<path class="st4" d="M441.6,170.9h-31.4c-6.2,0-11.2-5-11.2-11.1v-31.5c0-1.8,1.5-3.3,3.4-3.3s3.3,1.5,3.3,3.3v31.5
					c0,2.5,2,4.5,4.5,4.5h31.5c1.8,0,3.3,1.5,3.3,3.3C445,169.4,443.5,170.9,441.6,170.9z"/>
			</g>
		</g>
	</g>
	<g class="st2">
		<path class="st7" d="M509.3,172.5H407.5v-8.1c0-8.1,5.7-15.1,13.6-16.6l18.5-3.7c5.9-1.2,10.2-6.4,10.2-12.5v-5.8
			c0-1.1-0.5-2.2-1.3-3c-0.7-0.7-2.3-3.8-3.2-5.6c-1.6-3.1-3-5.8-4.5-7.4c-2.8-2.7-5.5-5.8-6.2-9.2c-0.5-2.7-0.2-3.4,0.3-4.4
			c0.4-0.8,1.1-2.1,1.1-3.9l0-3.1c-0.1-3.7-0.2-9.9,0.7-12.3c3.3-9.1,13.7-14.4,21.6-14.7c3.9,0.1,6.9,0.9,10.2,2.7
			c1.8,1,3.8,1.3,5.6,1.6c1,0.2,2.7,0.4,3,0.7c1.1,1.2,2.1,2.7,2.2,8.6c0,0.4,0.1,0.8,0.2,1.1c1.3,4.3,1.3,11.8,1.3,15.4
			c0,1.7,0.7,3,1.1,3.9c0.5,1,0.9,1.7,0.3,4.4c-0.7,3.5-3.4,6.5-6.2,9.2c-1.6,1.5-2.9,4.2-4.5,7.4c-0.9,1.8-2.5,4.9-3.2,5.6
			c-0.8,0.8-1.3,1.9-1.3,3v5.8c0,6,4.3,11.3,10.2,12.5l18.5,3.7c7.9,1.6,13.6,8.6,13.6,16.6V172.5L509.3,172.5z M497.3,139.5
			l-18.5-3.7c-2-0.4-3.4-2.1-3.4-4.2v-4.3c1.2-1.7,2.4-4,3.6-6.3c0.9-1.8,2.3-4.5,2.9-5.1c3.6-3.5,7.4-7.9,8.6-13.6
			c1.1-5.2,0-7.8-1.2-10c0-4.1,0-11.7-1.4-17.2c-0.2-6.6-1.4-10.3-4.4-13.7c-2.2-2.3-5.3-2.9-7.9-3.3c-1-0.2-2.4-0.4-2.9-0.7
			c-4.4-2.4-8.9-3.6-14.3-3.8c-11.2,0.4-24.9,7.5-29.5,20.3c-1.4,3.9-1.3,10.2-1.2,15.4l-0.1,3c-1.1,2.1-2.1,4.8-1.1,9.9
			c1.2,5.7,5,10.1,8.6,13.6c0.6,0.6,2,3.4,2.9,5.1c1.2,2.3,2.3,4.6,3.6,6.3v4.2c0,2-1.4,3.8-3.4,4.2l-18.5,3.7
			c-11.8,2.4-20.5,12.9-20.5,24.9v8.1c0,4.7,3.8,8.5,8.5,8.5h101.8c4.7,0,8.5-3.8,8.5-8.5v-8.1C517.7,152.4,509.1,141.9,497.3,139.5
			L497.3,139.5z"/>
		<path class="st7" d="M420.2,45.3h-17c-2.3,0-4.2,1.9-4.2,4.2V75c0,2.3,1.9,4.2,4.2,4.2s4.2-1.9,4.2-4.2V53.8h12.7
			c2.3,0,4.2-1.9,4.2-4.2C424.4,47.2,422.5,45.3,420.2,45.3L420.2,45.3z"/>
		<path class="st7" d="M403.2,96.2c-2.3,0-4.2,1.9-4.2,4.2v25.4c0,2.3,1.9,4.2,4.2,4.2h17c2.3,0,4.2-1.9,4.2-4.2
			c0-2.3-1.9-4.2-4.2-4.2h-12.7v-21.2C407.5,98.1,405.6,96.2,403.2,96.2L403.2,96.2z"/>
		<path class="st7" d="M513.5,45.3h-17c-2.3,0-4.2,1.9-4.2,4.2c0,2.3,1.9,4.2,4.2,4.2h12.7V75c0,2.3,1.9,4.2,4.2,4.2
			c2.3,0,4.2-1.9,4.2-4.2V49.5C517.7,47.2,515.8,45.3,513.5,45.3L513.5,45.3z"/>
		<path class="st7" d="M513.5,96.2c-2.3,0-4.2,1.9-4.2,4.2v21.2h-12.7c-2.3,0-4.2,1.9-4.2,4.2c0,2.3,1.9,4.2,4.2,4.2h17
			c2.3,0,4.2-1.9,4.2-4.2v-25.4C517.7,98.1,515.8,96.2,513.5,96.2L513.5,96.2z"/>
	</g>
</g>
<path class="st8" d="M540.2,429.4c0-17,0-36.3,0-45.2c0-43.4-35.3-78.7-78.6-78.7c-43.4,0-78.7,35.3-78.7,78.7c0,9,0,28.3,0,45.2
	c-20.6,0-37.2,16.6-37.2,37.2v98.2c0,20.6,16.7,37.2,37.2,37.2h157.4c20.6,0,37.2-16.7,37.2-37.2v-98.3
	C577.4,446.1,560.8,429.4,540.2,429.4L540.2,429.4z M475.8,516.7v30.7c0,7.9-6.4,14.3-14.3,14.3c-7.9,0-14.3-6.4-14.3-14.3v-30.7
	c-7-4.6-11.6-12.6-11.6-21.6c0-14.3,11.6-25.9,25.9-25.9c14.3,0,25.9,11.6,25.9,25.9C487.4,504.1,482.8,512,475.8,516.7L475.8,516.7
	z M412.8,429.4c0-17,0.1-36.2,0.1-45.2c0-26.8,21.8-48.7,48.7-48.7c26.8,0,48.7,21.8,48.7,48.7c0,8.9,0,28.2,0,45.2H412.8z
	 M412.8,429.4"/>
<path d="M457.4,141.9c-8.5,0-16-2.8-22.3-8.6c-1.5-1.4-1.7-3.5-0.4-4.9c1.3-1.4,3.4-1.5,4.9-0.1c4,3.7,8.6,5.9,14,6.6
	c8,1,15.3-0.8,21.4-6.3c1-0.9,2-1.5,3.4-1.2c1.3,0.3,2.2,1.1,2.6,2.3c0.4,1.3,0.1,2.5-0.9,3.4c-3.1,2.9-6.7,5.2-10.7,6.7
	C465.4,141.3,461.5,142,457.4,141.9z"/>
<path d="M464.2,98.9c0,3.8,0,7.5,0,11.3c0,3.1-1.1,5.8-3.7,7.6c-1.6,1.1-3.4,1.6-5.3,1.6c-0.7,0-1.5,0-2.2,0c-2-0.1-3.4-1.5-3.4-3.4
	c0-1.9,1.5-3.3,3.5-3.3c0.7,0,1.4,0,2.1,0c1.6,0,2.3-0.7,2.3-2.3c0-4.3,0-8.6,0-12.9c0-3.6,0-7.1,0-10.7c0-1.5,1-2.8,2.3-3.2
	c1.4-0.4,2.8,0,3.7,1.2c0.5,0.7,0.7,1.4,0.7,2.3C464.2,91,464.2,95,464.2,98.9z"/>
<path d="M428.2,91.5c0-1.5,0-2.9,0-4.4c0-0.5,0.1-1,0.2-1.4c0.5-1.4,1.8-2.3,3.2-2.2c1.4,0.1,2.6,1.2,2.9,2.7
	c0.1,0.3,0.1,0.6,0.1,0.9c0,2.9,0,5.9,0,8.8c0,1.3-0.4,2.3-1.5,3c-0.9,0.6-2,0.8-3,0.3c-1.2-0.6-1.9-1.6-1.9-3
	C428.1,94.6,428.2,93.1,428.2,91.5C428.2,91.5,428.2,91.5,428.2,91.5z"/>
<path d="M487.5,91.4c0,1.5,0,3.1,0,4.6c0,1.5-0.9,2.8-2.3,3.3c-1.8,0.6-3.7-0.6-4.1-2.5c-0.1-0.3-0.1-0.6-0.1-0.8c0-3,0-6,0-9
	c0-1.2,0.5-2.3,1.5-3c1-0.7,2-0.7,3-0.2c1.2,0.6,1.8,1.6,1.9,2.9C487.5,88.3,487.5,89.9,487.5,91.4
	C487.5,91.4,487.5,91.4,487.5,91.4z"/>
</svg>
