<?xml version="1.0" encoding="utf-8"?>
<!-- Generator: Adobe Illustrator 22.0.1, SVG Export Plug-In . SVG Version: 6.00 Build 0)  -->
<svg version="1.1" xmlns="http://www.w3.org/2000/svg" xmlns:xlink="http://www.w3.org/1999/xlink" x="0px" y="0px"
	 viewBox="0 0 108 102" style="enable-background:new 0 0 108 102;" xml:space="preserve">
<style type="text/css">
	.st0{fill:#FFFFFF;stroke:#363636;stroke-width:0.5;stroke-miterlimit:10;}
	.st1{fill:none;stroke:#363636;stroke-width:0.5;stroke-miterlimit:10;}
	.st2{fill:none;stroke:#000000;stroke-width:0.5;stroke-miterlimit:10;}
	.st3{fill:none;stroke:#363636;stroke-width:0.5;stroke-linecap:round;stroke-miterlimit:10;}
	.st4{display:none;fill:none;stroke:#000000;stroke-width:0.5;stroke-miterlimit:10;}
	.st5{fill:none;stroke:#777777;stroke-width:0.5;stroke-miterlimit:10;stroke-dasharray:0.4998,0.9997;}
	.st6{clip-path:url(#SVGID_2_);fill:#A182FA;stroke:#363636;stroke-width:0.5;stroke-miterlimit:10;}
	.st7{clip-path:url(#SVGID_2_);fill:none;stroke:#363636;stroke-width:0.5;stroke-linecap:round;stroke-miterlimit:10;}
	.st8{display:none;}
	.st9{display:inline;}
	.st10{display:inline;clip-path:url(#SVGID_4_);fill:#886ED3;stroke:#363636;stroke-width:0.5;stroke-miterlimit:10;}
	
		.st11{display:inline;clip-path:url(#SVGID_4_);fill:none;stroke:#363636;stroke-width:0.5;stroke-linecap:round;stroke-miterlimit:10;}
	.st12{fill:#FFFFFF;}
	.st13{fill:#45D1A4;}
	.st14{fill:#42C193;}
</style>
<g id="Layer_10">
	<g>
		<path class="st0" d="M55.4,64.5v2.6c0,2.6-2,4.7-4.5,4.7h0c-2.5,0-4.5-2.1-4.5-4.7v-2.5l5.2-2.4L55.4,64.5z"/>
		<path class="st0" d="M65.1,46v0.7v4.6c0,7.8-6.3,14.2-14.2,14.2h0c-7.8,0-14.2-6.3-14.2-14.2v-8.5l15.3-13L65.1,46z"/>
		<path class="st1" d="M51.1,60.1c-3.9,0.1-4.9-3.2-4.9-3.2h9.5C55.7,56.9,54.4,60,51.1,60.1z"/>
		<path class="st2" d="M50.9,47.5"/>
		<path class="st2" d="M50.9,47.5"/>
		<g>
			<path class="st3" d="M47.2,47.5c0-1.5-1.3-2.7-2.8-2.7c-1.5,0-2.8,1.2-2.8,2.7"/>
			<path class="st3" d="M60.3,47.5c0-1.5-1.3-2.7-2.8-2.7c-1.5,0-2.8,1.2-2.8,2.7"/>
		</g>
		<path class="st4" d="M62.1,47.5"/>
		<path class="st2" d="M50.9,47.5"/>
		<path class="st2" d="M50.9,64.3"/>
		<path class="st2" d="M50.9,64.3"/>
		<path class="st3" d="M50.9,82.8"/>
		<g>
			<circle class="st5" cx="50.8" cy="51.7" r="38.4"/>
		</g>
		<g>
			<defs>
				<circle id="SVGID_1_" cx="50.8" cy="51.7" r="38.4"/>
			</defs>
			<clipPath id="SVGID_2_">
				<use xlink:href="#SVGID_1_"  style="overflow:visible;"/>
			</clipPath>
			<path class="st6" d="M70.2,90.2c0-0.4,0-3.7-0.1-4c-0.7-9-6.6-16.5-14.4-18.7c-0.2-0.1-0.4,0.1-0.4,0.3c-0.3,2.3-2.2,4-4.4,4
				c-2.3,0-4.1-1.8-4.4-4c0-0.2-0.2-0.3-0.4-0.3c-7.9,2.2-13.9,9.8-14.4,18.9c0,0.3,0,3.5,0,3.8"/>
			<line class="st7" x1="62.7" y1="82.8" x2="62.7" y2="89.9"/>
			<line class="st7" x1="38.8" y1="82.8" x2="38.8" y2="89.9"/>
		</g>
		<g class="st8">
			<defs>
				<circle id="SVGID_3_" cx="51.1" cy="51.5" r="38.4"/>
			</defs>
			<clipPath id="SVGID_4_" class="st9">
				<use xlink:href="#SVGID_3_"  style="overflow:visible;"/>
			</clipPath>
			<path class="st10" d="M70.5,90c0-0.4,0-3.7-0.1-4c-0.7-9-6.6-16.5-14.4-18.7c-0.2-0.1-0.4,0.1-0.4,0.3c-0.3,2.3-2.2,4-4.4,4
				c-2.3,0-4.1-1.8-4.4-4c0-0.2-0.2-0.3-0.4-0.3c-7.9,2.2-13.9,9.8-14.4,18.9c0,0.3,0,3.5,0,3.8"/>
			<line class="st11" x1="63" y1="82.6" x2="63" y2="89.7"/>
			<line class="st11" x1="39.1" y1="82.6" x2="39.1" y2="89.7"/>
		</g>
		<path class="st0" d="M53.5,33c0,0-2.9,4.2-6.9,6.9c-3.9,2.6-12.1,3.2-12.1,3.2s-1.1-4.9,0.1-8c0.8-2.1,2.9-4.7,2.9-4.7
			s-2.1-2.2-2.4-4.8c-0.4-3,1.9-6.8,1.9-6.8s1.4,3.3,4.1,4.7c2.3,1.1,5,1.2,6.3,1.4c2.9,0.5,8.6-1.3,11.4-0.2c2,0.7,2.6,2.2,2.6,2.2
			l0.7,2.2c0,0,5.1,1.8,5.7,7.5c0.6,5.3-0.1,11.4-0.1,11.4s-1-0.8-2.5-1.9c-2.5-1.9-6.3-4.9-8.2-6.7C54.8,37.5,53.5,33,53.5,33z"/>
		<polygon class="st0" points="52.9,83.1 51.9,74.1 50.9,74.1 50.9,74.1 50,74.1 48.9,83.1 50.9,86 		"/>
	</g>
</g>
<g id="Layer_2">
	<circle class="st12" cx="82.1" cy="29.6" r="15"/>
	<path class="st13" d="M91,22.8v5.9c0,5.4-3.7,10.1-8.9,11.4c-5.2-1.3-8.9-6-8.9-11.4v-5.9c4.1-0.5,6.4-2,8.9-3.9
		C84.6,20.8,86.9,22.4,91,22.8z"/>
	<path class="st14" d="M82.1,37.6c-3.9-1.3-6.6-4.9-6.6-9.1v-4c2.8-0.6,4.8-1.7,6.6-3c1.9,1.3,3.9,2.4,6.6,3v4
		C88.8,32.7,86.1,36.4,82.1,37.6z"/>
	<polygon class="st12" points="80.6,32.7 78.5,30.5 79.6,29.4 80.6,30.5 84.7,26.4 85.8,27.6 	"/>
</g>
</svg>
