<?xml version="1.0" encoding="utf-8"?>
<!-- Generator: Adobe Illustrator 22.0.1, SVG Export Plug-In . SVG Version: 6.00 Build 0)  -->
<svg version="1.1" id="Layer_1" xmlns="http://www.w3.org/2000/svg" xmlns:xlink="http://www.w3.org/1999/xlink" x="0px" y="0px"
	 viewBox="0 0 812 805.1" style="enable-background:new 0 0 812 805.1;" xml:space="preserve">
<style type="text/css">
	.st0{clip-path:url(#SVGID_2_);}
	.st1{fill:#45D1A4;}
	.st2{fill:#886ED2;}
	.st3{fill:#363636;}
	.st4{fill:#A182FA;}
	.st5{fill:#FFFFFF;}
</style>
<title>wallet</title>
<g id="Layer_2_1_">
	<g id="Layer_1-2">
		<g id="Layer_1-3">
			<g>
				<g>
					<defs>
						<rect id="SVGID_1_" x="273.4" y="308.4" width="247.6" height="237.6"/>
					</defs>
					<clipPath id="SVGID_2_">
						<use xlink:href="#SVGID_1_"  style="overflow:visible;"/>
					</clipPath>
					<g class="st0">
						<g>
							<path class="st1" d="M331.2,353.7l98.6-26.9l-5.2-10.6c-3.4-6.9-11.7-9.7-18.6-6.3l-88.3,43.8H331.2z"/>
						</g>
						<g>
							<path class="st1" d="M460.5,327.6c-1.2,0-2.5,0.2-3.7,0.5l-23.2,6.3l-70.8,19.3h115.3l-4.3-15.9
								C472.2,331.8,466.7,327.6,460.5,327.6L460.5,327.6z"/>
						</g>
					</g>
				</g>
			</g>
			<g>
				<g>
					<path class="st2" d="M516.3,428.4c-1.4-1.3-3.1-2.3-4.9-2.9c-1.4-0.5-3-0.7-4.5-0.8h-82.8c-7.7,0-13.9,6.2-13.9,13.9l0,0v30.9
						c0,7.7,6.2,13.9,13.9,13.9l0,0h82.8c1.5,0,3.1-0.3,4.5-0.8c1.8-0.6,3.5-1.6,4.9-2.9c2.9-2.6,4.5-6.3,4.5-10.3v-30.9
						C520.8,434.8,519.2,431.1,516.3,428.4L516.3,428.4z M453.1,456.9c0,3.8-3.2,7-7,7h-4.6c-3.8,0-7-3.1-7-7v-4.6
						c0-2.1,1-4.2,2.7-5.5c1.2-1,2.7-1.5,4.3-1.5h4.6c3.8,0,7,3.1,7,7V456.9z"/>
					<path d="M506.9,484.4h-82.8c-8.2,0-14.9-6.7-14.9-14.9v-30.9c0-8.2,6.7-14.9,14.9-14.9h82.8c1.3,0.1,3.2,0.3,4.8,0.9
						c1.9,0.6,3.7,1.7,5.2,3.1h0c3.1,2.9,4.8,6.8,4.8,10.8v30.9c0,4.3-1.7,8.3-4.8,11c-1.5,1.4-3.3,2.5-5.3,3.1
						C510.2,484.1,508.5,484.4,506.9,484.4z M506.8,425.7l-82.7,0c-7.1,0-12.9,5.8-12.9,12.9v30.9c0,7.1,5.8,12.9,12.9,12.9h82.8
						c1.3,0,2.8-0.3,4.2-0.7c1.7-0.6,3.3-1.5,4.6-2.7c2.7-2.4,4.2-5.8,4.2-9.6v-30.9c0-3.5-1.5-6.9-4.2-9.4
						c-1.3-1.2-2.9-2.1-4.5-2.7C509.6,425.9,508,425.8,506.8,425.7z M446.1,464.9h-4.6c-4.4,0-8-3.6-8-8v-4.6c0-2.5,1.2-4.8,3.1-6.3
						c1.3-1.1,3-1.7,4.9-1.7h4.6c4.4,0,8,3.6,8,8v4.6C454.1,461.2,450.4,464.9,446.1,464.9z M441.5,446.3c-1.4,0-2.7,0.4-3.7,1.3
						c-1.5,1.1-2.3,2.9-2.3,4.7v4.6c0,3.3,2.7,6,6,6h4.6c3.3,0,6-2.7,6-6v-4.6c0-3.3-2.7-6-6-6H441.5z"/>
				</g>
			</g>
			<g>
				<path class="st3" d="M396.9,805.1h-0.2v-2h0.2c1.3,0,2.5,0,3.8,0l0,2C399.4,805.1,398.2,805.1,396.9,805.1z M391.6,805.1
					c-1.3,0-2.7,0-4-0.1l0-2c1.3,0,2.7,0.1,4,0.1L391.6,805.1z M405.7,805l0-2c1.3,0,2.7-0.1,4-0.1l0.1,2
					C408.4,804.9,407,805,405.7,805z M382.6,804.8c-1.3-0.1-2.7-0.1-4-0.2l0.1-2c1.3,0.1,2.7,0.1,4,0.2L382.6,804.8z M414.7,804.7
					l-0.1-2c1.3-0.1,2.7-0.1,4-0.2l0.1,2C417.4,804.5,416.1,804.6,414.7,804.7z M373.6,804.4c-1.3-0.1-2.7-0.2-4-0.3l0.1-2
					c1.3,0.1,2.7,0.2,4,0.3L373.6,804.4z M423.7,804.1l-0.1-2c1.3-0.1,2.7-0.2,4-0.3l0.2,2C426.4,803.9,425.1,804,423.7,804.1z
					 M364.5,803.7c-1.3-0.1-2.7-0.2-4-0.4l0.2-2c1.3,0.1,2.7,0.3,4,0.4L364.5,803.7z M432.8,803.3l-0.2-2c1.3-0.1,2.7-0.3,4-0.4
					l0.2,2C435.4,803.1,434.1,803.2,432.8,803.3z M355.5,802.8c-1.3-0.2-2.7-0.3-4-0.5l0.2-2c1.3,0.2,2.6,0.3,4,0.5L355.5,802.8z
					 M441.7,802.3l-0.2-2c1.3-0.2,2.6-0.3,4-0.5l0.3,2C444.4,802,443.1,802.2,441.7,802.3z M346.6,801.6c-1.3-0.2-2.7-0.4-4-0.6
					l0.3-2c1.3,0.2,2.6,0.4,4,0.6L346.6,801.6z M450.7,801.1l-0.3-2c1.3-0.2,2.6-0.4,4-0.6l0.3,2C453.4,800.7,452,800.9,450.7,801.1
					z M337.6,800.3c-1.3-0.2-2.6-0.4-4-0.7l0.3-2c1.3,0.2,2.6,0.5,3.9,0.7L337.6,800.3z M459.6,799.7l-0.3-2
					c1.3-0.2,2.6-0.5,3.9-0.7l0.4,2C462.3,799.2,461,799.4,459.6,799.7z M328.7,798.7c-1.3-0.3-2.6-0.5-3.9-0.8l0.4-2
					c1.3,0.3,2.6,0.5,3.9,0.8L328.7,798.7z M468.5,798l-0.4-2c1.3-0.3,2.6-0.5,3.9-0.8l0.4,2C471.1,797.5,469.8,797.7,468.5,798z
					 M319.9,796.9c-1.3-0.3-2.6-0.6-3.9-0.9l0.4-1.9c1.3,0.3,2.6,0.6,3.9,0.9L319.9,796.9z M477.4,796.1l-0.4-1.9
					c1.3-0.3,2.6-0.6,3.9-0.9l0.5,1.9C480,795.5,478.7,795.8,477.4,796.1z M311.1,794.8c-1.3-0.3-2.6-0.6-3.9-1l0.5-1.9
					c1.3,0.3,2.6,0.7,3.9,1L311.1,794.8z M486.2,794l-0.5-1.9c1.3-0.3,2.6-0.7,3.9-1l0.5,1.9C488.8,793.3,487.5,793.7,486.2,794z
					 M302.3,792.6c-1.3-0.4-2.6-0.7-3.9-1.1l0.5-1.9c1.3,0.4,2.6,0.7,3.9,1.1L302.3,792.6z M494.9,791.6l-0.5-1.9
					c1.3-0.4,2.6-0.7,3.8-1.1l0.6,1.9C497.5,790.9,496.2,791.3,494.9,791.6z M293.6,790.1c-1.3-0.4-2.6-0.8-3.8-1.2l0.6-1.9
					c1.3,0.4,2.5,0.8,3.8,1.2L293.6,790.1z M503.6,789.1l-0.6-1.9c1.3-0.4,2.5-0.8,3.8-1.2l0.6,1.9
					C506.1,788.3,504.8,788.7,503.6,789.1z M284.9,787.4c-1.3-0.4-2.6-0.8-3.8-1.3l0.6-1.9c1.3,0.4,2.5,0.9,3.8,1.3L284.9,787.4z
					 M512.2,786.3l-0.6-1.9c1.3-0.4,2.5-0.9,3.8-1.3l0.7,1.9C514.7,785.4,513.4,785.9,512.2,786.3z M276.3,784.5
					c-1.3-0.4-2.5-0.9-3.8-1.4l0.7-1.9c1.3,0.5,2.5,0.9,3.8,1.4L276.3,784.5z M520.7,783.3l-0.7-1.9c1.3-0.5,2.5-0.9,3.7-1.4
					l0.7,1.9C523.2,782.4,522,782.9,520.7,783.3z M267.8,781.3c-1.3-0.5-2.5-1-3.8-1.5l0.7-1.9c1.2,0.5,2.5,1,3.7,1.5L267.8,781.3z
					 M529.2,780.1l-0.7-1.9c1.2-0.5,2.5-1,3.7-1.5l0.8,1.9C531.7,779.1,530.4,779.6,529.2,780.1z M259.4,778c-1.2-0.5-2.5-1-3.7-1.6
					l0.8-1.8c1.2,0.5,2.5,1,3.7,1.5L259.4,778z M537.5,776.7l-0.8-1.8c1.2-0.5,2.4-1,3.7-1.6l0.8,1.8
					C540,775.6,538.7,776.2,537.5,776.7z M251.1,774.4c-1.2-0.5-2.5-1.1-3.7-1.7l0.8-1.8c1.2,0.6,2.4,1.1,3.7,1.6L251.1,774.4z
					 M545.8,773.1l-0.8-1.8c1.2-0.5,2.4-1.1,3.6-1.7l0.8,1.8C548.2,772,547,772.5,545.8,773.1z M242.8,770.7
					c-1.2-0.6-2.4-1.2-3.6-1.7l0.9-1.8c1.2,0.6,2.4,1.2,3.6,1.7L242.8,770.7z M553.9,769.3l-0.9-1.8c1.2-0.6,2.4-1.2,3.6-1.8
					l0.9,1.8C556.3,768.1,555.1,768.7,553.9,769.3z M234.7,766.7c-1.2-0.6-2.4-1.2-3.6-1.8l0.9-1.8c1.2,0.6,2.4,1.2,3.6,1.8
					L234.7,766.7z M562,765.2l-0.9-1.8c1.2-0.6,2.4-1.2,3.5-1.8l0.9,1.8C564.4,764,563.2,764.6,562,765.2z M226.6,762.5
					c-1.2-0.6-2.4-1.3-3.5-1.9l1-1.8c1.2,0.6,2.3,1.3,3.5,1.9L226.6,762.5z M570,761l-1-1.8c1.2-0.6,2.3-1.3,3.5-1.9l1,1.7
					C572.3,759.7,571.1,760.4,570,761z M218.7,758.1c-1.2-0.7-2.3-1.3-3.5-2l1-1.7c1.2,0.7,2.3,1.3,3.5,2L218.7,758.1z M577.8,756.6
					l-1-1.7c1.2-0.7,2.3-1.3,3.4-2l1,1.7C580.1,755.2,579,755.9,577.8,756.6z M210.9,753.5c-1.2-0.7-2.3-1.4-3.4-2.1l1.1-1.7
					c1.1,0.7,2.3,1.4,3.4,2.1L210.9,753.5z M585.6,751.9l-1-1.7c1.1-0.7,2.3-1.4,3.4-2.1l1.1,1.7
					C587.8,750.5,586.7,751.2,585.6,751.9z M203.2,748.8c-1.1-0.7-2.3-1.4-3.4-2.2l1.1-1.7c1.1,0.7,2.2,1.5,3.4,2.2L203.2,748.8z
					 M593.2,747.1l-1.1-1.7c1.1-0.7,2.2-1.5,3.3-2.2l1.1,1.7C595.4,745.7,594.3,746.4,593.2,747.1z M195.6,743.8
					c-1.1-0.8-2.2-1.5-3.3-2.3l1.1-1.6c1.1,0.8,2.2,1.5,3.3,2.3L195.6,743.8z M600.7,742.1l-1.1-1.6c1.1-0.8,2.2-1.5,3.3-2.3
					l1.1,1.6C602.9,740.6,601.8,741.4,600.7,742.1z M188.1,738.7c-1.1-0.8-2.2-1.6-3.3-2.3l1.2-1.6c1.1,0.8,2.2,1.6,3.3,2.3
					L188.1,738.7z M608.1,736.9l-1.2-1.6c1.1-0.8,2.2-1.6,3.2-2.4l1.2,1.6C610.2,735.3,609.2,736.1,608.1,736.9z M180.8,733.3
					c-1.1-0.8-2.1-1.6-3.2-2.4l1.2-1.6c1.1,0.8,2.1,1.6,3.2,2.4L180.8,733.3z M615.3,731.5l-1.2-1.6c1.1-0.8,2.1-1.6,3.2-2.4
					l1.2,1.6C617.5,729.9,616.4,730.7,615.3,731.5z M173.6,727.8c-1.1-0.8-2.1-1.7-3.1-2.5l1.3-1.6c1,0.8,2.1,1.7,3.1,2.5
					L173.6,727.8z M622.5,726l-1.3-1.6c1-0.8,2.1-1.7,3.1-2.5l1.3,1.5C624.5,724.3,623.5,725.1,622.5,726z M166.6,722.1
					c-1-0.9-2.1-1.7-3.1-2.6l1.3-1.5c1,0.9,2,1.7,3.1,2.6L166.6,722.1z M629.4,720.2l-1.3-1.5c1-0.9,2-1.7,3-2.6l1.3,1.5
					C631.5,718.5,630.5,719.4,629.4,720.2z M159.7,716.3c-1-0.9-2-1.8-3-2.7l1.3-1.5c1,0.9,2,1.8,3,2.6L159.7,716.3z M636.3,714.3
					l-1.3-1.5c1-0.9,2-1.8,3-2.7l1.3,1.5C638.3,712.6,637.3,713.4,636.3,714.3z M153,710.2c-1-0.9-2-1.8-2.9-2.7l1.4-1.5
					c1,0.9,1.9,1.8,2.9,2.7L153,710.2z M643,708.3l-1.4-1.5c1-0.9,1.9-1.8,2.9-2.7l1.4,1.4C644.9,706.4,643.9,707.3,643,708.3z
					 M146.4,704c-1-0.9-1.9-1.9-2.9-2.8l1.4-1.4c0.9,0.9,1.9,1.9,2.9,2.8L146.4,704z M649.5,702l-1.4-1.4c1-0.9,1.9-1.9,2.8-2.8
					l1.4,1.4C651.4,700.1,650.4,701.1,649.5,702z M140,697.7c-0.9-1-1.9-1.9-2.8-2.9l1.4-1.4c0.9,1,1.9,1.9,2.8,2.9L140,697.7z
					 M655.9,695.6l-1.4-1.4c0.9-1,1.9-1.9,2.8-2.9l1.4,1.4C657.7,693.7,656.8,694.6,655.9,695.6z M133.7,691.2c-0.9-1-1.8-2-2.7-2.9
					l1.5-1.4c0.9,1,1.8,2,2.7,2.9L133.7,691.2z M662.1,689l-1.5-1.4c0.9-1,1.8-2,2.7-3l1.5,1.3C663.9,687.1,663,688.1,662.1,689z
					 M127.6,684.5c-0.9-1-1.8-2-2.7-3l1.5-1.3c0.9,1,1.8,2,2.6,3L127.6,684.5z M668.1,682.3l-1.5-1.3c0.9-1,1.8-2,2.6-3l1.5,1.3
					C669.9,680.3,669,681.3,668.1,682.3z M121.6,677.7c-0.9-1-1.7-2-2.6-3.1l1.5-1.3c0.9,1,1.7,2,2.6,3.1L121.6,677.7z M674,675.5
					l-1.5-1.3c0.9-1,1.7-2.1,2.5-3.1l1.5,1.3C675.7,673.4,674.9,674.4,674,675.5z M115.9,670.7c-0.8-1-1.7-2.1-2.5-3.1l1.6-1.2
					c0.8,1,1.7,2.1,2.5,3.1L115.9,670.7z M679.7,668.4l-1.6-1.2c0.8-1,1.7-2.1,2.5-3.1l1.6,1.2C681.4,666.3,680.6,667.4,679.7,668.4
					z M110.3,663.6c-0.8-1.1-1.6-2.1-2.4-3.2l1.6-1.2c0.8,1.1,1.6,2.1,2.4,3.2L110.3,663.6z M685.3,661.3l-1.6-1.2
					c0.8-1.1,1.6-2.1,2.4-3.2l1.6,1.2C686.9,659.1,686.1,660.2,685.3,661.3z M104.9,656.4c-0.8-1.1-1.6-2.2-2.3-3.3l1.6-1.2
					c0.8,1.1,1.5,2.2,2.3,3.2L104.9,656.4z M690.7,654l-1.6-1.2c0.8-1.1,1.5-2.2,2.3-3.3l1.6,1.1C692.2,651.8,691.4,652.9,690.7,654
					z M99.7,649c-0.8-1.1-1.5-2.2-2.3-3.3l1.7-1.1c0.7,1.1,1.5,2.2,2.3,3.3L99.7,649z M695.8,646.6l-1.7-1.1
					c0.8-1.1,1.5-2.2,2.2-3.3l1.7,1.1C697.3,644.3,696.6,645.4,695.8,646.6z M94.6,641.5c-0.7-1.1-1.5-2.2-2.2-3.4l1.7-1.1
					c0.7,1.1,1.4,2.2,2.2,3.3L94.6,641.5z M700.8,639l-1.7-1.1c0.7-1.1,1.4-2.2,2.1-3.4l1.7,1.1C702.3,636.7,701.5,637.9,700.8,639z
					 M89.8,633.9c-0.7-1.1-1.4-2.3-2.1-3.4l1.7-1c0.7,1.1,1.4,2.3,2.1,3.4L89.8,633.9z M705.6,631.3l-1.7-1c0.7-1.1,1.4-2.3,2.1-3.4
					l1.7,1C707,629,706.3,630.2,705.6,631.3z M85.1,626.2c-0.7-1.2-1.3-2.3-2-3.5l1.7-1c0.7,1.2,1.3,2.3,2,3.5L85.1,626.2z
					 M710.2,623.5l-1.7-1c0.7-1.2,1.3-2.3,2-3.5l1.7,1C711.6,621.2,710.9,622.4,710.2,623.5z M80.7,618.4c-0.6-1.2-1.3-2.3-1.9-3.5
					l1.8-0.9c0.6,1.2,1.3,2.3,1.9,3.5L80.7,618.4z M714.6,615.6l-1.8-1c0.6-1.2,1.3-2.4,1.9-3.5l1.8,0.9
					C715.9,613.2,715.3,614.4,714.6,615.6z M76.4,610.4c-0.6-1.2-1.2-2.4-1.8-3.6l1.8-0.9c0.6,1.2,1.2,2.4,1.8,3.5L76.4,610.4z
					 M718.8,607.6l-1.8-0.9c0.6-1.2,1.2-2.4,1.8-3.6l1.8,0.9C720.1,605.2,719.5,606.4,718.8,607.6z M72.4,602.4
					c-0.6-1.2-1.2-2.4-1.7-3.6l1.8-0.9c0.6,1.2,1.1,2.4,1.7,3.6L72.4,602.4z M722.9,599.4l-1.8-0.9c0.6-1.2,1.1-2.4,1.7-3.6l1.8,0.8
					C724,597,723.4,598.2,722.9,599.4z M68.5,594.2c-0.6-1.2-1.1-2.4-1.6-3.7l1.8-0.8c0.5,1.2,1.1,2.4,1.6,3.6L68.5,594.2z
					 M726.7,591.2l-1.8-0.8c0.5-1.2,1.1-2.4,1.6-3.7l1.8,0.8C727.8,588.8,727.2,590,726.7,591.2z M64.9,586c-0.5-1.2-1-2.5-1.6-3.7
					l1.8-0.8c0.5,1.2,1,2.5,1.5,3.7L64.9,586z M730.3,582.9l-1.8-0.8c0.5-1.2,1-2.5,1.5-3.7l1.9,0.7
					C731.3,580.4,730.8,581.6,730.3,582.9z M61.4,577.6c-0.5-1.2-1-2.5-1.5-3.7l1.9-0.7c0.5,1.2,1,2.5,1.5,3.7L61.4,577.6z
					 M733.6,574.5l-1.9-0.7c0.5-1.2,1-2.5,1.4-3.8l1.9,0.7C734.6,572,734.1,573.2,733.6,574.5z M58.2,569.2
					c-0.5-1.3-0.9-2.5-1.4-3.8l1.9-0.7c0.4,1.3,0.9,2.5,1.4,3.8L58.2,569.2z M736.8,566l-1.9-0.7c0.5-1.3,0.9-2.5,1.3-3.8l1.9,0.7
					C737.7,563.4,737.3,564.7,736.8,566z M55.1,560.7c-0.4-1.3-0.9-2.5-1.3-3.8l1.9-0.6c0.4,1.3,0.8,2.5,1.3,3.8L55.1,560.7z
					 M739.8,557.4l-1.9-0.6c0.4-1.3,0.8-2.5,1.2-3.8l1.9,0.6C740.6,554.8,740.2,556.1,739.8,557.4z M52.3,552.1
					c-0.4-1.3-0.8-2.6-1.2-3.8l1.9-0.6c0.4,1.3,0.8,2.6,1.2,3.8L52.3,552.1z M742.5,548.7l-1.9-0.6c0.4-1.3,0.8-2.6,1.1-3.8l1.9,0.6
					C743.3,546.1,742.9,547.4,742.5,548.7z M49.7,543.4c-0.4-1.3-0.7-2.6-1.1-3.9l1.9-0.5c0.4,1.3,0.7,2.6,1.1,3.9L49.7,543.4z
					 M745,540l-1.9-0.5c0.4-1.3,0.7-2.6,1-3.9l1.9,0.5C745.7,537.4,745.4,538.7,745,540z M47.4,534.7c-0.3-1.3-0.7-2.6-1-3.9
					l1.9-0.5c0.3,1.3,0.6,2.6,1,3.9L47.4,534.7z M747.3,531.3l-1.9-0.5c0.3-1.3,0.6-2.6,0.9-3.9l1.9,0.5
					C747.9,528.7,747.6,530,747.3,531.3z M45.2,525.9c-0.3-1.3-0.6-2.6-0.9-3.9l2-0.4c0.3,1.3,0.6,2.6,0.9,3.9L45.2,525.9z
					 M749.4,522.5l-2-0.4c0.3-1.3,0.6-2.6,0.8-3.9l2,0.4C749.9,519.9,749.7,521.2,749.4,522.5z M43.3,517.1
					c-0.3-1.3-0.5-2.6-0.8-3.9l2-0.4c0.3,1.3,0.5,2.6,0.8,3.9L43.3,517.1z M751.2,513.6l-2-0.4c0.3-1.3,0.5-2.6,0.7-3.9l2,0.4
					C751.7,511,751.5,512.3,751.2,513.6z M41.6,508.2c-0.2-1.3-0.5-2.6-0.7-4l2-0.3c0.2,1.3,0.4,2.6,0.7,3.9L41.6,508.2z
					 M752.8,504.7l-2-0.3c0.2-1.3,0.4-2.6,0.6-3.9l2,0.3C753.3,502.1,753.1,503.4,752.8,504.7z M40.1,499.3c-0.2-1.3-0.4-2.6-0.6-4
					l2-0.3c0.2,1.3,0.4,2.6,0.6,4L40.1,499.3z M754.2,495.8l-2-0.3c0.2-1.3,0.4-2.6,0.5-4l2,0.3
					C754.6,493.1,754.4,494.5,754.2,495.8z M38.8,490.3c-0.2-1.3-0.3-2.7-0.5-4l2-0.2c0.2,1.3,0.3,2.6,0.5,4L38.8,490.3z
					 M755.4,486.8l-2-0.2c0.2-1.3,0.3-2.6,0.4-4l2,0.2C755.7,484.2,755.6,485.5,755.4,486.8z M37.8,481.3c-0.1-1.3-0.3-2.7-0.4-4
					l2-0.2c0.1,1.3,0.3,2.7,0.4,4L37.8,481.3z M756.3,477.8l-2-0.2c0.1-1.3,0.2-2.7,0.3-4l2,0.2
					C756.6,475.2,756.5,476.5,756.3,477.8z M37,472.3c-0.1-1.3-0.2-2.7-0.3-4l2-0.1c0.1,1.3,0.2,2.7,0.3,4L37,472.3z M757.1,468.8
					l-2-0.1c0.1-1.3,0.2-2.7,0.2-4l2,0.1C757.2,466.1,757.2,467.5,757.1,468.8z M36.4,463.3c-0.1-1.3-0.1-2.7-0.2-4l2-0.1
					c0.1,1.3,0.1,2.7,0.2,4L36.4,463.3z M757.6,459.8l-2-0.1c0.1-1.3,0.1-2.7,0.1-4l2,0.1C757.7,457.1,757.6,458.4,757.6,459.8z
					 M36,454.3c0-1.3-0.1-2.7-0.1-4l2,0c0,1.3,0.1,2.7,0.1,4L36,454.3z M757.8,450.7l-2,0c0-1.3,0-2.7,0-4l2,0
					C757.9,448.1,757.9,449.4,757.8,450.7z M35.9,445.2l0-1.1c0-1,0-1.9,0-2.9l2,0c0,1,0,1.9,0,2.9l0,1.1L35.9,445.2z M755.9,441.7
					c0-1.3,0-2.7,0-4l2,0c0,1.3,0,2.7,0,4L755.9,441.7z M38,436.2l-2,0c0-1.3,0.1-2.7,0.1-4l2,0.1C38,433.6,38,434.9,38,436.2z
					 M755.7,432.7c0-1.3-0.1-2.7-0.1-4l2-0.1c0.1,1.3,0.1,2.7,0.1,4L755.7,432.7z M38.3,427.3l-2-0.1c0.1-1.3,0.1-2.7,0.2-4l2,0.1
					C38.4,424.6,38.3,425.9,38.3,427.3z M755.3,423.8c-0.1-1.3-0.2-2.7-0.2-4l2-0.1c0.1,1.3,0.2,2.7,0.2,4L755.3,423.8z M38.8,418.3
					l-2-0.1c0.1-1.3,0.2-2.7,0.3-4l2,0.2C39,415.6,38.9,416.9,38.8,418.3z M754.7,414.8c-0.1-1.3-0.2-2.7-0.3-4l2-0.2
					c0.1,1.3,0.2,2.7,0.3,4L754.7,414.8z M39.6,409.3l-2-0.2c0.1-1.3,0.3-2.7,0.4-4l2,0.2C39.8,406.7,39.7,408,39.6,409.3z
					 M753.9,405.8c-0.1-1.3-0.3-2.7-0.4-4l2-0.2c0.2,1.3,0.3,2.7,0.4,4L753.9,405.8z M40.5,400.4l-2-0.2c0.2-1.3,0.3-2.7,0.5-4
					l2,0.3C40.9,397.7,40.7,399,40.5,400.4z M752.8,396.9c-0.2-1.3-0.4-2.6-0.5-4l2-0.3c0.2,1.3,0.4,2.7,0.5,4L752.8,396.9z
					 M41.7,391.5l-2-0.3c0.2-1.3,0.4-2.7,0.6-4l2,0.3C42.1,388.8,41.9,390.1,41.7,391.5z M751.5,388c-0.2-1.3-0.4-2.6-0.6-3.9l2-0.3
					c0.2,1.3,0.4,2.6,0.6,4L751.5,388z M43.2,382.6l-2-0.3c0.2-1.3,0.5-2.6,0.7-4l2,0.4C43.6,379.9,43.4,381.3,43.2,382.6z
					 M750,379.1c-0.2-1.3-0.5-2.6-0.7-3.9l2-0.4c0.3,1.3,0.5,2.6,0.7,4L750,379.1z M44.8,373.7l-2-0.4c0.3-1.3,0.5-2.6,0.8-3.9
					l2,0.4C45.3,371.1,45.1,372.4,44.8,373.7z M748.3,370.3c-0.3-1.3-0.6-2.6-0.8-3.9l2-0.4c0.3,1.3,0.6,2.6,0.8,3.9L748.3,370.3z
					 M46.7,364.9l-2-0.4c0.3-1.3,0.6-2.6,0.9-3.9l1.9,0.5C47.3,362.3,47,363.6,46.7,364.9z M746.4,361.5c-0.3-1.3-0.6-2.6-0.9-3.9
					l1.9-0.5c0.3,1.3,0.6,2.6,0.9,3.9L746.4,361.5z M48.7,356.2l-1.9-0.5c0.3-1.3,0.7-2.6,1-3.9l1.9,0.5
					C49.4,353.6,49.1,354.9,48.7,356.2z M744.2,352.8c-0.3-1.3-0.7-2.6-1-3.9l1.9-0.5c0.4,1.3,0.7,2.6,1,3.9L744.2,352.8z M51,347.5
					l-1.9-0.5c0.4-1.3,0.7-2.6,1.1-3.9l1.9,0.6C51.8,344.9,51.4,346.2,51,347.5z M741.8,344.1c-0.4-1.3-0.7-2.6-1.1-3.8l1.9-0.6
					c0.4,1.3,0.8,2.6,1.1,3.9L741.8,344.1z M53.6,338.9l-1.9-0.6c0.4-1.3,0.8-2.6,1.2-3.9l1.9,0.6C54.4,336.3,54,337.6,53.6,338.9z
					 M739.2,335.5c-0.4-1.3-0.8-2.5-1.2-3.8l1.9-0.6c0.4,1.3,0.8,2.5,1.2,3.8L739.2,335.5z M56.3,330.3l-1.9-0.6
					c0.4-1.3,0.9-2.6,1.3-3.8l1.9,0.7C57.2,327.7,56.7,329,56.3,330.3z M736.4,327c-0.4-1.3-0.9-2.5-1.3-3.8l1.9-0.7
					c0.5,1.3,0.9,2.5,1.3,3.8L736.4,327z M59.3,321.7l-1.9-0.7c0.5-1.3,0.9-2.5,1.4-3.8l1.9,0.7C60.2,319.2,59.8,320.5,59.3,321.7z
					 M733.3,318.5c-0.5-1.2-0.9-2.5-1.4-3.7l1.9-0.7c0.5,1.2,1,2.5,1.4,3.8L733.3,318.5z M62.5,313.3l-1.9-0.7
					c0.5-1.3,1-2.5,1.5-3.7l1.9,0.8C63.5,310.8,63,312,62.5,313.3z M730.1,310.1c-0.5-1.2-1-2.5-1.5-3.7l1.8-0.8
					c0.5,1.2,1,2.5,1.5,3.7L730.1,310.1z M65.9,304.9l-1.8-0.8c0.5-1.2,1.1-2.5,1.6-3.7l1.8,0.8C66.9,302.5,66.4,303.7,65.9,304.9z
					 M726.6,301.9c-0.5-1.2-1.1-2.4-1.6-3.6l1.8-0.8c0.5,1.2,1.1,2.4,1.6,3.7L726.6,301.9z M69.5,296.7l-1.8-0.8
					c0.6-1.2,1.1-2.4,1.7-3.7l1.8,0.8C70.6,294.2,70,295.4,69.5,296.7z M723,293.7c-0.6-1.2-1.1-2.4-1.7-3.6l1.8-0.9
					c0.6,1.2,1.1,2.4,1.7,3.6L723,293.7z M73.3,288.5l-1.8-0.9c0.6-1.2,1.2-2.4,1.8-3.6l1.8,0.9C74.5,286.1,73.9,287.3,73.3,288.5z
					 M719.1,285.6c-0.6-1.2-1.2-2.4-1.8-3.6l1.8-0.9c0.6,1.2,1.2,2.4,1.8,3.6L719.1,285.6z M77.3,280.4l-1.8-0.9
					c0.6-1.2,1.2-2.4,1.9-3.6l1.8,0.9C78.5,278,77.9,279.2,77.3,280.4z M715,277.6c-0.6-1.2-1.2-2.4-1.9-3.5l1.8-0.9
					c0.6,1.2,1.3,2.4,1.9,3.5L715,277.6z M81.5,272.4l-1.8-1c0.6-1.2,1.3-2.4,1.9-3.5l1.7,1C82.8,270.1,82.2,271.3,81.5,272.4z
					 M710.8,269.7c-0.6-1.2-1.3-2.3-2-3.5l1.7-1c0.7,1.2,1.3,2.3,2,3.5L710.8,269.7z M85.9,264.6l-1.7-1c0.7-1.2,1.4-2.3,2-3.5
					l1.7,1C87.3,262.3,86.6,263.4,85.9,264.6z M706.3,261.9c-0.7-1.1-1.4-2.3-2-3.4l1.7-1c0.7,1.1,1.4,2.3,2.1,3.4L706.3,261.9z
					 M90.5,256.8l-1.7-1c0.7-1.1,1.4-2.3,2.1-3.4l1.7,1.1C91.9,254.6,91.2,255.7,90.5,256.8z M701.7,254.3c-0.7-1.1-1.4-2.3-2.1-3.4
					l1.7-1.1c0.7,1.1,1.4,2.3,2.1,3.4L701.7,254.3z M95.3,249.2l-1.7-1.1c0.7-1.1,1.5-2.2,2.2-3.4l1.7,1.1
					C96.8,247,96.1,248.1,95.3,249.2z M696.8,246.7c-0.7-1.1-1.5-2.2-2.2-3.3l1.7-1.1c0.7,1.1,1.5,2.2,2.2,3.3L696.8,246.7z
					 M100.3,241.7l-1.7-1.1c0.8-1.1,1.5-2.2,2.3-3.3l1.6,1.1C101.8,239.5,101.1,240.6,100.3,241.7z M691.8,239.3
					c-0.8-1.1-1.5-2.2-2.3-3.3l1.6-1.2c0.8,1.1,1.5,2.2,2.3,3.3L691.8,239.3z M105.5,234.4l-1.6-1.2c0.8-1.1,1.6-2.2,2.4-3.3
					l1.6,1.2C107.1,232.2,106.3,233.3,105.5,234.4z M686.6,232c-0.8-1.1-1.6-2.1-2.4-3.2l1.6-1.2c0.8,1.1,1.6,2.1,2.4,3.2L686.6,232
					z M110.9,227.1l-1.6-1.2c0.8-1.1,1.6-2.1,2.5-3.2l1.6,1.2C112.5,225,111.7,226.1,110.9,227.1z M681.2,224.8
					c-0.8-1.1-1.6-2.1-2.5-3.1l1.6-1.2c0.8,1,1.7,2.1,2.5,3.2L681.2,224.8z M116.4,220l-1.6-1.2c0.8-1,1.7-2.1,2.5-3.1l1.5,1.3
					C118.1,217.9,117.2,219,116.4,220z M675.6,217.8c-0.8-1-1.7-2.1-2.5-3.1l1.5-1.3c0.9,1,1.7,2.1,2.6,3.1L675.6,217.8z
					 M122.1,213.1l-1.5-1.3c0.9-1,1.7-2,2.6-3.1l1.5,1.3C123.8,211,123,212.1,122.1,213.1z M669.8,210.9c-0.9-1-1.7-2-2.6-3l1.5-1.3
					c0.9,1,1.8,2,2.6,3L669.8,210.9z M128,206.3l-1.5-1.3c0.9-1,1.8-2,2.7-3l1.5,1.3C129.8,204.3,128.9,205.3,128,206.3z
					 M663.9,204.1c-0.9-1-1.8-2-2.7-3l1.5-1.4c0.9,1,1.8,2,2.7,3L663.9,204.1z M134,199.6l-1.5-1.4c0.9-1,1.8-2,2.8-2.9l1.4,1.4
					C135.9,197.7,134.9,198.6,134,199.6z M657.8,197.5c-0.9-1-1.8-1.9-2.8-2.9l1.4-1.4c0.9,1,1.9,1.9,2.8,2.9L657.8,197.5z
					 M140.2,193.1l-1.4-1.4c0.9-1,1.9-1.9,2.8-2.9l1.4,1.4C142.1,191.2,141.2,192.1,140.2,193.1z M651.5,191
					c-0.9-0.9-1.9-1.9-2.8-2.8l1.4-1.4c1,0.9,1.9,1.9,2.8,2.8L651.5,191z M146.6,186.7l-1.4-1.4c1-0.9,1.9-1.9,2.9-2.8l1.4,1.4
					C148.5,184.9,147.6,185.8,146.6,186.7z M645.1,184.7c-1-0.9-1.9-1.8-2.9-2.7l1.4-1.5c1,0.9,2,1.8,2.9,2.8L645.1,184.7z
					 M153.1,180.6l-1.4-1.5c1-0.9,2-1.8,3-2.7l1.3,1.5C155.1,178.8,154.1,179.7,153.1,180.6z M638.6,178.6c-1-0.9-2-1.8-3-2.7
					l1.3-1.5c1,0.9,2,1.8,3,2.7L638.6,178.6z M159.8,174.5l-1.3-1.5c1-0.9,2-1.8,3-2.6l1.3,1.5C161.8,172.8,160.8,173.7,159.8,174.5
					z M631.8,172.6c-1-0.9-2-1.7-3-2.6l1.3-1.5c1,0.9,2,1.7,3.1,2.6L631.8,172.6z M166.6,168.7l-1.3-1.5c1-0.9,2.1-1.7,3.1-2.6
					l1.3,1.5C168.7,167,167.6,167.8,166.6,168.7z M625,166.8c-1-0.8-2.1-1.7-3.1-2.5l1.3-1.6c1,0.8,2.1,1.7,3.1,2.5L625,166.8z
					 M173.6,163l-1.2-1.6c1-0.8,2.1-1.7,3.2-2.5l1.2,1.6C175.7,161.3,174.6,162.2,173.6,163z M617.9,161.2c-1.1-0.8-2.1-1.6-3.2-2.4
					l1.2-1.6c1.1,0.8,2.1,1.6,3.2,2.5L617.9,161.2z M180.7,157.5l-1.2-1.6c1.1-0.8,2.1-1.6,3.2-2.4l1.2,1.6
					C182.8,155.9,181.7,156.7,180.7,157.5z M610.8,155.7c-1.1-0.8-2.1-1.6-3.2-2.4l1.2-1.6c1.1,0.8,2.2,1.6,3.2,2.4L610.8,155.7z
					 M187.9,152.2l-1.2-1.6c1.1-0.8,2.2-1.6,3.3-2.3l1.1,1.6C190.1,150.6,189,151.4,187.9,152.2z M603.5,150.5
					c-1.1-0.8-2.2-1.5-3.3-2.3l1.1-1.6c1.1,0.8,2.2,1.5,3.3,2.3L603.5,150.5z M195.3,147l-1.1-1.7c1.1-0.8,2.2-1.5,3.3-2.2l1.1,1.7
					C197.5,145.5,196.4,146.3,195.3,147z M596.1,145.4c-1.1-0.7-2.2-1.5-3.3-2.2l1.1-1.7c1.1,0.7,2.2,1.5,3.4,2.2L596.1,145.4z
					 M202.8,142.1l-1.1-1.7c1.1-0.7,2.3-1.4,3.4-2.2l1.1,1.7C205,140.6,203.9,141.4,202.8,142.1z M588.5,140.5
					c-1.1-0.7-2.3-1.4-3.4-2.1l1.1-1.7c1.1,0.7,2.3,1.4,3.4,2.1L588.5,140.5z M210.4,137.3l-1-1.7c1.1-0.7,2.3-1.4,3.4-2.1l1,1.7
					C212.6,135.9,211.5,136.6,210.4,137.3z M580.8,135.7c-1.1-0.7-2.3-1.4-3.4-2l1-1.7c1.2,0.7,2.3,1.4,3.5,2L580.8,135.7z
					 M218.1,132.7l-1-1.7c1.2-0.7,2.3-1.3,3.5-2l1,1.7C220.4,131.4,219.2,132.1,218.1,132.7z M573,131.2c-1.2-0.7-2.3-1.3-3.5-1.9
					l1-1.8c1.2,0.6,2.4,1.3,3.5,2L573,131.2z M225.9,128.4l-1-1.8c1.2-0.6,2.4-1.3,3.5-1.9l0.9,1.8
					C228.2,127.1,227.1,127.7,225.9,128.4z M565.1,126.9c-1.2-0.6-2.4-1.2-3.5-1.9l0.9-1.8c1.2,0.6,2.4,1.2,3.6,1.9L565.1,126.9z
					 M233.8,124.2l-0.9-1.8c1.2-0.6,2.4-1.2,3.6-1.8l0.9,1.8C236.2,123,235,123.6,233.8,124.2z M557.1,122.8
					c-1.2-0.6-2.4-1.2-3.6-1.8l0.9-1.8c1.2,0.6,2.4,1.2,3.6,1.8L557.1,122.8z M241.9,120.2l-0.9-1.8c1.2-0.6,2.4-1.1,3.6-1.7
					l0.8,1.8C244.3,119.1,243.1,119.6,241.9,120.2z M549,118.8c-1.2-0.6-2.4-1.1-3.6-1.7l0.8-1.8c1.2,0.6,2.4,1.1,3.7,1.7L549,118.8
					z M250,116.4l-0.8-1.8c1.2-0.5,2.4-1.1,3.7-1.6l0.8,1.8C252.4,115.4,251.2,115.9,250,116.4z M540.8,115.1
					c-1.2-0.5-2.5-1.1-3.7-1.6l0.8-1.8c1.2,0.5,2.5,1.1,3.7,1.6L540.8,115.1z M258.2,112.9l-0.8-1.8c1.2-0.5,2.5-1,3.7-1.5l0.8,1.9
					C260.7,111.9,259.4,112.4,258.2,112.9z M532.5,111.6c-1.2-0.5-2.5-1-3.7-1.5l0.7-1.9c1.3,0.5,2.5,1,3.7,1.5L532.5,111.6z
					 M266.5,109.5l-0.7-1.9c1.2-0.5,2.5-1,3.8-1.4l0.7,1.9C269,108.5,267.8,109,266.5,109.5z M524.1,108.3c-1.3-0.5-2.5-0.9-3.8-1.4
					l0.7-1.9c1.3,0.5,2.5,0.9,3.8,1.4L524.1,108.3z M275,106.3l-0.7-1.9c1.3-0.5,2.5-0.9,3.8-1.3l0.7,1.9
					C277.5,105.4,276.2,105.9,275,106.3z M515.6,105.2c-1.3-0.4-2.5-0.9-3.8-1.3l0.6-1.9c1.3,0.4,2.5,0.9,3.8,1.3L515.6,105.2z
					 M283.4,103.4l-0.6-1.9c1.3-0.4,2.5-0.8,3.8-1.2l0.6,1.9C286,102.6,284.7,103,283.4,103.4z M507.1,102.3
					c-1.3-0.4-2.6-0.8-3.8-1.2l0.6-1.9c1.3,0.4,2.6,0.8,3.9,1.2L507.1,102.3z M292,100.7l-0.6-1.9c1.3-0.4,2.6-0.8,3.9-1.2l0.6,1.9
					C294.6,99.9,293.3,100.3,292,100.7z M498.4,99.7c-1.3-0.4-2.6-0.7-3.8-1.1l0.5-1.9c1.3,0.4,2.6,0.7,3.9,1.1L498.4,99.7z
					 M300.7,98.1l-0.5-1.9c1.3-0.4,2.6-0.7,3.9-1.1l0.5,1.9C303.2,97.4,301.9,97.8,300.7,98.1z M489.8,97.2c-1.3-0.3-2.6-0.7-3.9-1
					l0.5-1.9c1.3,0.3,2.6,0.7,3.9,1L489.8,97.2z M309.3,95.9l-0.5-1.9c1.3-0.3,2.6-0.6,3.9-1l0.5,1.9
					C311.9,95.2,310.6,95.5,309.3,95.9z M481.1,95c-1.3-0.3-2.6-0.6-3.9-0.9l0.4-2c1.3,0.3,2.6,0.6,3.9,0.9L481.1,95z M318.1,93.8
					l-0.4-2c1.3-0.3,2.6-0.6,3.9-0.9l0.4,2C320.7,93.2,319.4,93.5,318.1,93.8z M472.3,93c-1.3-0.3-2.6-0.5-3.9-0.8l0.4-2
					c1.3,0.3,2.6,0.5,3.9,0.8L472.3,93z M326.9,91.9l-0.4-2c1.3-0.3,2.6-0.5,3.9-0.8l0.4,2C329.5,91.4,328.2,91.7,326.9,91.9z
					 M463.5,91.3c-1.3-0.2-2.6-0.5-3.9-0.7l0.3-2c1.3,0.2,2.6,0.5,4,0.7L463.5,91.3z M335.7,90.3l-0.3-2c1.3-0.2,2.6-0.4,4-0.7
					l0.3,2C338.4,89.8,337.1,90.1,335.7,90.3z M454.6,89.7c-1.3-0.2-2.6-0.4-4-0.6l0.3-2c1.3,0.2,2.7,0.4,4,0.6L454.6,89.7z
					 M344.6,88.9l-0.3-2c1.3-0.2,2.7-0.4,4-0.6l0.3,2C347.3,88.5,345.9,88.7,344.6,88.9z M445.7,88.4c-1.3-0.2-2.6-0.4-4-0.5l0.2-2
					c1.3,0.2,2.7,0.3,4,0.5L445.7,88.4z M353.5,87.7l-0.2-2c1.3-0.2,2.7-0.3,4-0.5l0.2,2C356.2,87.4,354.9,87.5,353.5,87.7z
					 M436.8,87.3c-1.3-0.1-2.6-0.3-4-0.4l0.2-2c1.3,0.1,2.7,0.3,4,0.4L436.8,87.3z M362.5,86.7l-0.2-2c1.3-0.1,2.7-0.2,4-0.4l0.2,2
					C365.1,86.5,363.8,86.6,362.5,86.7z M427.8,86.4c-1.3-0.1-2.7-0.2-4-0.3l0.1-2c1.3,0.1,2.7,0.2,4,0.3L427.8,86.4z M371.4,86
					l-0.1-2c1.3-0.1,2.7-0.2,4-0.3l0.1,2C374.1,85.8,372.8,85.9,371.4,86z M418.9,85.8c-1.3-0.1-2.7-0.2-4-0.2l0.1-2
					c1.3,0.1,2.7,0.1,4,0.2L418.9,85.8z M380.4,85.5l-0.1-2c1.3-0.1,2.7-0.1,4-0.2l0.1,2C383.1,85.4,381.8,85.4,380.4,85.5z
					 M409.9,85.3c-1.3,0-2.7-0.1-4-0.1l0-2c1.3,0,2.7,0.1,4,0.1L409.9,85.3z M389.4,85.2l0-2c1.3,0,2.7,0,4-0.1l0,2
					C392.1,85.1,390.7,85.1,389.4,85.2z M400.9,85.1c-1.3,0-2.7,0-4,0v-2c1.3,0,2.7,0,4,0L400.9,85.1z"/>
			</g>
			<g>
				<path class="st4" d="M492.7,363.4H287.3c-6.3,0-11.8,4.2-13.4,10.3c-0.3,1.2-0.5,2.4-0.5,3.6v154.8c0,7.7,6.2,13.9,13.9,13.9
					l0,0h205.4c7.7,0,13.9-6.2,13.9-13.9v-38.7h-82.4c-13,0-23.6-10.6-23.6-23.6v-30.9c0-11.9,8.9-22,20.8-23.4
					c0.9-0.1,1.9-0.2,2.8-0.2h82.5v-37.9C506.6,369.7,500.4,363.5,492.7,363.4L492.7,363.4z"/>
				<path d="M492.7,547H287.3c-8.2,0-14.9-6.7-14.9-14.9V377.3c0-1.2,0.2-2.4,0.5-3.8c1.7-6.5,7.6-11.1,14.4-11.1h205.4
					c8.3,0.1,14.9,6.7,15,15v38.9h-83.5c-0.8,0-1.8,0.1-2.7,0.2c-11.3,1.3-19.9,11-19.9,22.4v30.9c0,12.5,10.1,22.6,22.6,22.6h83.4
					v39.7C507.6,540.3,500.9,547,492.7,547z M287.3,364.4c-5.8,0-11,3.9-12.4,9.6c-0.3,1.3-0.5,2.4-0.5,3.3v154.8
					c0,7.1,5.8,12.9,12.9,12.9h205.4c7.1,0,12.9-5.8,12.9-12.9v-37.7h-81.4c-13.6,0-24.6-11-24.6-24.6v-30.9
					c0-12.5,9.3-22.9,21.7-24.4c1-0.1,2-0.2,2.9-0.2h81.5v-36.9c-0.1-7.2-5.8-12.9-13-13H287.3z"/>
			</g>
		</g>
		<g id="Layer_2-2">
			<g>
				<circle class="st5" cx="713.3" cy="620.3" r="98.7"/>
			</g>
			<g>
				<path d="M725.5,571.7c-4.4-3.7-10.6-6-18.5-7c-5.5-0.6-10.9-0.6-16.4-0.1c-3.1,0.3-5.5,2.9-5.5,6v4.6c0,1.1,0.9,1.9,1.9,1.9
					c1.1,0,1.9-0.9,1.9-1.9v-4.6c0-1.1,0.8-2.1,2-2.2c6.6-0.6,23.1-1.3,32.1,6.2c0.8,0.7,2,0.6,2.7-0.2
					C726.4,573.6,726.3,572.4,725.5,571.7L725.5,571.7z"/>
			</g>
			<g>
				<path d="M726.3,552.7h-26.9c-3.8,0-7.5,1.5-10.2,4.3c-7.1,1-12.4,7-12.5,14.2v5.8c0,3.2,0.4,6.4,1.2,9.5l0.9,3.6v7.2
					c0,8.4,3.8,16.4,10.3,21.7v6.9c-1.2,0.1-2.2,0.8-2.9,1.8l-2.7,4l-14,5.1c-5.7,2.1-9.4,7.5-9.4,13.5v18.2c-0.1,1.1,0.7,2,1.8,2.1
					s2-0.7,2.1-1.8c0-0.1,0-0.2,0-0.3v-18.2c0-4.4,2.8-8.3,6.9-9.8l13.2-4.8l8.1,11.3c0.7,1,1.8,1.6,2.9,1.7c0.1,0,0.2,0,0.3,0
					c1.1,0,2.1-0.4,2.8-1.2l1.2-1.2c0.1,0.9,0.5,1.7,1.1,2.3l-1.2,19.8c-0.1,1.1,0.7,2,1.8,2.1h0.1h0.1c1,0,1.9-0.8,1.9-1.8
					l1.1-18.9h2.2l1.1,18.9c0.1,1,0.9,1.8,1.9,1.8h0.1c1.1-0.1,1.9-1,1.8-2l-1.1-19.8c0.6-0.6,1-1.4,1.1-2.3l1.2,1.2
					c0.8,0.8,1.8,1.2,2.8,1.2h0.3c1.2-0.1,2.2-0.7,2.9-1.7l8.9-12.5c0.5-0.7,0.5-1.5,0-2.2l-3-4.5c-0.6-1-1.7-1.6-2.9-1.8v-6.6
					c0.8-0.6,1.6-1.3,2.3-2c5.2-5,8-11.9,8-19.1v-8l0.9-3.6c0.8-3.1,1.2-6.3,1.2-9.5v-16.1C734.4,556.3,730.8,552.7,726.3,552.7z
					 M695.6,644.6L695.6,644.6h-0.2l-8.1-11.4l2.3-3.4c0.1,0,0.1,0,0.2,0l12.8,8L695.6,644.6z M707.6,645.7h-4.2
					c-0.1,0-0.1-0.1-0.1-0.1v-3.3l2.2-2.2l2.2,2.2v3.3l0,0C707.8,645.7,707.7,645.8,707.6,645.7
					C707.6,645.8,707.6,645.8,707.6,645.7L707.6,645.7z M705.6,635.1l-12.5-7.8v-5.7c3.7,2.1,7.8,3.2,12,3.2h0.5
					c4.4,0,8.7-1.1,12.5-3.1v5.5l0,0L705.6,635.1z M723.9,633.2l-8.2,11.4h-0.1h-0.1l-6.9-6.9l12.8-8c0.1,0,0.1,0,0.2,0L723.9,633.2
					z M730.5,576.9c0,2.9-0.4,5.8-1.1,8.6l-1,3.8c0,0.2-0.1,0.3-0.1,0.5v8.3c0,12.6-10.3,22.9-22.9,22.9c-0.1,0-0.3,0-0.4,0
					c-12.4-0.2-22.4-10.9-22.4-23.7v-7.5c0-0.2,0-0.3-0.1-0.5l-1-3.8c-0.7-2.8-1.1-5.7-1.1-8.6v-5.8c0-5.4,4.2-10,9.6-10.4
					c0.5,0,1-0.3,1.3-0.6c2-2.2,4.8-3.5,7.8-3.5h27c2.4,0,4.3,1.9,4.3,4.3l0,0L730.5,576.9z"/>
			</g>
			<g>
				<path d="M677.4,652.5l-1.2-2.4c-0.5-1-1.6-1.3-2.6-0.9c-0.9,0.5-1.3,1.6-0.9,2.6l1.2,2.4c0.4,0.9,0.7,1.9,0.7,2.8v10.5
					c0,1.1,0.9,1.9,1.9,1.9c1.1,0,1.9-0.9,1.9-1.9l0,0V657C678.5,655.5,678.2,654,677.4,652.5z"/>
			</g>
			<g>
				<path d="M744.9,634.6c-13.6,0-24.7,11.1-24.7,24.7s11.1,24.7,24.7,24.7c13.6,0,24.7-11.1,24.7-24.7
					C769.5,645.7,758.5,634.6,744.9,634.6z M744.9,680.1c-11.5,0-20.9-9.3-20.9-20.8s9.3-20.9,20.8-20.9s20.9,9.3,20.9,20.8v0.1
					C765.6,670.8,756.3,680.1,744.9,680.1L744.9,680.1z"/>
			</g>
			<g>
				<path d="M744.9,646c-3.6-0.2-6.6,2.6-6.7,6.2c0,0.2,0,0.4,0,0.6c0,0.9,0.8,1.7,1.7,1.7s1.7-0.8,1.7-1.7
					c-0.1-1.9,1.3-3.5,3.2-3.5c1.9-0.1,3.5,1.3,3.5,3.2c0,0.1,0,0.2,0,0.3c0,2.8-0.6,4.2-2.6,5.3c-3.7,2.3-4.4,5.3-4.2,6.8
					c0.1,0.8,0.8,1.4,1.7,1.4h0.2c0.9-0.1,1.6-0.9,1.5-1.8c0-0.1-0.1-1.8,2.6-3.4c3-1.8,4.2-4.2,4.2-8.2c0.2-3.6-2.6-6.6-6.1-6.8
					C745.3,646,745.1,646,744.9,646z"/>
			</g>
			<g>
				<circle cx="743.2" cy="671.6" r="1.7"/>
			</g>
			<g>
				<circle class="st5" cx="98.7" cy="620.3" r="98.7"/>
			</g>
			<g>
				<rect x="63.2" y="664.3" width="3.8" height="3.8"/>
			</g>
			<g>
				<rect x="70.8" y="664.3" width="3.8" height="3.8"/>
			</g>
			<g>
				<path d="M150.4,656.7v-55c0-5.2-4.2-9.5-9.5-9.5h-8.3c-7.3-18.5-28.3-27.5-46.7-20.2c-9.2,3.7-16.5,11-20.2,20.2h-8.3
					c-5.2,0-9.5,4.2-9.5,9.5l0,0v55h-7.6v9.5c0,5.2,4.2,9.5,9.5,9.5h98.6c5.2,0,9.5-4.2,9.5-9.5v-9.5H150.4z M140.9,596
					c3.1,0,5.7,2.6,5.7,5.7v55h-3.8v-56.9h-8.1c-0.2-1.3-0.5-2.5-0.8-3.8H140.9z M101.1,573.3c17.7,1,31.3,16.3,30.3,34
					c-1,16.3-14,29.3-30.3,30.3C101.1,637.6,101.1,573.3,101.1,573.3z M89.4,626.4c2.5-1.1,5.2-1.7,7.9-1.9v11.4
					C94.1,633.2,91.5,630,89.4,626.4z M92.9,637.1c-4.3-0.9-8.3-2.6-11.9-5.1c1.5-1.5,3.2-2.8,5-3.8
					C87.9,631.5,90.2,634.5,92.9,637.1L92.9,637.1z M87.7,623c-2.2-4.9-3.4-10.3-3.6-15.7h13.2v13.3C94,620.9,90.7,621.7,87.7,623z
					 M84.1,603.6c0.2-5.4,1.3-10.7,3.5-15.7c3.1,1.3,6.4,2.1,9.7,2.3v13.4H84.1z M97.3,575v11.4c-2.8-0.2-5.5-0.9-8-1.9
					C91.4,580.9,94.1,577.7,97.3,575z M86,582.8c-1.8-1.1-3.5-2.4-5-3.8c3.6-2.5,7.7-4.2,11.9-5.1C90.2,576.5,87.9,579.5,86,582.8z
					 M78,581.3c1.9,1.9,4,3.5,6.3,4.9c-2.4,5.5-3.8,11.4-3.9,17.4H67.1C67.6,595,71.5,587,78,581.3z M80.4,607.4
					c0.2,6,1.5,11.9,3.9,17.4c-2.3,1.3-4.4,3-6.3,4.9c-6.5-5.7-10.4-13.7-10.9-22.3L80.4,607.4L80.4,607.4z M99.2,641.5
					c19.9,0,36-16.1,36-36c0-0.6-0.1-1.3-0.1-1.9h3.9v53.1h-30.3v3.8h3.8v1.9c0,1-0.8,1.9-1.9,1.9l0,0H87.8c-1,0-1.9-0.8-1.9-1.9
					v-1.9h19v-3.8H59.4v-53.1h3.9c0,0.6-0.1,1.3-0.1,1.9C63.2,625.4,79.3,641.5,99.2,641.5z M51.8,601.7c0-3.1,2.6-5.7,5.7-5.7h7
					c-0.3,1.2-0.6,2.5-0.8,3.8h-8.1v56.9h-3.8V601.7z M154.2,666.2c0,3.1-2.5,5.7-5.7,5.7H49.9c-3.1,0-5.7-2.6-5.7-5.7v-5.7h37.9
					v1.9c0,3.1,2.6,5.6,5.7,5.6h22.8c3.1,0,5.7-2.5,5.7-5.7v-1.9h37.9L154.2,666.2L154.2,666.2z"/>
			</g>
			<g>
				<path d="M116.3,588.4c-4.2,0-7.6,3.4-7.6,7.6l0,0v4.1c-2.3,0.8-3.8,2.9-3.8,5.3v7.6c0,3.1,2.5,5.7,5.7,5.7H122
					c3.1,0,5.7-2.5,5.7-5.7v-7.6c0-2.4-1.5-4.5-3.8-5.3V596C123.9,591.8,120.5,588.4,116.3,588.4L116.3,588.4z M116.3,592.2
					c2.1,0,3.8,1.7,3.8,3.8v3.8h-7.6V596C112.5,593.9,114.2,592.2,116.3,592.2L116.3,592.2z M123.9,613.1c0,1-0.8,1.9-1.9,1.9l0,0
					h-11.4c-1,0-1.9-0.8-1.9-1.9v-7.6c0-1,0.9-1.9,1.9-1.9H122c1,0,1.9,0.8,1.9,1.9V613.1z"/>
			</g>
			<g>
				<path d="M130.1,636.3c-14,14-35.6,16.9-52.7,7l-1.9,3.3c18.6,10.7,42.1,7.6,57.3-7.6L130.1,636.3z"/>
			</g>
			<g>
				<path d="M70.8,649.1c-4.2,0-7.6-3.4-7.6-7.6c0-4.2,3.4-7.6,7.6-7.6s7.6,3.4,7.6,7.6l0,0C78.4,645.7,75,649.1,70.8,649.1z"/>
			</g>
			<g>
				<path d="M68.3,574.7l-2.7-2.7c15.2-15.2,38.7-18.3,57.3-7.6l-1.9,3.3C103.9,557.8,82.3,560.7,68.3,574.7L68.3,574.7z"/>
			</g>
			<g>
				<path d="M127.7,577c-4.2,0-7.6-3.4-7.6-7.6c0-4.2,3.4-7.6,7.6-7.6s7.6,3.4,7.6,7.6l0,0C135.2,573.6,131.8,577,127.7,577z"/>
			</g>
			<g>
				<circle class="st5" cx="397.9" cy="98.7" r="98.7"/>
			</g>
			<g>
				<path d="M455.2,82.1H450c-0.1,0-0.1-0.1-0.1-0.1c-1.4-6.3-3.8-12.3-7.3-17.7c0-0.1,0-0.1,0-0.2l3.7-3.7c1.5-1.5,1.5-3.9,0-5.3
					l-11-11c-1.5-1.5-3.9-1.5-5.3,0l-3.7,3.7c0,0-0.1,0-0.2,0c-5.4-3.5-11.4-5.9-17.6-7.3c-0.1,0-0.1,0-0.1-0.1v-5.2
					c0-2.1-1.7-3.8-3.8-3.8H389c-2.1,0-3.8,1.7-3.8,3.8v5.2c0,0.1-0.1,0.1-0.1,0.1c-6.3,1.4-12.2,3.8-17.6,7.3c0,0-0.1,0-0.2,0
					l-3.7-3.7c-1.5-1.5-3.9-1.5-5.3,0l-11,11c-1.5,1.5-1.5,3.9,0,5.3l3.7,3.7c0,0,0,0.1,0,0.2c-3.5,5.4-5.9,11.4-7.3,17.7
					c0,0.1-0.1,0.1-0.1,0.1h-5.2c-2.1,0-3.8,1.7-3.8,3.8v15.6c0,2.1,1.7,3.8,3.8,3.8h5.2c0.1,0,0.1,0.1,0.1,0.1
					c1.4,6.3,3.8,12.3,7.3,17.7c0,0,0,0.1,0,0.2l-3.7,3.7c-1.5,1.5-1.5,3.9,0,5.3l11,11c1.5,1.5,3.9,1.5,5.3,0l3.7-3.7
					c0,0,0.1,0,0.2,0c5.4,3.5,11.4,5.9,17.6,7.3c0.1,0,0.1,0.1,0.1,0.1v5.2c0,2.1,1.7,3.8,3.8,3.8h15.6c2.1,0,3.8-1.7,3.8-3.8V147
					c0-0.1,0.1-0.1,0.1-0.1c6.3-1.4,12.2-3.8,17.6-7.3c0,0,0.1,0,0.2,0l3.7,3.7c1.5,1.5,3.9,1.5,5.3,0l11-11c1.5-1.5,1.5-3.9,0-5.3
					l-3.7-3.7c0,0,0-0.1,0-0.2c3.5-5.4,5.9-11.4,7.3-17.7c0-0.1,0-0.1,0.1-0.1h5.2c2.1,0,3.8-1.7,3.8-3.8V85.8
					C458.9,83.8,457.3,82.1,455.2,82.1z M455.2,101.5H450c-1.8,0-3.3,1.3-3.7,3c-1.3,5.8-3.6,11.4-6.8,16.5c-1,1.5-0.8,3.5,0.5,4.7
					l3.7,3.7c0,0.1,0,0.1,0,0.2l-11,11c-0.1,0-0.1,0-0.2,0l-3.7-3.7c-1.3-1.3-3.2-1.5-4.7-0.5c-5,3.2-10.6,5.5-16.5,6.8
					c-1.7,0.4-3,1.9-3,3.7v5.2c0,0.1-0.1,0.1-0.1,0.1H389c-0.1,0-0.1-0.1-0.1-0.1v-5.2c0-1.8-1.3-3.3-3-3.7
					c-5.8-1.3-11.4-3.6-16.5-6.8c-0.6-0.4-1.3-0.6-2.1-0.6c-1,0-1.9,0.4-2.6,1.1l-3.7,3.7c-0.1,0-0.1,0-0.2,0l-11-11
					c0-0.1,0-0.1,0-0.2l3.7-3.7c1.3-1.2,1.5-3.2,0.5-4.7c-3.2-5-5.5-10.6-6.8-16.5c-0.4-1.7-1.9-3-3.7-3h-5.2
					c-0.1,0-0.1-0.1-0.1-0.1l0,0V85.8c0-0.1,0-0.1,0.1-0.1l0,0h5.2c1.8,0,3.3-1.3,3.7-3c1.3-5.8,3.6-11.4,6.8-16.4
					c1-1.5,0.8-3.5-0.5-4.7l-3.7-3.7c0-0.1,0-0.1,0-0.2l11-11c0.1,0,0.1,0,0.2,0l3.7,3.7c1.3,1.3,3.2,1.5,4.7,0.5
					c5-3.2,10.6-5.6,16.5-6.9c1.7-0.4,3-1.9,3-3.7v-5.2c0-0.1,0.1-0.1,0.1-0.1h15.6c0.1,0,0.1,0,0.1,0.1l0,0v5.2
					c0,1.8,1.3,3.3,3,3.7c5.8,1.3,11.4,3.6,16.5,6.8c1.5,1,3.5,0.8,4.7-0.5l3.7-3.7c0,0,0.1-0.1,0.2,0l0,0l11,11c0,0.1,0,0.1,0,0.2
					l-3.7,3.7c-1.3,1.3-1.5,3.2-0.5,4.7c3.2,5,5.5,10.6,6.8,16.5c0.4,1.7,1.9,3,3.7,3h5.2c0.1,0,0.1,0.1,0.1,0.1v15.6l0,0
					C455.3,101.5,455.3,101.5,455.2,101.5z"/>
			</g>
			<g>
				<path d="M421.2,63.4c-16.7-13.4-41.2-10.8-54.6,6c-11.4,14.2-11.4,34.4,0,48.6c0.3,0.4,0.9,0.7,1.4,0.7c1,0,1.8-0.8,1.8-1.8
					c0-0.4-0.1-0.9-0.4-1.2c-12.2-15.1-9.9-37.3,5.3-49.5c12.9-10.4,31.3-10.4,44.2,0c0.8,0.6,1.9,0.5,2.6-0.3
					C422.1,65.1,422,64,421.2,63.4L421.2,63.4z"/>
			</g>
			<g>
				<path d="M427,69.2c-0.6-0.8-1.8-0.9-2.6-0.3c-0.8,0.6-0.9,1.8-0.3,2.6l0,0c11.3,14,10.2,34.3-2.5,47c-1.1,1.1-2.3,2.2-3.6,3.1
					v-10c0-3.4-2.3-6.4-5.6-7.4l-6.6-1.9c-0.9-0.3-1.5-1.1-1.5-2v-1.5c0.6-0.4,1.2-0.9,1.7-1.4c2.6-2.5,4.1-6,4.1-9.7v-3.5l0.7-1.5
					c0.8-1.6,1.2-3.4,1.2-5.2v-9.4c0-1-0.8-1.8-1.8-1.8l0,0h-17.6c-6.4,0-11.5,5.2-11.6,11.5v0.1c0,1.5,0.3,3,1,4.3l0.9,1.9v3
					c0,4.5,2.2,8.8,5.8,11.5v1.6c0,0.9-0.6,1.7-1.5,2l-6.6,1.9c-3.3,1-5.5,4-5.6,7.4v10l-0.8-0.6c-0.8-0.6-1.9-0.5-2.6,0.3
					c-0.6,0.8-0.5,1.9,0.3,2.6c6.9,5.6,15.5,8.6,24.4,8.6c0.6,0,1.3,0,1.9-0.1c21.4-1,38-19.2,37-40.6
					C435.2,83.5,432.2,75.6,427,69.2z M386.9,87.3v-3.4c0-0.3-0.1-0.6-0.2-0.8l-1.1-2.3c-0.4-0.8-0.6-1.7-0.6-2.7V78
					c0-4.4,3.6-7.9,7.9-7.9h15.7v7.6c0,1.2-0.3,2.4-0.8,3.5l-0.9,1.8c-0.1,0.3-0.2,0.5-0.2,0.8v3.9c0,5.5-4.4,9.9-9.9,9.9
					c-0.1,0-0.2,0-0.3,0C391.2,97.5,386.9,92.8,386.9,87.3z M401.1,102.3l-1.5,1.5c-1.6,1.6-4.1,1.6-5.7,0l0,0l-1.5-1.5
					c0.2-0.5,0.3-1.1,0.3-1.7c1.2,0.4,2.4,0.6,3.6,0.6h0.4c1.4,0,2.7-0.2,4-0.6C400.8,101.2,400.9,101.8,401.1,102.3L401.1,102.3z
					 M414.4,124.1c-1.3,0.8-2.7,1.5-4.1,2.1v-11.1c-0.1-1-1-1.8-2-1.7c-0.9,0.1-1.6,0.8-1.7,1.7v12.4c-2.6,0.8-5.4,1.2-8.1,1.4
					c-0.6,0-1.2,0-1.8,0c-3.3,0-6.7-0.5-9.9-1.4v-12.3c0-1-0.8-1.8-1.8-1.8s-1.8,0.8-1.8,1.8l0,0v11.1c-1.4-0.6-2.8-1.3-4.1-2.1
					v-12.4c0-1.8,1.2-3.4,2.9-3.9l6.6-1.9c0.6-0.2,1.1-0.4,1.6-0.7l1.2,1.2c3,3,7.8,3,10.8,0l1.2-1.2c0.5,0.3,1,0.6,1.6,0.7l6.6,1.9
					c1.7,0.5,2.9,2.1,2.9,3.9L414.4,124.1L414.4,124.1z"/>
			</g>
			<g>
				<path d="M403.4,78.3c-4.2-2.1-12.2-2.1-12.5-2.1c-1,0.1-1.8,1-1.7,2c0.1,0.9,0.8,1.6,1.7,1.7c2,0,8,0.3,10.9,1.8
					c0.9,0.5,2,0.1,2.4-0.8C404.7,79.9,404.3,78.8,403.4,78.3L403.4,78.3z"/>
			</g>
		</g>
	</g>
</g>
</svg>
