<svg xmlns="http://www.w3.org/2000/svg" viewBox="0 0 69.86 80.48"><defs><style>.cls-1,.cls-2{fill:none;}.cls-1,.cls-2,.cls-3,.cls-6{stroke:#363636;stroke-miterlimit:10;stroke-width:0.5px;}.cls-1,.cls-3,.cls-6{stroke-linecap:round;}.cls-3{fill:#f8fdff;}.cls-4{fill:#896ed3;}.cls-5{fill:#47d1a5;}.cls-6{fill:#fff;}</style></defs><title>Asset 2</title><g id="Layer_2" data-name="Layer 2"><g id="Layer_2-2" data-name="Layer 2"><circle class="cls-1" cx="59.49" cy="16.39" r="6.81"/><line class="cls-1" x1="63.72" y1="3.42" x2="63.72" y2="8.46"/><line class="cls-1" x1="59.32" y1="0.25" x2="59.32" y2="5.3"/><line class="cls-1" x1="54.68" y1="3.59" x2="54.68" y2="8.64"/><path class="cls-2" d="M56.79,18.87A3.53,3.53,0,0,0,59.36,20a3.59,3.59,0,0,0,.81-.09"/><path class="cls-2" d="M61.23,19.43a3.57,3.57,0,1,0-4.44-5.53"/><path class="cls-2" d="M56.05,17.74h3.32a1.37,1.37,0,0,0,1.36-1.35h0A1.37,1.37,0,0,0,59.37,15H56.05"/><line class="cls-1" x1="32.27" y1="10.38" x2="32.27" y2="15.75"/><line class="cls-1" x1="27.58" y1="7" x2="27.58" y2="12.38"/><line class="cls-1" x1="22.65" y1="10.56" x2="22.65" y2="15.94"/><path class="cls-2" d="M24.89,26.84a4.12,4.12,0,0,0,.69.56"/><path class="cls-2" d="M24.1,25.64h3.54a1.45,1.45,0,0,0,1.44-1.45h0a1.45,1.45,0,0,0-1.44-1.44H24.1"/><path class="cls-2" d="M31.4,23.77a3.8,3.8,0,0,0-6.51-2.23"/><path class="cls-3" d="M43.29,41.39H65.08a3.71,3.71,0,0,1,3.71,3.71V59.6a3.71,3.71,0,0,1-3.71,3.71H43.29"/><path class="cls-4" d="M43.06,30a8,8,0,0,1,8,7.94H62.91a93.63,93.63,0,0,1-9.8-4.05,72.1,72.1,0,0,1-10.19-7.46h0a72.1,72.1,0,0,1-10.19,7.46,100.88,100.88,0,0,1-10.44,4.28.21.21,0,0,0-.15.23c.13,1.53,1.15,12.46,3.88,17.83A40.92,40.92,0,0,0,36.15,69.33a7.93,7.93,0,0,1-1.09-4V38A8,8,0,0,1,43.06,30Z"/><path class="cls-1" d="M59.18,66.78c-8,10.62-16.26,13.44-16.26,13.44S32.76,76.76,24.09,63.07H18.81v3.46"/><path class="cls-1" d="M19.41,53.3A29.67,29.67,0,0,0,21.21,58l.58,1.12"/><path class="cls-1" d="M69.21,38.85c.23-1.86.35-3.24.4-3.76a.28.28,0,0,0-.2-.3A131,131,0,0,1,56,29.3c-5.55-3-13-9.55-13.08-9.58s-7.53,6.59-13.08,9.58a131,131,0,0,1-13.41,5.49.28.28,0,0,0-.2.3,118.53,118.53,0,0,0,2.16,14.26H8.59V45"/><path class="cls-1" d="M34.49,21.47A7.25,7.25,0,1,0,22.34,29"/><path class="cls-1" d="M47.73,38.1v-.87a4.67,4.67,0,1,0-9.33,0V64.56a4.65,4.65,0,0,0,8.84,2"/><rect class="cls-5" x="43.21" y="44.94" width="24.9" height="3.83"/><line class="cls-1" x1="20.34" y1="56.41" x2="9.44" y2="56.41"/><circle class="cls-6" cx="8.75" cy="39.81" r="3.03"/><circle class="cls-6" cx="3.28" cy="56.31" r="3.03"/><circle class="cls-6" cx="19.22" cy="72.38" r="3.03"/></g></g></svg>