<svg xmlns="http://www.w3.org/2000/svg" viewBox="0 0 130.13 101.23"><defs><style>.cls-1{fill:#47d1a5;}.cls-2,.cls-3,.cls-4,.cls-5{fill:none;}.cls-2,.cls-3,.cls-4,.cls-5,.cls-6{stroke:#363636;stroke-miterlimit:10;}.cls-2,.cls-3,.cls-4,.cls-6{stroke-width:0.5px;}.cls-3{stroke-dasharray:0.5 2;}.cls-4,.cls-5{stroke-linecap:round;}.cls-6{fill:#fff;}.cls-7{fill:#896ed3;}</style></defs><title>Asset 3</title><g id="Layer_2" data-name="Layer 2"><g id="Layer_12" data-name="Layer 12"><circle class="cls-1" cx="18.88" cy="23.91" r="18.88"/><path class="cls-2" d="M4.63,23.85V23.6"/><path class="cls-3" d="M4.8,21.6a14.31,14.31,0,0,1,12.89-12"/><path class="cls-2" d="M18.69,9.54h.25"/><path class="cls-4" d="M18.94,9.53A14.32,14.32,0,1,1,4.63,23.85"/><path class="cls-5" d="M12.38,28.91a8.21,8.21,0,0,0,5.94,2.52,8.4,8.4,0,0,0,1.88-.21"/><path class="cls-5" d="M22.65,30.21a8.27,8.27,0,1,0-10.27-12.8"/><path class="cls-5" d="M10.67,26.3h7.67a3.14,3.14,0,0,0,3.13-3.14h0A3.14,3.14,0,0,0,18.34,20H10.67"/><rect class="cls-6" x="18.5" y="23.8" width="100" height="53.67"/><path class="cls-7" d="M100.44,29.63c0-.17,0-.33,0-.5h-63c0,.17,0,.33,0,.5A12.31,12.31,0,0,1,25.13,41.94c-.3,0-.59,0-.88,0V59.36c.29,0,.58,0,.88,0A12.31,12.31,0,0,1,37.44,71.63c0,.17,0,.33,0,.5h75.34V41.94A12.31,12.31,0,0,1,100.44,29.63ZM68.5,65.71A15.08,15.08,0,1,1,83.58,50.63,15.08,15.08,0,0,1,68.5,65.71Z"/><path class="cls-5" d="M61.56,57a9.18,9.18,0,0,0,6.6,2.8,9.56,9.56,0,0,0,2.09-.24"/><path class="cls-5" d="M73,58.45a9.18,9.18,0,1,0-11.41-14.2"/><path class="cls-5" d="M59.67,54.11h8.51a3.49,3.49,0,0,0,3.48-3.48h0a3.49,3.49,0,0,0-3.48-3.48H59.67"/><circle class="cls-1" cx="111.25" cy="73.03" r="18.88"/><path class="cls-2" d="M97,73v-.25"/><path class="cls-3" d="M97.17,70.73a14.33,14.33,0,0,1,12.89-12"/><path class="cls-2" d="M111.06,58.66h.25"/><path class="cls-4" d="M111.31,58.66A14.31,14.31,0,1,1,97,73"/><path class="cls-5" d="M104.75,78a8.24,8.24,0,0,0,7.82,2.3"/><path class="cls-5" d="M115,79.33a8.27,8.27,0,1,0-10.28-12.79"/><path class="cls-5" d="M103,75.43h7.67a3.15,3.15,0,0,0,3.14-3.14h0a3.15,3.15,0,0,0-3.14-3.14H103"/><line class="cls-4" x1="48.81" y1="6.55" x2="47.01" y2="6.55"/><path class="cls-4" d="M70.63,14.38H84.51a1,1,0,0,1,1,1V20a.59.59,0,0,0,1,.41l12-9.42a.78.78,0,0,0,0-1.22L86.56.39a.64.64,0,0,0-1,.5V5.52a1,1,0,0,1-1,1H54.61"/><line class="cls-4" x1="76.63" y1="94.69" x2="78.43" y2="94.69"/><path class="cls-4" d="M54.81,86.85H40.93a1,1,0,0,1-1-1V81.19a.58.58,0,0,0-1-.41l-12,9.43a.77.77,0,0,0,0,1.21l12,9.43a.63.63,0,0,0,1-.5V95.72a1,1,0,0,1,1-1h29.9"/></g></g></svg>