<svg xmlns="http://www.w3.org/2000/svg" xmlns:xlink="http://www.w3.org/1999/xlink" viewBox="0 0 710.95 581.23"><defs><style>.cls-1,.cls-2,.cls-4,.cls-7,.cls-8{fill:none;}.cls-2,.cls-4{stroke:#dfe2ec;}.cls-2,.cls-8{stroke-linecap:round;}.cls-10,.cls-2,.cls-4,.cls-7,.cls-8{stroke-miterlimit:10;}.cls-2{stroke-width:6px;}.cls-3{clip-path:url(#clip-path);}.cls-10,.cls-4,.cls-7,.cls-8{stroke-width:2px;}.cls-10,.cls-5{fill:#fff;}.cls-6{fill:#886dd2;}.cls-10,.cls-7,.cls-8{stroke:#000;}.cls-9{fill:#dfe2ec;}</style><clipPath id="clip-path" transform="translate(0 0)"><rect class="cls-1" width="710.95" height="581.23"/></clipPath></defs><title>04-shop</title><g id="Layer_2" data-name="Layer 2"><g id="Layer_1-2" data-name="Layer 1"><line class="cls-2" x1="20" y1="175.98" x2="155.9" y2="199.95"/><g class="cls-3"><line class="cls-2" x1="3" y1="213.98" x2="138.9" y2="237.95"/></g><line class="cls-2" x1="36.95" y1="259.96" x2="129.9" y2="275.95"/><line class="cls-2" x1="58.95" y1="182.96" x2="58.95" y2="222.96"/><line class="cls-2" x1="114.95" y1="192.96" x2="114.95" y2="232.96"/><line class="cls-2" x1="70.95" y1="227.96" x2="70.95" y2="264.96"/><g class="cls-3"><line class="cls-2" x1="564" y1="272.98" x2="699.9" y2="296.95"/><line class="cls-2" x1="575.49" y1="317.02" x2="707.95" y2="338.96"/></g><line class="cls-2" x1="602.95" y1="259.96" x2="602.95" y2="319.96"/><line class="cls-2" x1="658.95" y1="289.96" x2="658.95" y2="359.96"/><line class="cls-4" x1="460.95" y1="82.05" x2="460.95" y2="529.96"/><line class="cls-4" x1="480.95" y1="58.96" x2="480.95" y2="506.88"/><line class="cls-4" x1="249.95" y1="13.96" x2="249.95" y2="463.78"/><line class="cls-4" x1="229.95" y1="123.15" x2="229.95" y2="486.96"/><g class="cls-3"><path class="cls-5" d="M259.78,1.13,168.15,93a.45.45,0,0,0,.25.77L405.07,135.6a.42.42,0,0,0,.4-.13l91.79-91.81a.45.45,0,0,0-.25-.77L260.19,1a.47.47,0,0,0-.41.12" transform="translate(0 0)"/><path class="cls-6" d="M204,101v9a20.6,20.6,0,0,1-19.89,5.57c-8.25-1.91-12.46-6.65-14.47-10a11.68,11.68,0,0,1-1.64-6V93L260,1l36,6Z" transform="translate(0 0)"/><path class="cls-5" d="M244.05,108v9s-8.1,8.5-22.1,5.57c-14.82-3.09-17.9-13.57-17.9-13.57V100L296,8h2.83L314,10.8l17,2.83,5,1Z" transform="translate(0 0)"/><path class="cls-6" d="M284.25,115v9s-8.1,8.5-22.1,5.57c-14.82-3.09-17.9-13.57-17.9-13.57l-.2-8.86L336,14.63l40,6.84Z" transform="translate(0 0)"/><path class="cls-5" d="M324.25,122v9s-8.1,8.5-22.1,5.57c-14.82-3.09-17.9-13.57-17.9-13.57-.3,0-.3-8-.3-8l93.33-93.34L416,29l-92,93" transform="translate(0 0)"/><path class="cls-6" d="M364.25,129v9s-8.1,8.5-22.1,5.57c-14.82-3.09-17.9-13.57-17.9-13.57-.3,0,0-8.67,0-8.67L416,29l39,7Z" transform="translate(0 0)"/><path class="cls-5" d="M404.55,136v5.77a6.59,6.59,0,0,1-3,5.56,25.22,25.22,0,0,1-19.12,3.24c-14.82-3.09-17.9-13.57-17.9-13.57l-.6-8L456.62,35.3,497,43Z" transform="translate(0 0)"/><polygon class="cls-6" points="496.95 81.97 497.26 43.66 407.62 134.3 496.95 81.97"/></g><g class="cls-3"><path class="cls-7" d="M259.78,1.13,168.15,93a.45.45,0,0,0,.25.77L405.07,135.6a.42.42,0,0,0,.4-.13l91.79-91.81a.45.45,0,0,0-.25-.77L260.19,1A.47.47,0,0,0,259.78,1.13Z" transform="translate(0 0)"/><line class="cls-8" x1="296.21" y1="7.71" x2="204.28" y2="99.63"/><line class="cls-8" x1="244.29" y1="106.63" x2="336.21" y2="14.71"/><line class="cls-8" x1="284.29" y1="113.63" x2="376.21" y2="21.71"/><line class="cls-8" x1="324.29" y1="120.63" x2="416.21" y2="28.71"/><line class="cls-8" x1="364.29" y1="127.63" x2="456.21" y2="35.71"/><line class="cls-8" x1="497.45" y1="43.17" x2="497.45" y2="82.17"/><line class="cls-8" x1="405.99" y1="135.17" x2="496.95" y2="81.97"/><path class="cls-8" d="M204,101v9a20.6,20.6,0,0,1-19.89,5.57c-8.25-1.91-12.46-6.65-14.47-10a11.68,11.68,0,0,1-1.64-6V93" transform="translate(0 0)"/><path class="cls-8" d="M204.05,109s3.08,10.48,17.9,13.57c14,2.93,22.1-5.57,22.1-5.57v-9" transform="translate(0 0)"/><path class="cls-8" d="M244.25,116s3.08,10.48,17.9,13.57c14,2.93,22.1-5.57,22.1-5.57v-9" transform="translate(0 0)"/><path class="cls-8" d="M284.25,123s3.08,10.48,17.9,13.57c14,2.93,22.1-5.57,22.1-5.57v-9" transform="translate(0 0)"/><path class="cls-8" d="M324.25,130s3.08,10.48,17.9,13.57c14,2.93,22.1-5.57,22.1-5.57v-9" transform="translate(0 0)"/><path class="cls-8" d="M364.55,137s3.08,10.48,17.9,13.57a25.22,25.22,0,0,0,19.12-3.24,6.59,6.59,0,0,0,3-5.56V136" transform="translate(0 0)"/></g><polygon class="cls-5" points="247.95 412.96 203.95 438.96 203.95 472.96 188.95 469.96 140.95 498.96 140.95 535.97 383.94 579.71 388.65 578.98 480.95 524.97 480.95 454.96 247.95 412.96"/><polygon class="cls-9" points="203.95 439.96 203.95 472.96 435.95 513.97 435.95 479.96 203.95 439.96"/><polygon class="cls-9" points="141.95 499.96 140.95 535.97 385.95 579.97 386.95 542.97 141.95 499.96"/><g class="cls-3"><polyline class="cls-8" points="141.49 498.96 141.45 536.22 387.14 580.18 481.49 525.06 481.49 455.09"/><path class="cls-7" d="M435.64,514.11,387,543,141.53,499.11a.09.09,0,0,1,0-.17l47.1-28.79,247,43.52A.24.24,0,0,1,435.64,514.11Z" transform="translate(0 0)"/><line class="cls-7" x1="386.61" y1="579.71" x2="386.61" y2="542.74"/><path class="cls-7" d="M481,454.85a.14.14,0,0,0-.2-.12l-44.3,25.43a.15.15,0,0,0-.07.12v33.94" transform="translate(0 0)"/></g><polyline class="cls-8" points="436.38 513.64 203.58 472.59 203.62 439.93"/><g class="cls-3"><path class="cls-7" d="M480.46,454.46l-44,25.38L204.28,439a.12.12,0,0,1,0-.22l43.89-25.44,232.3,40.93A.09.09,0,0,1,480.46,454.46Z" transform="translate(0 0)"/></g><g class="cls-3"><path class="cls-5" d="M516.49,554.28,478.2,576.39a.08.08,0,0,0,0,.14" transform="translate(0 0)"/><path class="cls-9" d="M472.71,560.94l39.84-23a8.1,8.1,0,0,1,5.45-1l55.28,9.84a1,1,0,0,1,.32,1.77l-39.83,23.32a8,8,0,0,1-5.53,1L473,562.71A1,1,0,0,1,472.71,560.94Z" transform="translate(0 0)"/><path class="cls-10" d="M472.71,557.94l39.84-23a8.1,8.1,0,0,1,5.45-1l55.28,9.84a1,1,0,0,1,.32,1.77l-39.83,23.32a8,8,0,0,1-5.53,1L473,559.71A1,1,0,0,1,472.71,557.94Z" transform="translate(0 0)"/><path class="cls-5" d="M522,433V551.09c0,1,1.12,1.88,2.5,1.88s2.5-.84,2.5-1.88V433" transform="translate(0 0)"/><path class="cls-7" d="M522,433V551.09c0,1,1.12,1.88,2.5,1.88s2.5-.84,2.5-1.88V433" transform="translate(0 0)"/><path class="cls-9" d="M472,432.5l114.79,20.24a3.66,3.66,0,0,0,4.3-3.61V384.57a3.67,3.67,0,0,0-3-3.61L473.25,360.72a3.67,3.67,0,0,0-4.3,3.61v64.56a3.67,3.67,0,0,0,3,3.61" transform="translate(0 0)"/><path class="cls-5" d="M469,433.5l114.79,20.24a3.66,3.66,0,0,0,4.3-3.61V385.57a3.67,3.67,0,0,0-3-3.61L470.25,361.72a3.67,3.67,0,0,0-4.3,3.61v64.56a3.67,3.67,0,0,0,3,3.61" transform="translate(0 0)"/><path class="cls-7" d="M469,433.5l114.79,20.24a3.66,3.66,0,0,0,4.3-3.61V385.57a3.67,3.67,0,0,0-3-3.61L470.25,361.72a3.67,3.67,0,0,0-4.3,3.61v64.56A3.67,3.67,0,0,0,469,433.5Z" transform="translate(0 0)"/></g><path class="cls-9" d="M508.6,419a25.43,25.43,0,0,0,15,9,20.81,20.81,0,0,0,4.74.3l-5.86-6.84Z" transform="translate(0 0)"/><path class="cls-9" d="M523.57,386.29a17.86,17.86,0,0,0-15,3.71l15,2.64c8,1.41,14.49,9,14.49,17h0c0,5.78-3.38,10.17-8.27,11.63l4.7,5.49c6-2.62,9.91-8.5,9.91-16C544.4,399.29,535.08,388.32,523.57,386.29Z" transform="translate(0 0)"/><path class="cls-9" d="M531.52,408.53a9.86,9.86,0,0,0-7.9-9.3l-19.33-3.41a18.2,18.2,0,0,0-1.34,4.64l21.14,3.73a3.77,3.77,0,0,1,3,3.56h0a2.48,2.48,0,0,1-3,2.5L503,406.52a24,24,0,0,0,1.34,5.12l19.33,3.4a6.46,6.46,0,0,0,7.9-6.51Z" transform="translate(0 0)"/></g></g></svg>