<svg xmlns="http://www.w3.org/2000/svg" xmlns:xlink="http://www.w3.org/1999/xlink" viewBox="0 0 510.53 487.4"><defs><style>.cls-1,.cls-10,.cls-12,.cls-6,.cls-7{fill:none;}.cls-2{clip-path:url(#clip-path);}.cls-3{fill:#dfe2ec;}.cls-4{fill:#3f3f3f;}.cls-5{fill:#383838;}.cls-6{stroke:#000;}.cls-10,.cls-12,.cls-6,.cls-7{stroke-miterlimit:10;}.cls-10,.cls-12,.cls-7{stroke:#363636;}.cls-12,.cls-7{stroke-width:2px;}.cls-8{fill:#fff;}.cls-9{fill:#494949;}.cls-11{fill:#886dd2;}.cls-12{stroke-linecap:round;}</style><clipPath id="clip-path"><rect class="cls-1" width="510.53" height="487.39"/></clipPath></defs><title>05_laptop</title><g id="Layer_2" data-name="Layer 2"><g id="Layer_1-2" data-name="Layer 1"><g class="cls-2"><path class="cls-3" d="M253.38,205.51,72.78,309.74a5.56,5.56,0,0,0,0,9.63L316.52,461.18a5.54,5.54,0,0,0,5.58,0L508.23,353.78"/><path class="cls-4" d="M508.23,334.78,253.38,186.51,72.78,290.74a5.56,5.56,0,0,0,0,9.63L316.52,442.18a5.54,5.54,0,0,0,5.58,0Z"/><path class="cls-5" d="M253.38,181.51,72.78,285.74a5.56,5.56,0,0,0,0,9.63L316.52,437.18a5.54,5.54,0,0,0,5.58,0L508.23,329.78"/><path class="cls-6" d="M253.38,181.51,72.78,285.74a5.56,5.56,0,0,0,0,9.63L316.52,437.18a5.54,5.54,0,0,0,5.58,0L508.23,329.78"/><path class="cls-3" d="M253.38,181.51v5L72.78,290.74a5.56,5.56,0,0,0,0,9.63L316.52,442.18a5.54,5.54,0,0,0,5.58,0L508.23,334.78v-5Z"/><path class="cls-7" d="M253.38,181.51v5L72.78,290.74a5.56,5.56,0,0,0,0,9.63L316.52,442.18a5.54,5.54,0,0,0,5.58,0L508.23,334.78v-5Z"/><path class="cls-8" d="M253.38,181.51,72.78,285.74a5.56,5.56,0,0,0,0,9.63L316.52,437.18a5.54,5.54,0,0,0,5.58,0L508.23,329.78"/><path class="cls-7" d="M253.38,181.51,72.78,285.74a5.56,5.56,0,0,0,0,9.63L316.52,437.18a5.54,5.54,0,0,0,5.58,0L508.23,329.78"/><line class="cls-9" x1="508.23" y1="329.78" x2="253.38" y2="181.51"/><line class="cls-6" x1="508.23" y1="329.78" x2="253.38" y2="181.51"/><path class="cls-3" d="M508,329.62l1.13-.56a1.58,1.58,0,0,0,.87-1.41V147.31a3.33,3.33,0,0,0-1.68-2.9L260.19,1.45a3.34,3.34,0,0,0-5,2.9V181.81"/><path class="cls-10" d="M508,329.62l1.13-.56a1.58,1.58,0,0,0,.87-1.41V147.31a3.33,3.33,0,0,0-1.68-2.9L260.19,1.45a3.34,3.34,0,0,0-5,2.9V181.81"/><path class="cls-3" d="M253.18,181.81V4.35a3.34,3.34,0,0,1,5-2.9l248.16,143"/><path class="cls-10" d="M253.18,181.81V4.35a3.34,3.34,0,0,1,5-2.9l248.16,143"/><path class="cls-8" d="M508,329.42V147.31a3.33,3.33,0,0,0-1.68-2.9L258.19,1.45a3.34,3.34,0,0,0-5,2.9V181.81L507.85,329.52a.12.12,0,0,0,.18-.1"/><path class="cls-7" d="M508,329.42V147.31a3.33,3.33,0,0,0-1.68-2.9L258.19,1.45a3.34,3.34,0,0,0-5,2.9V181.81L507.85,329.52A.12.12,0,0,0,508,329.42Z"/><path class="cls-3" d="M498.38,306.35V151.67a3.08,3.08,0,0,0-1.55-2.68L267.46,16.86a3.09,3.09,0,0,0-4.64,2.68V175a4.53,4.53,0,0,0,2.25,3.91L491.6,310.25a4.51,4.51,0,0,0,6.78-3.9"/><path class="cls-7" d="M498.38,306.35V151.67a3.08,3.08,0,0,0-1.55-2.68L267.46,16.86a3.09,3.09,0,0,0-4.64,2.68V175a4.53,4.53,0,0,0,2.25,3.91L491.6,310.25A4.51,4.51,0,0,0,498.38,306.35Z"/><path class="cls-7" d="M372.87,381l85.92-49.58a2.49,2.49,0,0,0,0-4.3L251.52,204.89a2.47,2.47,0,0,0-2.52,0L162,256a2.5,2.5,0,0,0,0,4.31L370.37,381A2.48,2.48,0,0,0,372.87,381Z"/><path class="cls-7" d="M372.63,377.44l79.58-45.92a2.31,2.31,0,0,0,0-4L252.37,209.14a2.28,2.28,0,0,0-2.34,0l-80.55,47.3a2.31,2.31,0,0,0,0,4l200.83,117A2.32,2.32,0,0,0,372.63,377.44Z"/><path class="cls-7" d="M296.4,346.11l-78.35-46.19a3,3,0,0,0-3.08,0l-47.64,28a3,3,0,0,0,0,5.24L246.51,379a3,3,0,0,0,3.06,0l46.83-27.66A3,3,0,0,0,296.4,346.11Z"/><path class="cls-7" d="M216.65,379.23l3.38-2a1.47,1.47,0,0,0,0-2.54L181.88,352.2a1.49,1.49,0,0,0-1.5,0L175.69,355"/><path class="cls-7" d="M270.53,191.57l-2.54,1.5a4.07,4.07,0,0,0,0,7L470.3,319.34a4.07,4.07,0,0,0,4.13,0l8.36-4.91"/><line class="cls-7" x1="239.02" y1="215.21" x2="444.09" y2="336"/><line class="cls-7" x1="190.94" y1="273.28" x2="276.96" y2="223.62"/><line class="cls-7" x1="227.52" y1="236.22" x2="263.23" y2="215.61"/><line class="cls-7" x1="177.6" y1="265.05" x2="203.02" y2="250.37"/><line class="cls-7" x1="231.34" y1="282.02" x2="304.59" y2="239.73"/><line class="cls-7" x1="204.87" y1="281.36" x2="290.81" y2="231.75"/><line class="cls-7" x1="258.71" y1="298.12" x2="331.47" y2="256.12"/><line class="cls-7" x1="245.28" y1="289.94" x2="317.73" y2="248.11"/><line class="cls-7" x1="286.12" y1="314.36" x2="359.09" y2="272.23"/><line class="cls-7" x1="272.49" y1="306.29" x2="345.31" y2="264.25"/><line class="cls-7" x1="287.29" y1="329.25" x2="371.97" y2="280.37"/><line class="cls-7" x1="315.14" y1="345.23" x2="399.59" y2="296.48"/><line class="cls-7" x1="301.27" y1="337.3" x2="385.81" y2="288.5"/><line class="cls-7" x1="354.25" y1="354.56" x2="426.47" y2="312.87"/><line class="cls-7" x1="328.85" y1="353.29" x2="412.73" y2="304.85"/><line class="cls-7" x1="380.86" y1="355.32" x2="440.31" y2="321"/><line class="cls-7" x1="227.27" y1="222.23" x2="432.34" y2="343.03"/><path class="cls-3" d="M240.18,453.21l-71.9-42.39a9.42,9.42,0,0,0-9.54,0L117.58,435a5.23,5.23,0,0,0,0,9l72.68,42.11a9.41,9.41,0,0,0,9.5,0l40.41-23.87a5.23,5.23,0,0,0,0-9"/><line class="cls-7" x1="214.98" y1="229.27" x2="420.05" y2="350.07"/><line class="cls-7" x1="202.52" y1="236.71" x2="407.59" y2="357.5"/><line class="cls-7" x1="190.77" y1="243.73" x2="395.84" y2="364.53"/><line class="cls-7" x1="178.48" y1="250.77" x2="383.55" y2="371.57"/><path class="cls-8" d="M240.18,449.21l-71.9-42.39a9.42,9.42,0,0,0-9.54,0L117.58,431a5.23,5.23,0,0,0,0,9l72.68,42.11a9.41,9.41,0,0,0,9.5,0l40.41-23.87a5.23,5.23,0,0,0,0-9"/><path class="cls-7" d="M240.18,449.21l-71.9-42.39a9.42,9.42,0,0,0-9.54,0L117.58,431a5.23,5.23,0,0,0,0,9l72.68,42.11a9.41,9.41,0,0,0,9.5,0l40.41-23.87A5.23,5.23,0,0,0,240.18,449.21Z"/><path class="cls-11" d="M227.23,464.68l-85-49.17c0,.17,11-6,11-6l85,49.17Z"/><path class="cls-7" d="M240.18,448.21l-71.9-42.39a9.42,9.42,0,0,0-9.54,0L117.58,430a5.23,5.23,0,0,0,0,9l72.68,42.11a9.41,9.41,0,0,0,9.5,0l40.41-23.87A5.23,5.23,0,0,0,240.18,448.21Z"/></g><g class="cls-2"><path class="cls-8" d="M254.44,133l-51.73-30a1.78,1.78,0,0,1-.89-1.54V23.61a1.79,1.79,0,0,1,2.68-1.55l83,47.79a1.79,1.79,0,0,1,.89,1.55v78.19a1.78,1.78,0,0,1-2.68,1.54l-10.82-6.27a1.78,1.78,0,0,0-2.68,1.54v12.94a1.79,1.79,0,0,1-3.38.82l-13.67-26.42a1.86,1.86,0,0,0-.69-.73"/><path class="cls-7" d="M254.44,133l-51.73-30a1.78,1.78,0,0,1-.89-1.54V23.61a1.79,1.79,0,0,1,2.68-1.55l83,47.79a1.79,1.79,0,0,1,.89,1.55v78.19a1.78,1.78,0,0,1-2.68,1.54l-10.82-6.27a1.78,1.78,0,0,0-2.68,1.54v12.94a1.79,1.79,0,0,1-3.38.82l-13.67-26.42A1.86,1.86,0,0,0,254.44,133Z"/><line class="cls-12" x1="211.06" y1="56.31" x2="278.62" y2="95.31"/><line class="cls-12" x1="210.92" y1="73.88" x2="245.57" y2="93.89"/></g><polygon class="cls-11" points="40.23 270.68 40.23 113.68 26.23 98.68 1.23 92.68 1.23 250.68 26.23 256.68 40.23 270.68"/><g class="cls-2"><path class="cls-3" d="M167.48,38.54,141.34,33.7a.27.27,0,0,1-.18-.11L129.38,17.88a.29.29,0,0,0-.37-.07L1.87,92.31a.28.28,0,0,0,.09.52l24.17,4.83a.32.32,0,0,1,.16.09l13.78,15.76a.29.29,0,0,0,.36,0L167.57,39.07a.29.29,0,0,0-.09-.53"/><path class="cls-7" d="M167.48,38.54,141.34,33.7a.27.27,0,0,1-.18-.11L129.38,17.88a.29.29,0,0,0-.37-.07L1.87,92.31a.28.28,0,0,0,.09.52l24.17,4.83a.32.32,0,0,1,.16.09l13.78,15.76a.29.29,0,0,0,.36,0L167.57,39.07A.29.29,0,0,0,167.48,38.54Z"/></g><g class="cls-2"><path class="cls-7" d="M1.36,250.23A.24.24,0,0,1,1,250V92.58a.22.22,0,0,1,.12-.21L128.68,18a.37.37,0,0,1,.55.31V175.54"/><path class="cls-7" d="M129.23,175.54a.24.24,0,0,1-.12.21"/><path class="cls-11" d="M168.23,196.68,40.57,271.11a.38.38,0,0,1-.57-.33V113.44L167.89,38.88a.22.22,0,0,1,.34.19Z"/><path class="cls-7" d="M168.23,196.68,40.57,271.11a.38.38,0,0,1-.57-.33V113.44L167.89,38.88a.22.22,0,0,1,.34.19Z"/><polyline class="cls-7" points="1.23 249.68 26.23 256.68 40.23 270.68"/><polyline class="cls-12" points="2.17 92.68 27.23 98.68 40.23 113.68"/><line class="cls-7" x1="26.23" y1="97.68" x2="26.23" y2="256.68"/><polyline class="cls-12" points="129.23 17.68 141.23 32.68 168.23 38.68"/><path class="cls-12" d="M48.23,64.68c0-16.29-12.16-44.8,21-55,19.5-6,25,11.71,25,28"/><path class="cls-12" d="M82.23,88.68c0-16.29-11.64-37.76,20-52,20-9,26,8.71,26,25"/><line class="cls-7" x1="141.23" y1="33.68" x2="141.23" y2="54.68"/></g><path class="cls-8" d="M90.34,182.65c5.17,2.32,12.41,1.41,20.42-3.26a50.25,50.25,0,0,0,6.47-4.52l-8-3.25Z"/><path class="cls-8" d="M110.76,122.55c-8,4.68-15.25,12.22-20.42,20.57l20.42-11.91c10.92-6.37,19.76-2.68,19.76,8.23h0c0,7.88-4.61,17.37-11.28,24.44l6.42,2.61c8.11-9.74,13.52-21.87,13.52-32.1C139.18,118.7,126.46,113.4,110.76,122.55Z"/><path class="cls-8" d="M121.61,144.64c0-5.93-4.85-7.95-10.78-4.49L84.46,155.53a43,43,0,0,0-1.82,7.71l28.83-16.82c2.28-1.33,4.13-.56,4.13,1.73h0c0,2.28-1.85,5.21-4.13,6.54L82.64,171.51a17.67,17.67,0,0,0,1.82,5.59l26.37-15.38c5.93-3.46,10.78-11.15,10.78-17.08Z"/></g></g></svg>