<svg xmlns="http://www.w3.org/2000/svg" viewBox="0 0 192.83 174.07"><defs><style>.cls-1,.cls-3{fill:#dfe1eb;}.cls-2{fill:#fcfcfc;}.cls-2,.cls-3,.cls-4{stroke:#363636;stroke-miterlimit:10;}.cls-4{fill:#886dd2;}.cls-5{fill:#fff;}</style></defs><title>06_exchange</title><g id="Layer_2" data-name="Layer 2"><g id="Layer_1-2" data-name="Layer 1"><path class="cls-1" d="M3.1,131.87,124.05,62a9.89,9.89,0,0,1,9.87,0l55.93,32.28a5,5,0,0,1,0,8.59L68.9,172.74a9.84,9.84,0,0,1-9.87,0L3.1,140.46A5,5,0,0,1,3.1,131.87Z"/><path class="cls-2" d="M3.1,125.87,124.05,56a9.89,9.89,0,0,1,9.87,0l55.93,32.28a5,5,0,0,1,0,8.59L68.9,166.74a9.84,9.84,0,0,1-9.87,0L3.1,134.46A5,5,0,0,1,3.1,125.87Z"/><path class="cls-2" d="M189.72,96.76,68.77,166.59a9.89,9.89,0,0,1-9.87,0L3,134.3A4.9,4.9,0,0,1,.92,132,4.94,4.94,0,0,0,3,138.3L58.9,170.59a9.89,9.89,0,0,0,9.87,0l121-69.83a5,5,0,0,0,2.06-6.3A4.9,4.9,0,0,1,189.72,96.76Z"/><path class="cls-3" d="M170.47,81.64l14.18,8.19a3.24,3.24,0,0,1,0,5.61L66.82,163.52a3.22,3.22,0,0,1-3.23,0L8.48,131.68a3.25,3.25,0,0,1,0-5.61L124.93,58.84a6.07,6.07,0,0,1,6.06,0l5.93,3.43,1.1.63A1.18,1.18,0,0,1,138.6,64l-.17,2.63a3.56,3.56,0,0,0,1.77,3.31l10.35,6,9,5.2a10.15,10.15,0,0,0,7.66,1l2.36-.62A1.23,1.23,0,0,1,170.47,81.64Z"/><path class="cls-2" d="M129.55,21,113.05,2.78a.77.77,0,0,0-.5-.26h0L107.73.57a0,0,0,0,0,0,0l1,4.07L111,6l-1,5.13a.83.83,0,0,1-.74.65c-23.28,2-41,25.36-45.93,45.06l-2.71.52-2.88,3.07,5.13,2.07h0a.75.75,0,0,0,.68,0,19.12,19.12,0,0,1,4.33-1.81A21.66,21.66,0,0,1,73.75,60a.79.79,0,0,0,.82-.72c1.2-10.92,14.54-30.58,31.92-33.41a.84.84,0,0,1,1,.89l-.67,4.46-3.65.06-.85-.27.27,4.36,4.68,1.94h0a.8.8,0,0,0,.76-.09l21.43-14.94A.84.84,0,0,0,129.55,21Z"/><path class="cls-2" d="M101.49,23.86C84.12,26.69,70.77,46.35,69.57,57.27a.8.8,0,0,1-.82.72,21.66,21.66,0,0,0-5.89.67,19.12,19.12,0,0,0-4.33,1.81.8.8,0,0,1-1.18-.82C60.29,39.16,79,12,104.24,9.8a.83.83,0,0,0,.74-.65l1.63-8a.84.84,0,0,1,1.44-.39L124.55,19a.84.84,0,0,1-.14,1.25L103,35.2a.85.85,0,0,1-1.32-.76l.78-9.69A.84.84,0,0,0,101.49,23.86Z"/><path class="cls-2" d="M146.38,67.72h0l-5.19-1-.29,2.9-.21,0a35.7,35.7,0,0,1-5.32.64.75.75,0,0,0-.73.62c-4.2,20.2-17.76,29.52-31.87,33.51a.82.82,0,0,1-1-.89l1.08-9.66a.81.81,0,0,0-.66-.89h0l-5-1-.24,4.39L80,108.18a.81.81,0,0,0-.13,1.22l13.37,14.66-1.62,2.62,5.08,1a.78.78,0,0,0,.21,0h0a.83.83,0,0,0,.84-.63l1.87-8a.81.81,0,0,1,.6-.61c31.35-7.67,44.05-27.44,46.7-49.95A.78.78,0,0,0,146.38,67.72Z"/><path class="cls-2" d="M95.26,117.51c31.35-7.67,44.05-27.44,46.7-49.95a.78.78,0,0,0-1.13-.78,19.45,19.45,0,0,1-5.14,1.85,35.7,35.7,0,0,1-5.32.64.75.75,0,0,0-.73.62c-4.2,20.2-17.76,29.52-31.87,33.51a.82.82,0,0,1-1-.89l1.08-9.66a.82.82,0,0,0-1.28-.76L75,107.18a.81.81,0,0,0-.13,1.22l16.49,18.08a.82.82,0,0,0,1.4-.36l1.87-8A.81.81,0,0,1,95.26,117.51Z"/><path class="cls-4" d="M155.38,45.51C153.85,55.92,144.15,65,136.58,65c-9.25,0-16.47-7-15.43-18.12,1.12-12,10-22.25,20.16-22.25C149.44,24.59,157.32,32.22,155.38,45.51Z"/><path class="cls-4" d="M151.38,43.51C149.85,53.92,140.15,63,132.58,63c-9.25,0-16.47-7-15.43-18.12,1.12-12,10-22.25,20.16-22.25C145.44,22.59,153.32,30.22,151.38,43.51Z"/><path class="cls-4" d="M86.21,86.88C84.69,97.3,75,106.34,67.42,106.34c-9.26,0-16.47-7-15.43-18.12C53.1,76.22,62,66,72.15,66,80.27,66,88.16,73.6,86.21,86.88Z"/><path class="cls-4" d="M82.21,84.88C80.69,95.3,71,104.34,63.42,104.34c-9.26,0-16.47-7-15.43-18.12C49.1,74.22,58,64,68.15,64,76.27,64,84.16,71.6,82.21,84.88Z"/><path class="cls-5" d="M140.32,44.38a2.59,2.59,0,0,0-1.11-1.66,3.12,3.12,0,0,0,2.37-2.32,3.08,3.08,0,0,0,.2-1.33A2.16,2.16,0,0,0,141.4,38a3.84,3.84,0,0,0-.82-.84,6.83,6.83,0,0,0-1.16-.69l1.16-2.67-1.39-.49-1.13,2.6c-.24-.09-.61-.21-1.11-.37l1.14-2.62-1.39-.5-1.16,2.68-.88-.3-1.91-.69L132,35.83l1,.36a.75.75,0,0,1,.49,1l-1.33,3,.14.06-.14,0-1.85,4.27c-.21.35-.46.46-.76.36l-1-.36-1.12,1.85,1.81.64.49.18.49.18L129,50.07l1.39.49,1.16-2.67,1.1.4L131.52,51l1.39.5,1.18-2.71a8.23,8.23,0,0,0,1.38.3,5.32,5.32,0,0,0,1.26,0,3.36,3.36,0,0,0,2.13-1,5.37,5.37,0,0,0,.87-1.23A3.9,3.9,0,0,0,140.32,44.38Zm-4.17-6.94.36.12.49.16c.13,0,.3.12.51.21a3.34,3.34,0,0,1,.52.29,1.86,1.86,0,0,1,.42.35,1.18,1.18,0,0,1,.31.45,1.46,1.46,0,0,1,.08.54,1.68,1.68,0,0,1-.16.66,1.83,1.83,0,0,1-.31.51,1.21,1.21,0,0,1-.43.33,4.13,4.13,0,0,1-.45.17,1.76,1.76,0,0,1-.53,0l-.51-.05a3.41,3.41,0,0,1-.52-.12l-.47-.14-.41-.15-.31-.11,1.41-3.26Zm.66,8.57a1.86,1.86,0,0,1-.41.35,1.52,1.52,0,0,1-.49.19,2.67,2.67,0,0,1-.53.07,3.7,3.7,0,0,1-.56,0,5.26,5.26,0,0,1-.56-.1l-.54-.14-.49-.15-.43-.16-.33-.13L134,42.33l.43.15.59.19c.15,0,.35.14.61.25a4.8,4.8,0,0,1,.62.34,4,4,0,0,1,.51.4,1.62,1.62,0,0,1,.38.51,1.78,1.78,0,0,1,.12.6,1.82,1.82,0,0,1-.16.73A1.85,1.85,0,0,1,136.81,46Z"/><path class="cls-5" d="M58,88.25a6.91,6.91,0,0,0,4.11,4.45,6.64,6.64,0,0,0,1.69.37L62.64,90Z"/><path class="cls-5" d="M68.33,75.63a6.94,6.94,0,0,0-6,.74l5.07,1.86c2.71,1,3.92,4.45,2.72,7.73h0a6.55,6.55,0,0,1-4.77,4.34l.89,2.49a9.65,9.65,0,0,0,6-6.05C74,82,72.23,77.05,68.33,75.63Z"/><path class="cls-5" d="M67.89,85.15c.65-1.78,0-3.68-1.49-4.22l-6.54-2.39a11,11,0,0,0-1.18,1.83L65.83,83a1.21,1.21,0,0,1,.57,1.61h0a1.22,1.22,0,0,1-1.48.87l-7.16-2.61A10.75,10.75,0,0,0,57.48,85L64,87.41c1.47.54,3.21-.48,3.87-2.26Z"/></g></g></svg>