<svg xmlns="http://www.w3.org/2000/svg" viewBox="0 0 1923.69 274.79"><defs><style>.cls-1{opacity:0.3;isolation:isolate;}.cls-2{fill:#fff;}</style></defs><title>line-2</title><g id="Layer_2" data-name="Layer 2"><g id="Layer_1-2" data-name="Layer 1"><g class="cls-1"><path class="cls-2" d="M2.16,274.79,0,272.71C129.94,138.29,348,96.9,666.51,146.19c363.81,56.28,513.28-4.11,657.83-62.52C1392.71,56,1463.42,27.46,1555.66,12c103.31-17.29,223.69-15.95,368,4.07l-.42,3c-320.89-44.53-461.67,12.36-597.81,67.37-72.29,29.22-147,59.42-248,74.74-113.34,17.2-247.91,13.26-411.39-12C348.53,100,131.37,141.13,2.16,274.79Z"/></g><circle class="cls-2" cx="662.45" cy="146.93" r="4.94"/><path class="cls-2" d="M662.46,152.37a6.64,6.64,0,0,1-.77-.05,5.44,5.44,0,0,1-3.59-2.12,5.45,5.45,0,0,1,1.08-7.63,5.45,5.45,0,1,1,3.28,9.8Zm0-9.89a4.45,4.45,0,1,0,4.41,5.07,4.45,4.45,0,0,0-3.78-5h0A4.46,4.46,0,0,0,662.44,142.48Z"/></g></g></svg>