<svg xmlns="http://www.w3.org/2000/svg" viewBox="0 0 678.09 220"><defs><style>.cls-1{fill:#fff;}</style></defs><title>Asset 1</title><g id="Layer_2" data-name="Layer 2"><g id="Layer_6" data-name="Layer 6"><path class="cls-1" d="M29.8,186.5a110.16,110.16,0,0,0,104.09,30.63L103,186.5Z"/><path class="cls-1" d="M108.84,0a109.67,109.67,0,0,0-79,33.5h79a76.5,76.5,0,0,1,76.5,76.5h0a76.51,76.51,0,0,1-43.68,69.11l24.83,24.58A110,110,0,0,0,108.84,0Z"/><path class="cls-1" d="M150.84,110a41.88,41.88,0,0,0-41.75-41.75H7.05A108.92,108.92,0,0,0,0,94H111.59a16,16,0,0,1,16,16h0a16,16,0,0,1-16,16H0a108.92,108.92,0,0,0,7.05,25.75h102A41.88,41.88,0,0,0,150.84,110Z"/><rect class="cls-1" x="343.44" y="33" width="31.56" height="26.89"/><rect class="cls-1" x="343.44" y="71.72" width="31.56" height="112.43"/><path class="cls-1" d="M388.57,128.48c0-41.86,17.54-58.73,52.38-58.73,35.73,0,52.16,16.22,52.16,58.52,0,41.85-17.53,58.73-53.47,58.73C405.45,187,388.57,170.34,388.57,128.48Zm52.16,35.07c14.25,0,21.92-8.77,21.92-35.07,0-13.8-1.75-23-5.48-27.83-3.51-4.82-9-7.23-16.22-7.23S428,95.83,424.3,100.65s-5.48,14-5.48,27.83C418.82,154.56,426.71,163.55,440.73,163.55Z"/><path class="cls-1" d="M332.18,70.07a65.29,65.29,0,0,0-6.79-.32,49.06,49.06,0,0,0-33.1,12.49L291.2,71.72H264.46V184.15h30.68V100.21c5-3.5,13.59-5.26,25.86-5.26a85,85,0,0,1,11.18.66Z"/><path class="cls-1" d="M564.92,175a64.56,64.56,0,0,1-7-13.21,60.17,60.17,0,0,1-10,.88c-7.23,0-9.42-3.28-9.42-11.83V93h22.06a56.31,56.31,0,0,1,6.37-9.62,54,54,0,0,1,13.35-11.64H538.68v-28L507.77,46.3V71.94H479.13a42.41,42.41,0,0,1,6.92,6,47.75,47.75,0,0,1,9.16,15h11.91v55a96.08,96.08,0,0,0,.87,16c.88,6.35,2.2,9,5.48,13.59,4.6,5.69,13.81,9.42,28.27,9.42,8.23,0,20.4-2.32,28.41-5.91A44.68,44.68,0,0,1,564.92,175Z"/><path class="cls-1" d="M606.42,186.56c-16,0-27.61-5.26-35.28-16C563.68,159.82,560,146,560,129.58c0-30.25,14.24-60.05,59.83-60.05a105.48,105.48,0,0,1,41.86,8.77v79.11c0,4.17,2.41,6.14,7.23,6.14a14.34,14.34,0,0,0,7.89-2.19l1.32,19.94a55.13,55.13,0,0,1-23.24,5.48c-11.39,0-18.62-3.73-21.91-11.4C626.14,182.84,617.38,186.56,606.42,186.56ZM631,95.61a27.75,27.75,0,0,0-13.15-2.85c-17.76,0-26.52,12.93-26.52,38.79,0,18.19,7.89,32,23.45,32A27.27,27.27,0,0,0,631,158.73Z"/></g></g></svg>