<svg xmlns="http://www.w3.org/2000/svg" xmlns:xlink="http://www.w3.org/1999/xlink" viewBox="0 0 262.13 261.47"><defs><style>.cls-1,.cls-10,.cls-11,.cls-12,.cls-2,.cls-3,.cls-4{fill:none;}.cls-1,.cls-10,.cls-11,.cls-12,.cls-2,.cls-3,.cls-4,.cls-5,.cls-6,.cls-7,.cls-8,.cls-9{stroke-miterlimit:10;}.cls-1,.cls-2,.cls-3,.cls-4,.cls-5,.cls-6,.cls-7,.cls-8,.cls-9{stroke-width:1.5px;}.cls-1{stroke:url(#linear-gradient);}.cls-2{stroke:url(#linear-gradient-2);}.cls-3{stroke:url(#linear-gradient-3);}.cls-4{stroke:url(#linear-gradient-4);}.cls-5,.cls-6,.cls-7{fill:#9879ea;}.cls-5{stroke:url(#linear-gradient-5);}.cls-6{stroke:url(#linear-gradient-6);}.cls-7{stroke:url(#linear-gradient-7);}.cls-8{fill:#856bcf;}.cls-8,.cls-9{stroke:#e1d9ff;}.cls-9{fill:#e1d9ff;}.cls-10,.cls-11,.cls-12{stroke-width:2px;}.cls-10{stroke:url(#linear-gradient-8);}.cls-11{stroke:url(#linear-gradient-9);}.cls-12{stroke:url(#linear-gradient-10);}</style><linearGradient id="linear-gradient" x1="71.48" y1="239.28" x2="209.05" y2="239.28" gradientUnits="userSpaceOnUse"><stop offset="0" stop-color="#e1d9ff"/><stop offset="1" stop-color="#f9efef" stop-opacity="0"/></linearGradient><linearGradient id="linear-gradient-2" x1="11.08" y1="124.85" x2="246.03" y2="124.85" xlink:href="#linear-gradient"/><linearGradient id="linear-gradient-3" x1="16.83" y1="162.84" x2="171.84" y2="162.84" xlink:href="#linear-gradient"/><linearGradient id="linear-gradient-4" x1="0" y1="132.25" x2="144" y2="132.25" xlink:href="#linear-gradient"/><linearGradient id="linear-gradient-5" x1="87.9" y1="223.49" x2="209.85" y2="223.49" xlink:href="#linear-gradient"/><linearGradient id="linear-gradient-6" x1="26.93" y1="106.08" x2="261.88" y2="106.08" xlink:href="#linear-gradient"/><linearGradient id="linear-gradient-7" x1="17.67" y1="129.9" x2="189.51" y2="129.9" xlink:href="#linear-gradient"/><linearGradient id="linear-gradient-8" x1="87.24" y1="223.48" x2="210.27" y2="223.48" xlink:href="#linear-gradient"/><linearGradient id="linear-gradient-9" x1="26.48" y1="106.12" x2="262.13" y2="106.12" xlink:href="#linear-gradient"/><linearGradient id="linear-gradient-10" x1="17.42" y1="129.91" x2="189.76" y2="129.91" xlink:href="#linear-gradient"/></defs><title>Asset 2</title><g id="Layer_2" data-name="Layer 2"><g id="Ñëîé_1" data-name="Ñëîé 1"><path class="cls-1" d="M89.37,217.59,72.62,236.24c38.53,25.46,84.62,32.45,118.7,14.36L208.49,232"/><path class="cls-2" d="M235.56,210.94,218.3,229.31c-11-6.89-27.26-17-34.14-21.24l16.73-18.23c12.85-23.59,10.93-53.94-8-84.21C168.73,67.1,123.52,50.79,90.08,57.83c-1.59.33-56.76,10.32-77.66,14.11C20,56.69,32,43.35,48.47,33.1c46.67-29,132.11-8.9,173.68,57.53,26.26,42,29.58,84.05,12.91,117.28"/><path class="cls-3" d="M161.75,120.15c15.42,24.49,11.25,49.09-8.84,62.7a32.93,32.93,0,0,1-9.85,4.5h0l-.07,0a38.78,38.78,0,0,1-7.5,1.25L36.91,205.11A163.3,163.3,0,0,1,24.75,188.8q-3.81-5.82-7-11.74L35,158.42"/><path class="cls-4" d="M18.47,92.71.8,111.34a116.59,116.59,0,0,0,3.5,31.5l113.91-21.11h0l.73-.13.52-.07.26,0,.35,0,.26,0,.53,0h1.45l.24,0,.41,0,.24,0,.58.06.22,0,.44.06.24,0,.6.11.18,0,.48.11.22,0,.62.16a22.38,22.38,0,0,1,13.05,9.62c5.64,9,4.12,17.95-3.23,22.93a12,12,0,0,1-3.6,1.65h0a14.52,14.52,0,0,1-2.74.46l-82,14.77"/><path class="cls-5" d="M208.4,232.06l-43.84-27.39c-4.12.75-66.8,11.81-74.68,13.2,38.53,25.46,84.62,32.45,118.7,14.36Z"/><path class="cls-6" d="M105.93,38.66c33.44-7,78.65,9.28,102.78,47.81,24.43,39,20.57,78.16-6.76,102.8l-.13.11c-.18.17-.22.16-.4.32,6.88,4.22,23.11,14.35,34.14,21.24,32.3-35.29,35-87.47,2.44-139.48C196.43,5,111-15.1,64.32,13.94c-16.47,10.25-28.46,23.58-36,38.83C49.17,49,104.34,39,105.93,38.66Z"/><path class="cls-7" d="M143.72,75.21c-.56-.15-1.11-.29-1.67-.42l-.63-.15-1.29-.28-.5-.1c-.55-.11-1.1-.2-1.65-.29l-.64-.1c-.4-.07-.8-.12-1.21-.17l-.59-.08L134,73.45l-.67,0-1.11-.07-.66,0q-.76,0-1.53,0c-.24,0-.47,0-.7,0h-1l-.72,0c-.49,0-1,0-1.46.08l-.7.06c-.32,0-.64,0-1,.09l-.73.08c-.47.06-.94.12-1.41.2-.67.1-1.33.22-2,.36h0L18.47,92.71a116.54,116.54,0,0,0,3.5,31.5l113.91-21.1h0l.73-.14.51-.07.27,0,.34,0,.26,0a4.89,4.89,0,0,1,.54,0h.88l.56,0h.25l.4,0,.25,0,.58.06.21,0a3.11,3.11,0,0,1,.44.06l.24,0,.6.11.19,0,.47.1.23,0,.61.16a22.43,22.43,0,0,1,13.06,9.62c5.64,9,4.11,18-3.23,22.94a12.31,12.31,0,0,1-3.61,1.65h0a13.28,13.28,0,0,1-2.75.46L35.42,158.44q3.21,5.91,7,11.74a164.86,164.86,0,0,0,12.16,16.31L153.16,170a38,38,0,0,0,7.5-1.25h.08a33.55,33.55,0,0,0,9.85-4.5c20.09-13.62,24.25-38.21,8.83-62.71A61.36,61.36,0,0,0,143.72,75.21Z"/><line class="cls-8" x1="36.91" y1="205.11" x2="54.58" y2="186.49"/><line class="cls-8" x1="4.3" y1="142.84" x2="21.97" y2="124.21"/><line class="cls-9" x1="12.42" y1="71.94" x2="28.27" y2="52.77"/><path class="cls-10" d="M208.4,232.06l-43.84-27.39c-4.12.75-66.8,11.81-74.68,13.2,38.53,25.46,84.62,32.45,118.7,14.36Z"/><path class="cls-11" d="M105.93,38.66c33.44-7,78.65,9.28,102.78,47.81,24.43,39,20.57,78.16-6.76,102.8l-.13.11c-.18.17-.22.16-.4.32,6.88,4.22,23.11,14.35,34.14,21.24,32.3-35.29,35-87.47,2.44-139.48C196.43,5,111-15.1,64.32,13.94c-16.47,10.25-28.46,23.58-36,38.83C49.17,49,104.34,39,105.93,38.66Z"/><path class="cls-12" d="M143.72,75.21c-.56-.15-1.11-.29-1.67-.42l-.63-.15-1.29-.28-.5-.1c-.55-.11-1.1-.2-1.65-.29l-.64-.1c-.4-.07-.8-.12-1.21-.17l-.59-.08L134,73.45l-.67,0-1.11-.07-.66,0q-.76,0-1.53,0c-.24,0-.47,0-.7,0h-1l-.72,0c-.49,0-1,0-1.46.08l-.7.06c-.32,0-.64,0-1,.09l-.73.08c-.47.06-.94.12-1.41.2-.67.1-1.33.22-2,.36h0L18.47,92.71a116.54,116.54,0,0,0,3.5,31.5l113.91-21.1h0l.73-.14.51-.07.27,0,.34,0,.26,0a4.89,4.89,0,0,1,.54,0h.88l.56,0h.25l.4,0,.25,0,.58.06.21,0a3.11,3.11,0,0,1,.44.06l.24,0,.6.11.19,0,.47.1.23,0,.61.16a22.43,22.43,0,0,1,13.06,9.62c5.64,9,4.11,18-3.23,22.94a12.31,12.31,0,0,1-3.61,1.65h0a13.28,13.28,0,0,1-2.75.46L35.42,158.44q3.21,5.91,7,11.74a164.86,164.86,0,0,0,12.16,16.31L153.16,170a38,38,0,0,0,7.5-1.25h.08a33.55,33.55,0,0,0,9.85-4.5c20.09-13.62,24.25-38.21,8.83-62.71A61.36,61.36,0,0,0,143.72,75.21Z"/></g></g></svg>