<svg xmlns="http://www.w3.org/2000/svg" xmlns:xlink="http://www.w3.org/1999/xlink" viewBox="0 0 261.34 179.92"><defs><style>.cls-1{isolation:isolate;}.cls-2{opacity:0.5;fill:url(#linear-gradient);}.cls-10,.cls-2{mix-blend-mode:multiply;}.cls-3{fill:#7c6ecc;}.cls-11,.cls-12,.cls-3,.cls-4{stroke:#cabbff;stroke-miterlimit:10;}.cls-4{fill:#a182fa;}.cls-5{fill:#42c193;}.cls-6{fill:#fff;opacity:0.2;}.cls-7{fill:#45d1a4;}.cls-8{fill:#c4c6cc;}.cls-9{fill:#dfe1eb;}.cls-10{opacity:0.05;}.cls-11,.cls-12{fill:none;stroke-linecap:round;}.cls-12{stroke-dasharray:2.97 2.97;}</style><linearGradient id="linear-gradient" x1="131.14" y1="-42.73" x2="131.14" y2="215.92" gradientUnits="userSpaceOnUse"><stop offset="0.06" stop-color="#fff" stop-opacity="0"/><stop offset="0.16" stop-color="#c9ccd0" stop-opacity="0.35"/><stop offset="0.27" stop-color="#9da3aa" stop-opacity="0.63"/><stop offset="0.36" stop-color="#7e868f" stop-opacity="0.84"/><stop offset="0.45" stop-color="#6c747f" stop-opacity="0.96"/><stop offset="0.53" stop-color="#656e79"/></linearGradient></defs><title>Asset 1</title><g class="cls-1"><g id="Layer_2" data-name="Layer 2"><g id="Ñëîé_1" data-name="Ñëîé 1"><path id="_Path_" data-name="&lt;Path&gt;" class="cls-2" d="M1,175.53l5.92,4.3,20.3-.49a23.14,23.14,0,0,0,11.35-3l93.95-52.79,96.58,55.76,7.38-2.36,23-13.83a4,4,0,0,0,0-6.86L133.83,83.55Z"/><g id="_Group_" data-name="&lt;Group&gt;"><path id="_Path_2" data-name="&lt;Path&gt;" class="cls-3" d="M232.51,61.28,134.25,4.54c-3.45-2-7.37-4-11.35-4h-7.82c-4,0-7.89,2.05-11.35,4L5.47,61.28a9.91,9.91,0,0,0-5,8.6v104a3.13,3.13,0,0,0,1.65,2.78h0l3.77,2.2-.64-2.22L109,116.74h20l103.73,59.9-.64,2.22,3.77-2.2h0a3.14,3.14,0,0,0,1.64-2.78v-104A9.91,9.91,0,0,0,232.51,61.28Z"/><path id="_Path_3" data-name="&lt;Path&gt;" class="cls-4" d="M228.61,63.55,130.34,6.82a22.73,22.73,0,0,0-11.35-3h0a22.73,22.73,0,0,0-11.35,3L9.37,63.55a10,10,0,0,0-5,8.61v104a3.18,3.18,0,0,0,4.77,2.75L109.48,121a14.74,14.74,0,0,1,7.38-2h4.26a14.74,14.74,0,0,1,7.38,2l100.31,57.91a3.17,3.17,0,0,0,4.76-2.75v-104A10,10,0,0,0,228.61,63.55Z"/><polygon id="_Path_4" data-name="&lt;Path&gt;" class="cls-5" points="121.52 15.31 216.34 34.47 216.34 81.64 121.21 28.08 121.52 15.31"/><polygon id="_Path_5" data-name="&lt;Path&gt;" class="cls-6" points="115.07 21.36 114.98 22.99 207.99 41.84 207.99 86.06 209.89 87.69 209.89 40.52 115.07 21.36"/><path id="_Path_6" data-name="&lt;Path&gt;" class="cls-7" d="M130.34,14.59a22.71,22.71,0,0,0-22.7,0L42.69,52.09v82.15h.16l64.79-37.4a22.71,22.71,0,0,1,22.7,0l64.79,37.4h.16V52.09Z"/><path id="_Path_7" data-name="&lt;Path&gt;" class="cls-4" d="M119,22.1a22.63,22.63,0,0,0-11.35,3L4.41,84.74v91.42a3.18,3.18,0,0,0,4.77,2.75L109.48,121a14.74,14.74,0,0,1,7.38-2h4.26a14.74,14.74,0,0,1,7.38,2l100.31,57.91a3.17,3.17,0,0,0,4.76-2.75V84.74L130.34,25.14A22.63,22.63,0,0,0,119,22.1Z"/><g id="_Group_2" data-name="&lt;Group&gt;"><path id="_Path_8" data-name="&lt;Path&gt;" class="cls-8" d="M211.34,149.88l-70.13-40.49a6.17,6.17,0,0,1-3.09-5.35V47.41a2.27,2.27,0,0,1,3.4-2l71,41a6.06,6.06,0,0,1,3,5.25v55.75A2.81,2.81,0,0,1,211.34,149.88Z"/><path id="_Path_9" data-name="&lt;Path&gt;" class="cls-9" d="M210.05,150.8l-70.13-40.49a6.17,6.17,0,0,1-3.09-5.35V48.33a2.27,2.27,0,0,1,3.4-2l71,41a6.06,6.06,0,0,1,3,5.25v55.75A2.81,2.81,0,0,1,210.05,150.8Z"/><polygon id="_Path_10" data-name="&lt;Path&gt;" class="cls-8" points="207.16 104.36 197.22 98.62 197.22 90.18 207.16 95.92 207.16 104.36"/></g><g id="_Group_3" data-name="&lt;Group&gt;"><path id="_Path_11" data-name="&lt;Path&gt;" class="cls-8" d="M25.38,149.88l70.13-40.49A6.15,6.15,0,0,0,98.6,104V47.41a2.26,2.26,0,0,0-3.39-2l-71,41a6.06,6.06,0,0,0-3,5.25v55.75A2.81,2.81,0,0,0,25.38,149.88Z"/><path id="_Path_12" data-name="&lt;Path&gt;" class="cls-9" d="M26.67,150.8,96.8,110.31A6.17,6.17,0,0,0,99.89,105V48.33a2.26,2.26,0,0,0-3.39-2l-71,41a6.06,6.06,0,0,0-3,5.25v55.75A2.81,2.81,0,0,0,26.67,150.8Z"/><polygon id="_Path_13" data-name="&lt;Path&gt;" class="cls-8" points="29.57 104.36 39.51 98.62 39.51 90.18 29.57 95.92 29.57 104.36"/></g><path id="_Path_14" data-name="&lt;Path&gt;" class="cls-4" d="M226.32,111l-96-55.41a22.71,22.71,0,0,0-22.7,0L11.66,111v53.81a2.38,2.38,0,0,0,3.57,2.06l92.41-53.36a22.71,22.71,0,0,1,22.7,0l92.41,53.36a2.38,2.38,0,0,0,3.57-2.06Z"/><path id="_Path_15" data-name="&lt;Path&gt;" class="cls-10" d="M124.6,22.32a22.47,22.47,0,0,0-5.61-.71,23,23,0,0,0-6.55,1v97.13a14.64,14.64,0,0,1,4.42-.69h4.26a14.48,14.48,0,0,1,3.48.43Z"/><g id="_Group_4" data-name="&lt;Group&gt;"><line class="cls-11" x1="7.9" y1="71.81" x2="7.9" y2="73.31"/><line class="cls-12" x1="7.9" y1="76.28" x2="7.9" y2="169.79"/><line class="cls-11" x1="7.9" y1="171.28" x2="7.9" y2="172.78"/></g><g id="_Group_5" data-name="&lt;Group&gt;"><line class="cls-11" x1="230.6" y1="72.29" x2="230.6" y2="73.79"/><line class="cls-12" x1="230.6" y1="76.76" x2="230.6" y2="170.28"/><line class="cls-11" x1="230.6" y1="171.76" x2="230.6" y2="173.26"/></g></g></g></g></g></svg>